<?xml version="1.0" encoding="utf-8"?>
<svg width="910" height="533" viewBox="0 0 910 533" fill="none" xmlns="http://www.w3.org/2000/svg">
  <path d="M909.999 431.17C910.035 399.009 894.833 368.733 869.012 349.537C843.192 330.34 809.801 324.491 778.985 333.765C780.545 323.445 781.322 313.022 781.308 302.586C781.407 238.487 752.883 177.684 703.511 136.755C654.139 95.8255 589.068 79.0372 526.037 90.967C482.618 18.9667 396.632 -15.4722 315.463 6.62831C234.295 28.7289 177.681 101.995 176.821 186.052C176.821 186.052 173.612 186.052 173.612 186.052C77.7289 186.052 0 263.719 0 359.526C0 455.333 77.7289 533 173.612 533C173.612 533 811.186 533 811.186 533C811.186 533 811.186 533 811.186 533C866.333 531.5 910.201 486.293 909.999 431.17C909.999 431.17 909.999 431.17 909.999 431.17Z" fill="#927DD3" fill-rule="evenodd" />
</svg>