<?xml version="1.0" encoding="utf-8"?>
<svg width="240" height="240" viewBox="0 0 240 240" fill="none" xmlns="http://www.w3.org/2000/svg">
  <g transform="translate(-0 0)">
    <g transform="translate(0 26.4)">
      <rect width="240" height="0.12" fill="#EBEBEB" fill-rule="evenodd" transform="translate(0 157.152)" />
      <rect width="35.419" height="0.12" fill="#EBEBEB" fill-rule="evenodd" transform="translate(159.998 160.421)" />
      <rect width="4.171" height="0.12" fill="#EBEBEB" fill-rule="evenodd" transform="translate(49.738 161.227)" />
      <rect width="9.211" height="0.12" fill="#EBEBEB" fill-rule="evenodd" transform="translate(195.898 164.875)" />
      <rect width="23.362" height="0.12" fill="#EBEBEB" fill-rule="evenodd" transform="translate(96 163.253)" />
      <rect width="11.702" height="0.12" fill="#EBEBEB" fill-rule="evenodd" transform="translate(80.026 163.253)" />
      <rect width="15.912" height="0.12" fill="#EBEBEB" fill-rule="evenodd" transform="translate(25.181 161.227)" />
      <path d="M2.736 135.744C1.22417 135.741 0 134.515 0 133.003C0 133.003 0 2.7168 0 2.7168C0.0131435 1.21437 1.23347 0.00258362 2.73598 0C2.73598 0 95.4192 0 95.4192 0C96.9329 -1.83105e-06 98.16 1.2271 98.16 2.7408C98.16 2.7408 98.16 133.003 98.16 133.003C98.16 134.517 96.9329 135.744 95.4192 135.744C95.4192 135.744 2.736 135.744 2.736 135.744ZM2.736 0.0960693C1.29044 0.098717 0.119991 1.27131 0.119995 2.71687C0.119995 2.71687 0.119995 133.003 0.119995 133.003C0.119995 134.449 1.29044 135.621 2.736 135.624C2.736 135.624 95.4192 135.624 95.4192 135.624C96.8655 135.621 98.0374 134.45 98.04 133.003C98.04 133.003 98.04 2.71687 98.04 2.71687C98.0374 1.27053 96.8655 0.0987079 95.4192 0.0960693C95.4192 0.0960693 2.736 0.0960693 2.736 0.0960693Z" fill="#EBEBEB" transform="translate(18.341 0)" />
      <path d="M95.4288 135.744C95.4288 135.744 2.74081 135.744 2.74081 135.744C1.22819 135.741 0.0026474 134.516 0 133.003C0 133.003 0 2.7168 0 2.7168C0.01577 1.21357 1.2375 0.00254333 2.74081 0C2.74081 0 95.4288 0 95.4288 0C96.9294 0.0052002 98.1469 1.21621 98.16 2.7168C98.16 2.7168 98.16 133.003 98.16 133.003C98.16 134.513 96.9388 135.739 95.4288 135.744C95.4288 135.744 95.4288 135.744 95.4288 135.744ZM2.7408 0.0960693C1.29446 0.0987079 0.122635 1.27054 0.119995 2.71687C0.119995 2.71687 0.119995 133.003 0.119995 133.003C0.122635 134.45 1.29446 135.621 2.7408 135.624C2.7408 135.624 95.4288 135.624 95.4288 135.624C96.8751 135.621 98.0469 134.45 98.0496 133.003C98.0496 133.003 98.0496 2.71687 98.0496 2.71687C98.0469 1.27054 96.8751 0.0987116 95.4288 0.0960693C95.4288 0.0960693 2.7408 0.0960693 2.7408 0.0960693Z" fill="#EBEBEB" transform="translate(122.16 0)" />
      <rect width="149.04" height="100.387" fill="#BB9393" fill-rule="evenodd" transform="translate(47.65 14.362)" />
      <rect width="150.936" height="100.387" fill="#F0F0F0" fill-rule="evenodd" transform="translate(44.088 14.362)" />
      <rect width="137.635" height="90.974" fill="#FAFAFA" fill-rule="evenodd" transform="translate(50.736 19.877)" />
      <rect width="0.629" height="90.974" fill="#BB9393" fill-rule="evenodd" transform="translate(50.736 19.877)" />
      <path d="M53.3808 90.9744L20.5056 0L0 0L32.8752 90.9744L53.3808 90.9744L53.3808 90.9744Z" fill="#FFFFFF" fill-rule="evenodd" transform="translate(81.912 19.877)" />
      <path d="M40.8672 90.9744L7.992 0L0 0L32.8752 90.9744L40.8672 90.9744L40.8672 90.9744Z" fill="#FFFFFF" fill-rule="evenodd" transform="translate(69.514 19.877)" />
      <path d="M192.317 2.5584C192.317 2.5584 1.27681 2.5584 1.27681 2.5584C0.574606 2.55579 0.00526428 1.98859 9.53674e-06 1.2864C9.53674e-06 1.2864 9.53674e-06 1.2864 9.53674e-06 1.2864C-0.00263214 0.578566 0.569023 0.00263309 1.27683 0C1.27683 0 192.317 0 192.317 0C193.025 0.00264359 193.596 0.578591 193.594 1.2864C193.594 1.2864 193.594 1.2864 193.594 1.2864C193.588 1.98859 193.019 2.55579 192.317 2.5584C192.317 2.5584 192.317 2.5584 192.317 2.5584Z" fill="#EBEBEB" fill-rule="evenodd" transform="translate(23.203 8.794)" />
      <rect width="9.442" height="116.693" fill="#FAFAFA" fill-rule="evenodd" transform="translate(193.44 5.381)" />
      <rect width="2.405" height="116.693" fill="#F0F0F0" fill-rule="evenodd" transform="translate(197.506 5.381)" />
      <rect width="9.442" height="116.693" fill="#FAFAFA" fill-rule="evenodd" transform="translate(199.349 5.381)" />
      <rect width="2.405" height="116.693" fill="#F0F0F0" fill-rule="evenodd" transform="translate(203.419 5.381)" />
      <rect width="9.442" height="116.693" fill="#FAFAFA" fill-rule="evenodd" transform="translate(205.171 5.381)" />
      <rect width="1.205" height="116.693" fill="#F0F0F0" fill-rule="evenodd" transform="translate(209.242 5.381)" />
      <rect width="9.442" height="116.693" fill="#FAFAFA" fill-rule="evenodd" transform="translate(26.477 5.381)" />
      <rect width="2.405" height="116.693" fill="#F0F0F0" fill-rule="evenodd" transform="translate(30.547 5.381)" />
      <rect width="9.442" height="116.693" fill="#FAFAFA" fill-rule="evenodd" transform="translate(32.386 5.381)" />
      <rect width="2.405" height="116.693" fill="#F0F0F0" fill-rule="evenodd" transform="translate(36.456 5.381)" />
      <rect width="9.442" height="116.693" fill="#FAFAFA" fill-rule="evenodd" transform="translate(38.213 5.381)" />
      <rect width="1.205" height="116.693" fill="#F0F0F0" fill-rule="evenodd" transform="translate(42.278 5.381)" />
      <path d="M5.19861 72.305C5.81301 49.8986 4.63701 13.5242 2.43381 1.33698C2.3486 0.89222 2.08035 0.503784 1.6946 0.266579C1.6946 0.266579 1.6946 0.266579 1.6946 0.266579C0.542604 -0.46302 -0.124596 0.405777 0.0194035 1.65378C0.705803 7.68258 1.32021 22.6298 1.93941 48.6314C2.2466 61.5914 1.93941 70.4426 2.7602 72.3098C2.7602 72.3098 5.19861 72.305 5.19861 72.305Z" fill="#BB9393" fill-rule="evenodd" transform="translate(30.115 78.261)" />
      <path d="M0.933681 10.1994C2.96408 4.11304 10.3177 -1.11416 17.2249 0.205841C19.2505 0.594635 8.85848 10.4346 6.03128 18.2346C3.83288 24.2922 1.61528 34.4826 1.02968 40.1322C0.770481 28.2474 -1.09192 16.281 0.933681 10.1994Z" fill="#BB9393" fill-rule="evenodd" transform="translate(32.556 90.365)" />
      <path d="M1.67201 10.416C3.70241 4.3344 8.46401 -0.00479126 13.672 0C15.712 0 8.01281 7.08481 5.18561 14.88C2.98721 20.9376 0.769611 31.128 0.18401 36.7776C-0.0847931 24.8976 -0.353592 16.4976 1.67201 10.416Z" fill="#BB9393" fill-rule="evenodd" transform="translate(34.165 103.469)" />
      <path d="M15.9088 12.648C12.9184 5.97601 6.05444 0 0.380841 0C-1.99516 0 7.36004 10.2912 11.464 18.8688C14.6512 25.536 18.2416 36.576 19.4656 42.6336C18.664 30.0576 18.8944 19.3152 15.9088 12.648Z" fill="#BB9393" fill-rule="evenodd" transform="translate(15.416 99.878)" />
      <path d="M1.42435 8.8176C3.14276 3.672 7.18435 -0.00479889 11.5764 7.62939e-06C13.3044 7.62939e-06 6.77636 6.00001 4.37635 12.6048C2.51396 17.736 0.637157 26.3616 0.137955 31.1472C-0.0636444 21.0816 -0.294044 13.968 1.42435 8.8176Z" fill="#BB9393" fill-rule="evenodd" transform="translate(32.454 78.221)" />
      <path d="M13.2848 10.4579C10.7552 4.80826 5.60477 0.478653 0.324768 0.00345612C-1.74403 -0.178947 6.61277 6.88666 10.0832 14.1539C12.7808 19.7939 15.8432 29.1442 16.8608 34.2755C16.1936 23.6243 15.8144 16.1075 13.2848 10.4579Z" fill="#BB9393" fill-rule="evenodd" transform="translate(16.509 79.336)" />
      <path d="M17.3703 10.77C14.5623 4.50117 6.45514 -1.58524 0.253543 0.373169C-1.87286 1.04517 9.96394 6.80997 13.8231 14.874C16.8183 21.138 20.1975 31.5204 21.3447 37.218C20.6007 25.3812 20.1783 17.0436 17.3703 10.77Z" fill="#BB9393" fill-rule="evenodd" transform="translate(12.668 86.459)" />
      <path d="M0.376562 9.84001C0.414963 11.1936 1.00056 11.1552 1.71096 11.1552C1.71096 11.1552 11.1286 11.1552 11.1286 11.1552C11.839 11.1552 12.4246 11.1936 12.463 9.84001C12.463 9.84001 12.8422 2.70721 12.8422 2.70721C12.8854 1.2384 12.271 0 11.503 0C11.503 0 1.33656 0 1.33656 0C0.568563 1.52588e-05 -0.0410385 1.2384 0.00216293 2.70721C0.00216293 2.70721 0.376562 9.84001 0.376562 9.84001Z" fill="#BB9393" fill-rule="evenodd" transform="translate(26.791 145.997)" />
      <path d="M0.706739 3.49973C0.706739 3.49973 14.6891 3.49973 14.6891 3.49973C14.886 3.50932 15.0582 3.36827 15.0875 3.17334C15.0875 3.17334 15.4187 0.408524 15.4187 0.408524C15.4272 0.299652 15.3883 0.192413 15.312 0.114273C15.2357 0.0361176 15.1294 -0.00531006 15.0203 0.000549316C15.0203 0.000549316 0.39954 0.000549316 0.39954 0.000549316C0.290483 -0.00531006 0.184195 0.0361176 0.107893 0.114273C0.0315933 0.192413 -0.00731277 0.299652 0.00113869 0.408539C0.00113869 0.408539 0.332338 3.17336 0.332338 3.17336C0.362329 3.35808 0.519655 3.49522 0.706741 3.49973C0.706741 3.49973 0.706739 3.49973 0.706739 3.49973Z" fill="#F5F5F5" fill-rule="evenodd" transform="translate(25.521 144.585)" />
      <path d="M0.162247 72.305C-0.452148 49.8842 0.723846 13.5242 2.92226 1.33697C3.0108 0.892326 3.28033 0.504547 3.66624 0.266579C3.66624 0.266579 3.66624 0.266579 3.66624 0.266579C4.81345 -0.46302 5.48544 0.405777 5.34145 1.65378C4.65504 7.68258 4.04065 22.6298 3.42143 48.6314C3.11423 61.5914 3.42143 70.4426 2.60065 72.3098C2.60065 72.3098 0.162247 72.305 0.162247 72.305Z" fill="#BB9393" fill-rule="evenodd" transform="translate(204.476 78.261)" />
      <path d="M16.5511 10.1993C14.5207 4.11769 7.1671 -1.1143 0.259888 0.205696C-1.7657 0.59449 8.62628 10.4393 11.4535 18.2393C13.6519 24.2969 15.8695 34.4825 16.4551 40.1321C16.7095 28.2473 18.5767 16.2809 16.5511 10.1993Z" fill="#BB9393" fill-rule="evenodd" transform="translate(189.095 99.649)" />
      <path d="M3.5856 9.03839C6.5712 2.36639 13.4064 0 19.08 0C21.48 0 12.1008 10.2912 8.0016 18.8688C4.81441 25.5312 1.21921 36.576 0 42.6336C0.806396 30.0528 0.600006 15.7104 3.5856 9.03839Z" fill="#BB9393" fill-rule="evenodd" transform="translate(204.634 105.379)" />
      <path d="M10.4442 8.8224C8.72585 3.672 4.68425 0 0.287445 0C-1.44055 0 5.08745 6 7.48744 12.6048C9.34984 17.736 11.2266 26.3616 11.721 31.1472C11.9274 21.0816 12.1626 13.9728 10.4442 8.8224Z" fill="#BB9393" fill-rule="evenodd" transform="translate(194.717 85.19)" />
      <path d="M0.770737 12.6061C2.25874 6.59647 6.57875 1.42208 11.6763 0.0252838C13.6779 -0.521919 6.70355 7.91168 4.57234 15.6733C2.91154 21.7069 1.57234 31.4461 1.46194 36.6781C0.223541 26.0797 -0.736465 18.6109 0.770737 12.6061Z" fill="#BB9393" fill-rule="evenodd" transform="translate(206.177 79.146)" />
      <path d="M3.19681 10.3365C6.00481 4.06291 14.8896 -1.56269 21.0912 0.395721C23.2128 1.06772 13.5984 7.98933 8.8656 15.5733C5.1888 21.4677 1.1472 31.5429 0 37.2405C0.743988 25.4037 0.388794 16.6053 3.19681 10.3365Z" fill="#BB9393" fill-rule="evenodd" transform="translate(205.939 86.436)" />
      <path d="M12.4822 9.84001C12.4438 11.1936 11.8534 11.1552 11.1478 11.1552C11.1478 11.1552 1.71577 11.1552 1.71577 11.1552C1.00537 11.1552 0.419769 11.1936 0.376572 9.84001C0.376572 9.84001 0.00216675 2.70721 0.00216675 2.70721C-0.0410309 1.2384 0.568558 0 1.34137 0C1.34137 0 11.5222 0 11.5222 0C12.2902 1.52588e-05 12.8998 1.2384 12.8566 2.70721C12.8566 2.70721 12.4822 9.84001 12.4822 9.84001Z" fill="#BB9393" fill-rule="evenodd" transform="translate(200.302 145.997)" />
      <path d="M14.7176 3.49974C14.7176 3.49974 0.735168 3.49974 0.735168 3.49974C0.5383 3.50934 0.366119 3.36827 0.336792 3.17334C0.336792 3.17334 0.000793457 0.408539 0.000793457 0.408539C-0.00622559 0.299194 0.033844 0.192062 0.110855 0.114105C0.187881 0.0361633 0.29454 -0.00515747 0.403976 0.000549316C0.403976 0.000549316 15.0728 0.000549316 15.0728 0.000549316C15.1818 -0.00531006 15.2881 0.0361328 15.3644 0.114288C15.4407 0.192429 15.4796 0.299667 15.4711 0.408554C15.4711 0.408554 15.14 3.17336 15.14 3.17336C15.1057 3.3756 14.9219 3.51762 14.7176 3.49976C14.7176 3.49976 14.7176 3.49974 14.7176 3.49974Z" fill="#F5F5F5" fill-rule="evenodd" transform="translate(199.007 144.585)" />
    </g>
    <path d="M0 5.43359C0 2.43271 41.6676 0 93.0672 0C144.467 0 186.134 2.43271 186.134 5.43359C186.134 8.43449 144.467 10.8672 93.0672 10.8672C41.6676 10.8672 0 8.43449 0 5.43359Z" fill="#F5F5F5" fill-rule="evenodd" transform="translate(26.933 194.362)" />
    <g transform="translate(189.422 115.627)">
      <path d="M10.8672 7.7376C12.0288 5.39039 11.7792 1.4352 7.9344 0.787199C4.08961 0.139204 1.3248 1.8144 0 0C0.614399 5.29919 5.4576 13.128 10.8672 7.7376Z" fill="#407BFF" fill-rule="evenodd" transform="translate(0 6.063)" />
      <path d="M5.1696 0.158796C3.12479 -0.186804 1.38239 0.125193 0 0.221199C0.446397 3.178 1.83839 5.6836 4.56 5.7316C6.21796 5.74416 7.7567 4.8714 8.59679 3.44199C8.59679 3.44199 8.59679 3.4132 8.59679 3.4132C8.31131 1.68373 6.9115 0.354507 5.1696 0.158796Z" fill="#000000" fill-rule="evenodd" fill-opacity="0.2" transform="translate(2.765 6.691)" />
      <path d="M0.531123 56.6064C-0.908877 48.8928 0.85273 38.952 2.56153 29.3376C4.63992 17.616 6.60793 6.55201 2.82552 0.244804C2.82552 0.244804 3.23832 0 3.23832 0C7.11192 6.45601 5.12952 17.6112 3.03192 29.4192C1.33272 38.9904 -0.424087 48.8928 1.00151 56.52C1.00151 56.52 0.531123 56.6064 0.531123 56.6064Z" fill="#407BFF" fill-rule="evenodd" transform="translate(6.434 10.301)" />
      <path d="M2.99905 14.1373C3.93505 10.9405 2.61505 8.85734 1.44864 7.04774C0.488643 5.57414 -0.384961 4.16774 0.176646 2.48774C0.944649 0.150146 2.72064 -0.262661 4.12705 0.130943C6.55486 0.91169 7.96267 3.43989 7.34785 5.91494C7.34785 5.91494 6.86785 5.80933 6.86785 5.80933C7.42765 3.58361 6.1695 1.30425 3.98785 0.59174C2.44225 0.15974 1.17984 0.922939 0.627847 2.63654C0.147847 4.11015 0.930249 5.35334 1.85184 6.79334C3.09505 8.70854 4.47746 10.8733 3.47905 14.2717C3.47905 14.2717 2.99905 14.1373 2.99905 14.1373Z" fill="#407BFF" fill-rule="evenodd" transform="translate(5.142 53.941)" />
      <path d="M6.47244 11.9712C8.64684 10.5072 10.7348 7.08481 7.71564 4.6176C4.69644 2.15039 1.47564 2.2176 1.21165 0C-0.890757 4.91041 -0.900352 13.9728 6.47244 11.9712Z" fill="#407BFF" fill-rule="evenodd" transform="translate(3.785 0)" />
      <path d="M0 7.47839C1.6176 5.27519 3.36 0.916786 9.3744 0C7.8864 2.40479 8.20799 11.2896 0 7.47839Z" fill="#407BFF" fill-rule="evenodd" transform="translate(11.568 15.562)" />
      <path d="M1.65107 0C1.92467 1.1136 2.85107 2.85601 1.53107 5.03519C1.15667 3.90719 -1.79052 1.61279 1.65107 0Z" fill="#407BFF" fill-rule="evenodd" transform="translate(10.795 57.898)" />
      <path d="M0 5.43839C2.18399 3.96479 5.3232 0.393589 13.2768 0C11.256 1.59839 10.7664 8.4144 0 5.43839Z" fill="#407BFF" fill-rule="evenodd" transform="translate(9.619 32.054)" />
      <path d="M0.425977 0C3.82918 1.44 7.09798 3.3888 6.98278 11.7408C5.22598 9.81601 -1.78203 10.9296 0.425977 0Z" fill="#407BFF" fill-rule="evenodd" transform="translate(0.102 41.813)" />
      <path d="M7.8384 6.65279C6.48479 4.8096 5.01599 0.767988 0 0C1.2432 2.03039 0.9744 9.85919 7.8384 6.65279Z" fill="#407BFF" fill-rule="evenodd" transform="translate(3.154 22.2)" />
      <path d="M1.15562 0C0.833599 -0.00100708 0.525864 0.132805 0.307002 0.368996C0.0881397 0.605186 -0.0218848 0.922211 0.00361818 1.24319C0.00361818 1.24319 1.26602 17.7648 1.26602 17.7648C1.31357 18.366 1.81497 18.8298 2.41802 18.8304C2.41802 18.8304 10.8372 18.8304 10.8372 18.8304C11.4421 18.8344 11.9462 18.3681 11.9892 17.7648C11.9892 17.7648 13.2564 1.24319 13.2564 1.24319C13.2804 0.922562 13.1699 0.606384 12.9514 0.370529C12.7328 0.134689 12.426 0.000442505 12.1044 0C12.1044 0 1.15562 0 1.15562 0Z" fill="#407BFF" fill-rule="evenodd" transform="translate(0.668 65.414)" />
      <path d="M1.15562 0C0.833599 -0.00100708 0.525864 0.132805 0.307002 0.368996C0.0881397 0.605186 -0.0218848 0.922211 0.00361818 1.24319C0.00361818 1.24319 1.26602 17.7648 1.26602 17.7648C1.31357 18.366 1.81497 18.8298 2.41802 18.8304C2.41802 18.8304 10.8372 18.8304 10.8372 18.8304C11.4421 18.8344 11.9462 18.3681 11.9892 17.7648C11.9892 17.7648 13.2564 1.24319 13.2564 1.24319C13.2804 0.922562 13.1699 0.606384 12.9514 0.370529C12.7328 0.134689 12.426 0.000442505 12.1044 0C12.1044 0 1.15562 0 1.15562 0Z" fill="#FFFFFF" fill-rule="evenodd" fill-opacity="0.7" transform="translate(0.668 65.414)" />
    </g>
    <g transform="translate(46.247 74.722)">
      <path d="M55.9163 37.1712C54.2819 36.3132 52.4801 35.8218 50.6363 35.7312C50.6363 35.7312 38.7899 35.2512 38.7899 35.2512C38.7899 35.2512 35.6843 17.0112 35.6843 17.0112C34.0859 7.6176 25.9547 0 17.5211 0C17.5211 0 12.6491 0 12.6491 0C4.21553 0 -1.32367 7.6176 0.274731 17.0112C0.274731 17.0112 2.41553 29.6112 2.41553 29.6112C3.21233 34.272 7.24433 38.0496 11.4299 38.0496C11.4299 38.0496 14.4299 38.0496 14.4299 38.0496C11.9579 38.0496 9.86033 40.4832 9.54833 43.7088C9.54833 43.7088 6.32753 76.6992 6.32753 76.6992L7.09553 76.6992C7.09553 76.6992 10.3019 43.8912 10.3019 43.8912C10.5707 41.16 12.3419 39.0912 14.4299 39.0912C14.4299 39.0912 20.7563 39.0912 20.7563 39.0912C22.8395 39.0912 24.5963 41.1456 24.8795 43.8912C24.8795 43.8912 28.0859 76.7472 28.0859 76.7472L28.8587 76.7472C28.8587 76.7472 25.6379 43.7568 25.6379 43.7568C25.3211 40.5312 23.2379 38.0976 20.7563 38.0976C20.7563 38.0976 38.3483 38.0976 38.3483 38.0976C35.8811 38.0976 33.7787 40.5312 33.4667 43.7568C33.4667 43.7568 30.2459 76.7472 30.2459 76.7472L31.0331 76.7472C31.0331 76.7472 34.2251 43.8912 34.2251 43.8912C34.4891 41.16 36.2603 39.0912 38.3483 39.0912C38.3483 39.0912 44.6747 39.0912 44.6747 39.0912C46.7579 39.0912 48.5147 41.1456 48.8027 43.8912C48.8027 43.8912 52.0091 76.7472 52.0091 76.7472L52.7771 76.7472C52.7771 76.7472 49.5563 43.7568 49.5563 43.7568C49.2443 40.5312 47.1563 38.0976 44.6747 38.0976C44.6747 38.0976 55.7387 38.0976 55.7387 38.0976C55.9694 38.0982 56.1679 37.9345 56.2113 37.708C56.2547 37.4814 56.1309 37.256 55.9163 37.1712Z" fill="#407BFF" fill-rule="evenodd" transform="translate(0 48.427)" />
      <path d="M55.9163 37.1712C54.2819 36.3132 52.4801 35.8218 50.6363 35.7312C50.6363 35.7312 38.7899 35.2512 38.7899 35.2512C38.7899 35.2512 35.6843 17.0112 35.6843 17.0112C34.0859 7.6176 25.9547 0 17.5211 0C17.5211 0 12.6491 0 12.6491 0C4.21553 0 -1.32367 7.6176 0.274731 17.0112C0.274731 17.0112 2.41553 29.6112 2.41553 29.6112C3.21233 34.272 7.24433 38.0496 11.4299 38.0496C11.4299 38.0496 14.4299 38.0496 14.4299 38.0496C11.9579 38.0496 9.86033 40.4832 9.54833 43.7088C9.54833 43.7088 6.32753 76.6992 6.32753 76.6992L7.09553 76.6992C7.09553 76.6992 10.3019 43.8912 10.3019 43.8912C10.5707 41.16 12.3419 39.0912 14.4299 39.0912C14.4299 39.0912 20.7563 39.0912 20.7563 39.0912C22.8395 39.0912 24.5963 41.1456 24.8795 43.8912C24.8795 43.8912 28.0859 76.7472 28.0859 76.7472L28.8587 76.7472C28.8587 76.7472 25.6379 43.7568 25.6379 43.7568C25.3211 40.5312 23.2379 38.0976 20.7563 38.0976C20.7563 38.0976 38.3483 38.0976 38.3483 38.0976C35.8811 38.0976 33.7787 40.5312 33.4667 43.7568C33.4667 43.7568 30.2459 76.7472 30.2459 76.7472L31.0331 76.7472C31.0331 76.7472 34.2251 43.8912 34.2251 43.8912C34.4891 41.16 36.2603 39.0912 38.3483 39.0912C38.3483 39.0912 44.6747 39.0912 44.6747 39.0912C46.7579 39.0912 48.5147 41.1456 48.8027 43.8912C48.8027 43.8912 52.0091 76.7472 52.0091 76.7472L52.7771 76.7472C52.7771 76.7472 49.5563 43.7568 49.5563 43.7568C49.2443 40.5312 47.1563 38.0976 44.6747 38.0976C44.6747 38.0976 55.7387 38.0976 55.7387 38.0976C55.9694 38.0982 56.1679 37.9345 56.2113 37.708C56.2547 37.4814 56.1309 37.256 55.9163 37.1712Z" fill="#FFFFFF" fill-rule="evenodd" fill-opacity="0.7" transform="translate(0 48.427)" />
      <path d="M0 4.41185C0 4.41185 0.782402 4.41185 0.782402 4.41185C1.26746 4.39951 1.7088 4.12847 1.93921 3.70145C1.93921 3.70145 1.93921 3.70145 1.93921 3.70145C1.93921 3.70145 2.36161 4.08066 2.36161 4.08066C2.59341 4.29768 2.89848 4.41936 3.216 4.42147C3.216 4.42147 13.8528 4.42147 13.8528 4.42147C13.9114 3.60168 13.7766 2.7796 13.4592 2.02147C13.4592 2.02147 8.7888 1.73347 7.728 0.163872C7.66195 0.0440598 7.52645 -0.0198212 7.392 0.00547791C6.4896 0.221481 2.952 0.989471 0.931202 0.226273C0.662403 0.125481 0.393604 0.355865 0.384003 0.682281C0.336761 1.93245 0.208485 3.17826 7.62939e-06 4.41185C7.62939e-06 4.41185 0 4.41185 0 4.41185Z" fill="#263238" fill-rule="evenodd" transform="translate(35.694 120.734)" />
      <path d="M0.0384007 6.1104C0.1056 15.1248 6.7584 20.8032 14.7264 21.4704C19.3728 21.864 25.6464 21.9888 29.2704 21.9072C26.5584 29.904 26.5584 50.7984 27.552 58.4784C27.552 58.4784 33.504 57.9984 33.504 57.9984C36.2256 34.776 41.5824 24.2832 41.832 17.0928C41.925 14.2867 40.4877 11.6512 38.0784 10.2096C26.3472 3.6096 0 0 0 0C0 0 0.0384007 6.1104 0.0384007 6.1104Z" fill="#263238" fill-rule="evenodd" transform="translate(9.135 63.269)" />
      <path d="M0 4.41158C0 4.41158 0.777599 4.41158 0.777599 4.41158C1.26294 4.40024 1.70475 4.12892 1.9344 3.70119C1.9344 3.70119 1.9344 3.70119 1.9344 3.70119C1.9344 3.70119 2.3568 4.08039 2.3568 4.08039C2.58886 4.29701 2.89377 4.41862 3.2112 4.4212C3.2112 4.4212 13.848 4.4212 13.848 4.4212C13.9069 3.60184 13.7737 2.78007 13.4592 2.0212C13.4592 2.0212 8.78399 1.7332 7.72799 0.163605C7.65923 0.044136 7.52283 -0.019249 7.38718 0.00520325C6.48478 0.221207 2.94719 0.989197 0.92638 0.225998C0.790012 0.189331 0.644325 0.221649 0.536236 0.312508C0.428146 0.403389 0.371292 0.541359 0.38398 0.681999C0.334034 1.93195 0.205795 3.17758 7.62939e-06 4.41151C7.62939e-06 4.41151 0 4.41158 0 4.41158Z" fill="#263238" fill-rule="evenodd" transform="translate(51.457 120.734)" />
      <path d="M1.19635 2.96161C-1.71245 11.3376 0.745144 16.728 7.89235 20.8032C12.0635 23.1744 17.9339 25.2 23.0411 27.2688C20.3339 35.2656 20.3339 56.16 21.3227 63.84C21.3227 63.84 27.2747 63.36 27.2747 63.36C29.9963 40.1376 35.3531 29.6448 35.6075 22.4544C35.7035 19.6464 33.8987 17.4192 31.8539 15.5712C21.5771 6.29762 6.42834 0 6.42834 0C6.42834 0 1.19635 2.96161 1.19635 2.96161Z" fill="#263238" fill-rule="evenodd" transform="translate(31.123 57.917)" />
      <path d="M29.8226 0.536015C29.3556 0.144609 28.7521 -0.0449848 28.1452 0.00904465C27.5383 0.0630684 26.9778 0.356287 26.5874 0.824018C26.5874 0.824018 26.4866 0.93922 26.4866 0.93922C25.7714 1.79842 25.0226 2.74882 24.2834 3.61762C23.5442 4.48642 22.8002 5.36002 22.037 6.16162C21.331 6.92984 20.5758 7.65136 19.7762 8.32162C19.3842 8.65446 18.9634 8.95164 18.5186 9.20963C17.7723 9.1963 17.0287 9.1176 16.2962 8.97442C15.212 8.75372 14.1401 8.47654 13.0849 8.14401C11.9809 7.78881 10.8481 7.40961 9.72491 6.98241C9.72491 6.98241 8.03531 6.32961 8.03531 6.32961L6.41771 5.68161C6.41771 5.68161 6.18731 5.59041 6.18731 5.59041C3.90705 4.71989 1.34566 5.79924 0.376135 8.03918C-0.593386 10.2791 0.372766 12.8853 2.56811 13.952C2.56811 13.952 3.59531 14.432 3.59531 14.432C3.92171 14.5808 4.25291 14.72 4.55531 14.8592C5.21291 15.1328 5.88011 15.3776 6.54731 15.6224C7.90667 16.1101 9.29102 16.525 10.6945 16.8656C11.4145 17.0336 12.1345 17.1872 12.8881 17.3216C13.6417 17.456 14.4097 17.5424 15.2113 17.6144C17.0155 17.7956 18.8374 17.6641 20.5969 17.2256C20.5969 17.2256 20.8945 17.1488 20.8945 17.1488C21.1265 17.0855 21.3492 16.9919 21.5569 16.8704C22.9752 16.0157 24.2287 14.9134 25.2577 13.616C26.1361 12.5326 26.9182 11.3746 27.5953 10.1552C28.2348 9.00353 28.8038 7.81416 29.2993 6.59361C29.7976 5.38276 30.2145 4.14 30.5473 2.87361C30.7725 2.01994 30.4912 1.11256 29.8226 0.536015Z" fill="#B65B52" fill-rule="evenodd" transform="translate(30.822 23.699)" />
      <path d="M0 5.16646C0 5.16646 1.368 7.43686 1.368 7.43686C3.2352 9.90406 5.2752 6.50086 5.2752 6.50086C5.2752 6.50086 6.80641 5.38246 6.80641 5.38246C7.32481 5.00326 7.5024 4.12006 7.22401 3.29926C7.22401 3.29926 6.528 1.24006 6.528 1.24006C6.2112 0.280064 5.4144 -0.199936 4.7712 0.0784645C4.7712 0.0784645 3.3312 0.76486 3.3312 0.76486C2.88911 0.980383 2.51408 1.31227 2.2464 1.72486C2.2464 1.72486 0 5.16646 0 5.16646Z" fill="#B55B52" fill-rule="evenodd" transform="translate(56.924 20.086)" />
      <path d="M1.31999 0C1.31999 0 -2.2464 8.0544 2.45759 8.7696C2.45759 8.7696 1.83839 13.776 1.83839 13.776C1.81707 14.2908 1.48728 14.7419 1.0032 14.9184C1.0032 14.9184 0 15.1488 0 15.1488L4.06081 15.5472C4.06081 15.5472 3.1008 15.1296 3.1008 15.1296C2.66075 14.8604 2.42591 14.3529 2.5056 13.8432C2.5056 13.8432 2.8704 8.81281 2.8704 8.81281C7.64639 9.0288 5.71199 0.431997 5.71199 0.431997C5.71199 0.431997 1.31999 0 1.31999 0Z" fill="#407BFF" fill-rule="evenodd" fill-opacity="0.2" transform="translate(60.971 10.594)" />
      <path d="M4.33452 3.4634C3.78294 3.97313 3.03978 4.22276 2.29234 4.14938C1.5449 4.07602 0.864464 3.68665 0.42252 3.07941C-0.0574799 2.28261 -0.0574799 1.15941 0.0769196 0.036211C2.06892 -0.198992 3.74892 0.799409 5.26572 0.516211C5.19852 1.673 4.94891 2.7722 4.33452 3.4634Z" fill="#407BFF" fill-rule="evenodd" transform="translate(61.388 14.849)" />
      <path d="M0 3.22527C0.700802 1.04607 2.736 0.743671 4.2336 0.0188751C4.488 -0.105923 5.04 0.412477 4.79041 0.858875C4.52753 1.44153 4.03885 1.89209 3.4368 2.10688C3.504 2.81728 2.99041 4.82368 0.979206 5.03488C0.443943 4.57056 0.09589 3.92735 0 3.22527Z" fill="#B55B52" fill-rule="evenodd" transform="translate(59.147 20.391)" />
      <path d="M0.564756 0.958118C1.75996 -0.640284 5.62876 -0.26108 7.86556 2.26372C8.78716 2.22532 12.4208 5.50372 15.1856 6.20452C17.9504 6.90532 18.0224 9.69412 17.6576 11.7053C16.9856 15.4157 16.784 17.3117 14.2064 17.5901C11.6288 17.8685 8.23035 16.1981 5.49915 14.1485C2.76795 12.0989 -1.55205 3.79492 0.564756 0.958118Z" fill="#407BFF" fill-rule="evenodd" transform="translate(27.401 24.242)" />
      <path d="M4.75003 1.55116C4.50043 0.83116 1.04923 -0.719238 0.991634 0.384764C0.934036 1.60396 0.722836 5.77996 0.415634 7.64716C0.108437 9.51437 -0.251564 11.8232 0.247631 12.1016C0.953232 12.5 3.23323 12.6872 4.17883 12.0008C5.46043 11.0696 5.82523 4.67116 4.75003 1.55116Z" fill="#FFFFFF" fill-rule="evenodd" transform="translate(40.851 29.778)" />
      <path d="M35.8656 0C36.9069 1.52575 36.8429 3.54955 35.7072 5.00641C34.4832 6.51362 32.4576 5.63521 32.4576 5.63521C32.4576 5.63521 31.9776 9.0192 28.7616 9.4416C23.448 10.1376 3.3984 7.87201 0 4.97761C10.6848 5.92319 35.8656 0 35.8656 0Z" fill="#FFFFFF" fill-rule="evenodd" transform="translate(9.51 59.678)" />
      <path d="M20.3743 0.000146866C15.2194 0.0268879 10.0778 0.526575 5.01428 1.49293C3.32 1.8412 1.84447 2.87303 0.935907 4.34489C0.0273485 5.81676 -0.233734 7.59825 0.214277 9.26892C4.00626 23.7025 1.85106 39.5425 2.15346 42.4225C2.15346 42.4225 33.8863 47.6401 38.5327 38.6401C44.7727 28.4545 32.7151 20.9425 29.0767 6.63375C28.1167 2.87535 24.2719 -0.0238476 20.3743 0.000146866Z" fill="#263238" fill-rule="evenodd" transform="translate(6.718 22.536)" />
      <path d="M1.30889 0.643206L1.47689 0.580803C1.47689 0.580803 1.52009 0.619204 1.52009 0.619204C4.06409 0.312004 6.71369 0.139204 9.23849 0.0384007C9.85769 0.0143986 10.4673 0.00479698 11.0673 0C11.8585 0.443342 12.4672 1.15241 12.7857 2.00161C13.5585 3.92161 13.0065 6.05281 11.2977 7.71841C11.2977 7.71841 11.1537 7.85281 11.1537 7.85281C11.1537 7.85281 10.9569 7.85281 10.9569 7.85281C7.24169 7.49281 0.300894 4.51681 0.00809288 2.22721C-0.0351124 1.80481 0.0560884 1.0848 1.25609 0.643206C1.25609 0.643206 1.30889 0.643206 1.30889 0.643206Z" fill="#FAFAFA" fill-rule="evenodd" fill-opacity="0.4" transform="translate(15.708 22.555)" />
      <path d="M22.5287 23.1359C22.5287 23.1359 22.4471 23.1119 22.4471 23.1119C21.0071 22.6847 19.5095 22.2623 18.0647 21.8159C16.6199 21.3695 15.1847 20.9183 13.7927 20.4143C12.479 19.9589 11.1963 19.4186 9.9527 18.7967C9.55281 18.5946 9.16641 18.367 8.79591 18.1151C8.79591 17.3567 8.83431 16.5983 8.85831 15.8303C8.85831 15.8303 9.04072 12.1727 9.04072 12.1727C9.04072 12.1727 9.26152 8.48147 9.26152 8.48147C9.33352 7.26227 9.41032 5.99507 9.45832 4.82387C9.45832 4.82387 9.45832 4.73747 9.45832 4.73747C9.55361 2.28848 7.69603 0.202171 5.25243 0.0137024C2.80884 -0.17477 0.653309 1.60201 0.371924 4.03666C0.208725 5.40946 0.131924 6.68626 0.0695252 8.01106C0.00712633 9.33586 -0.012074 10.6463 0.00712633 11.9663C0.0263271 13.2863 0.0647278 14.6207 0.151128 15.9599C0.237528 17.299 0.371927 18.6527 0.554326 20.0207C0.554326 20.0207 0.607126 20.419 0.607126 20.419C0.682965 20.9735 0.890336 21.5018 1.21193 21.9598C1.65468 22.5943 2.1847 23.1631 2.78633 23.6494C3.25613 24.0318 3.76074 24.3692 4.29352 24.6574C5.17308 25.1392 6.09346 25.5424 7.04393 25.8622C8.69876 26.4063 10.3957 26.8125 12.1175 27.0767C13.7831 27.3311 15.4199 27.4943 17.0567 27.5855C18.6972 27.672 20.3411 27.672 21.9816 27.5855C23.0889 27.5239 23.9922 26.676 24.1235 25.5747C24.2548 24.4734 23.5762 23.4369 22.5144 23.1167C22.5144 23.1167 22.5287 23.1359 22.5287 23.1359Z" fill="#B65B52" fill-rule="evenodd" transform="translate(6.916 32.727)" />
      <path d="M0.00143623 2.92512C-0.0849609 5.89632 3.75504 5.32512 3.75504 5.32512C3.75504 5.32512 5.71344 5.80512 5.71344 5.80512C6.43148 5.9379 7.1402 5.53178 7.38864 4.84512C7.38864 4.84512 8.15665 3.02112 8.15665 3.02112C8.53322 2.26071 8.23512 1.33872 7.48465 0.94273C7.48465 0.94273 5.87185 0.25153 5.87185 0.25153C5.40157 0.0499649 4.88882 -0.0324745 4.37906 0.011528C4.37906 0.011528 2.11825 0.208328 2.11825 0.208328C1.47894 0.26524 0.925026 0.674633 0.683035 1.26911C0.683035 1.26911 0.00143623 2.92512 0.00143623 2.92512Z" fill="#B55B52" fill-rule="evenodd" transform="translate(27.499 55.371)" />
      <path d="M3.87769 0.00758743C1.89049 0.165989 0.148096 3.64119 1.10329 6.88119C0.575295 7.64439 0.560896 14.8588 0.114496 17.6812C-0.331904 20.5036 0.536894 20.254 2.5481 20.6044C6.2681 21.2476 9.66169 23.2972 11.2745 21.262C12.8873 19.2268 12.8777 15.7516 12.3161 12.3868C11.4953 7.43319 7.41049 -0.27561 3.87769 0.00758743Z" fill="#407BFF" fill-rule="evenodd" transform="translate(5.234 25.845)" />
      <path d="M0.311279 1.80864C-0.35112 2.18783 0.100078 5.01983 1.13208 5.41824C2.16408 5.81665 8.04888 4.60223 9.93528 4.82304C11.8217 5.04385 12.2681 4.89504 12.7625 3.83904C13.2569 2.78304 13.5353 1.79904 13.0697 0.728642C12.4409 -0.720966 3.18168 0.17664 0.311279 1.80864Z" fill="#FFFFFF" fill-rule="evenodd" transform="translate(4.389 44.046)" />
      <path d="M11.4528 7.03201C10.9946 6.26895 10.2929 5.68227 9.4608 5.3664C9.11099 4.59896 9.0364 3.73441 9.2496 2.9184C9.2496 2.9184 0 0 0 0C0.926395 2.9904 1.56 5.9136 0.5184 7.4544C2.3904 8.448 5.8224 10.224 9.4272 9.9024C13.032 9.5808 12.12 8.2608 11.4528 7.03201Z" fill="#B55B52" fill-rule="evenodd" transform="translate(16.153 17.338)" />
      <path d="M6.72 0.806396C6.72 0.806396 0 0 0 0C2.0736 2.4624 5.4336 3.6624 6.8688 2.6352C6.66398 2.04827 6.61277 1.4187 6.72 0.806389C6.72 0.806389 6.72 0.806396 6.72 0.806396Z" fill="#000000" fill-rule="evenodd" fill-opacity="0.2" transform="translate(18.625 19.738)" />
      <path d="M0.0718174 7.01287C0.686217 11.3809 1.19982 14.3377 3.91182 15.9889C9.26381 19.2769 12.115 16.6417 12.8206 12.1489C13.4542 8.11687 12.3406 1.64646 7.90062 0.278467C5.89574 -0.349922 3.70853 0.101038 2.11571 1.47119C0.522894 2.84134 -0.249884 4.9366 0.0718136 7.01287C0.0718136 7.01287 0.0718174 7.01287 0.0718174 7.01287Z" fill="#B55B52" fill-rule="evenodd" transform="translate(15.068 4.56)" />
      <path d="M2.03524 15.2784C-0.182362 13.6272 -0.662362 8.93759 0.964838 7.41599C-1.27196 7.06559 1.09924 4.26719 4.06084 3.86399C7.02244 3.4608 4.88644 1.17119 4.88644 1.17119C5.95204 1.19999 7.28644 1.97279 7.55044 2.39999C7.28208 1.61309 7.05774 0.811846 6.87845 0C6.87845 0 11.1553 0.5328 11.6065 3.0096C11.774 2.22503 12.1133 1.48734 12.6001 0.849602C12.6001 0.849602 16.2577 4.6416 13.5121 7.4928C12.5521 6.1152 11.5921 5.5728 11.4193 6.4512C11.0305 8.3712 4.61766 3.8256 3.40326 8.64C3.04806 10.0368 5.80326 11.6688 6.04806 13.7568C4.71364 15.0672 2.03524 15.2784 2.03524 15.2784Z" fill="#E0E0E0" fill-rule="evenodd" transform="translate(12.731 0)" />
      <path d="M2.7792 0.777597C1.78035 1.07495 0.699503 0.772536 0 0C0 0 0.782399 2.4576 2.7792 0.777597Z" fill="#E0E0E0" fill-rule="evenodd" transform="translate(11.3 6.446)" />
      <path d="M0 0C0 0 0.4272 1.464 2.5968 2.2176C4.76641 2.97119 5.28 1.2528 5.28 1.2528C5.28 1.2528 0 0 0 0Z" fill="#FFFFFF" fill-rule="evenodd" transform="translate(20.804 15.389)" />
      <path d="M1.55039 0.13125C1.0477 -0.0590916 0.489962 -0.0418215 0 0.17926C0.514952 0.264991 1.04173 0.248679 1.55039 0.13125Z" fill="#000000" fill-rule="evenodd" fill-opacity="0.2" transform="translate(19.403 11.835)" />
      <path d="M1.3488 0.0182524C0.863291 -0.0538845 0.37051 0.0899124 0 0.411856C0.472763 0.379673 0.93293 0.245391 1.3488 0.0182524Z" fill="#000000" fill-rule="evenodd" fill-opacity="0.2" transform="translate(19.604 12.318)" />
      <path d="M0.628799 0.0737696C0.451736 0.215648 0.225506 0.281273 0 0.256172C0 0.256172 0.369602 -0.166231 0.628799 0.0737696Z" fill="#000000" fill-rule="evenodd" fill-opacity="0.2" transform="translate(27.025 11.297)" />
      <path d="M0.48 0.17067C0.336445 0.273252 0.143555 0.273252 0 0.17067C0 0.17067 0.297598 -0.213333 0.48 0.17067Z" fill="#000000" fill-rule="evenodd" fill-opacity="0.2" transform="translate(27.088 11.729)" />
      <path d="M3.8928 0.153259C2.60325 -0.0510864 1.28956 -0.0510793 0 0.153252C1.29656 0.227168 2.59628 0.227175 3.89283 0.153252C3.89283 0.153252 3.8928 0.153259 3.8928 0.153259Z" fill="#000000" fill-rule="evenodd" fill-opacity="0.2" transform="translate(21.438 7.426)" />
      <path d="M4.4736 0.0184937C4.4736 0.0184937 1.4976 -0.144705 0 0.498493C1.50274 0.4757 3.00021 0.315022 4.47358 0.0184937C4.47358 0.0184937 4.4736 0.0184937 4.4736 0.0184937Z" fill="#000000" fill-rule="evenodd" fill-opacity="0.2" transform="translate(21.356 8.242)" />
      <path d="M0.277932 2.90805C0.8211 3.87357 1.72603 4.58335 2.79314 4.88086C4.23314 5.26006 4.92434 3.98806 4.52594 2.65366C4.17074 1.45366 2.99954 -0.192737 1.57394 0.0184574C0.148334 0.22965 -0.374868 1.72245 0.277932 2.90805Z" fill="#B55B52" fill-rule="evenodd" transform="translate(13.576 12.932)" />
      <path d="M0.00328827 0.687364C0.0320873 1.04257 0.243288 1.31616 0.48329 1.29697C0.723289 1.27777 0.886488 0.970569 0.857689 0.610569C0.82889 0.250568 0.617689 -0.0182304 0.377687 0.000967026C0.137688 0.0201635 -0.0255108 0.327363 0.00328827 0.687364Z" fill="#263238" fill-rule="evenodd" transform="translate(22.15 11.423)" />
      <path d="M0.00336838 0.687364C0.0321674 1.04257 0.24337 1.31616 0.48337 1.29697C0.72337 1.27777 0.881769 0.970569 0.852972 0.610569C0.824173 0.250568 0.61297 -0.0182304 0.372971 0.000967026C0.132971 0.0201635 -0.0254288 0.327363 0.00336838 0.687364Z" fill="#263238" fill-rule="evenodd" transform="translate(25.947 11.173)" />
      <path d="M0.215998 3.0096C0.215998 3.0096 1.38239 3.1872 2.0208 2.6256C1.59464 1.58513 0.896711 0.678303 0 0C0 0 0.215998 3.0096 0.215998 3.0096Z" fill="#A02724" fill-rule="evenodd" transform="translate(24.74 12.24)" />
      <path d="M0.195724 1.344C0.160276 1.33938 0.126049 1.32797 0.0949211 1.3104C-0.00111389 1.24538 -0.0286598 1.11612 0.0325203 1.0176C0.385803 0.435681 0.995808 0.0575466 1.67413 0C1.79077 0 1.88533 0.0945559 1.88533 0.211201C1.88662 0.26677 1.86545 0.320508 1.8266 0.360264C1.78775 0.400012 1.73451 0.422417 1.67893 0.422402C1.67893 0.422402 1.67893 0.422402 1.67893 0.422402C1.14221 0.474287 0.662498 0.779238 0.38773 1.24321C0.34577 1.30808 0.272951 1.34631 0.195724 1.344Z" fill="#E0E0E0" fill-rule="evenodd" transform="translate(20.685 9.686)" />
      <path d="M1.75468 1.20018C1.68419 1.20444 1.61608 1.17397 1.57228 1.11859C1.26336 0.680193 0.759777 0.420337 0.223476 0.422593C0.106853 0.429177 0.00695801 0.339991 0.000343323 0.223367C-0.00627708 0.106743 0.0828876 0.00683308 0.199512 0.000183105C0.876379 -0.00885487 1.51543 0.311565 1.91312 0.859372C1.98147 0.95395 1.96235 1.08572 1.86992 1.15697C1.83553 1.18042 1.79601 1.19524 1.75468 1.20018Z" fill="#E0E0E0" fill-rule="evenodd" transform="translate(26.168 9.413)" />
      <path d="M10.5678 7.24824C5.62378 6.76824 -2.87221 2.30424 0.967785 0.907442C3.39658 2.82744 7.47658 3.60504 9.39658 3.60984C10.1118 2.92345 10.3566 1.00824 9.47338 0.00504684C11.4798 -0.162956 14.0094 3.89785 10.5678 7.24824Z" fill="#407BFF" fill-rule="evenodd" transform="translate(16.145 22.699)" />
      <path d="M9.20626 4.19541C7.42066 2.9618 1.75666 -0.0285931 0.167864 0.000205994C-0.0191097 0.611609 -0.050457 1.26002 0.0766621 1.8866C0.0766621 1.8866 2.16946 4.18581 9.20626 4.19541Z" fill="#FFFFFF" fill-rule="evenodd" transform="translate(16.331 22.113)" />
      <path d="M0.174778 0C0.77718 0.228655 1.21481 0.757456 1.32677 1.392C1.32677 1.392 0.942781 4.08001 0.102781 4.6752C0.102781 4.6752 -0.170822 0.835203 0.174778 0Z" fill="#FFFFFF" fill-rule="evenodd" transform="translate(25.434 21.634)" />
    </g>
    <g transform="translate(128.975 94.736)">
      <path d="M0.303604 37.1712C1.93811 36.3133 3.73989 35.8219 5.5836 35.7312C5.5836 35.7312 17.4252 35.2512 17.4252 35.2512C17.4252 35.2512 20.5308 17.0112 20.5308 17.0112C22.1292 7.6176 30.2604 0 38.6988 0C38.6988 0 43.5708 0 43.5708 0C52.0044 0 57.5436 7.6176 55.9452 17.0112C55.9452 17.0112 53.8044 29.6112 53.8044 29.6112C53.0124 34.272 48.9756 38.0496 44.7948 38.0496C44.7948 38.0496 41.79 38.0496 41.79 38.0496C44.262 38.0496 46.3596 40.4832 46.6764 43.7088C46.6764 43.7088 49.8972 76.6992 49.8972 76.6992L49.1052 76.6992C49.1052 76.6992 45.918 43.8912 45.918 43.8912C45.6492 41.16 43.878 39.0912 41.79 39.0912C41.79 39.0912 35.4684 39.0912 35.4684 39.0912C33.3804 39.0912 31.6284 41.1456 31.3404 43.8912C31.3404 43.8912 28.134 76.7472 28.134 76.7472L27.3612 76.7472C27.3612 76.7472 30.5868 43.7568 30.5868 43.7568C30.8988 40.5312 32.9868 38.0976 35.4684 38.0976C35.4684 38.0976 17.8716 38.0976 17.8716 38.0976C20.3388 38.0976 22.4412 40.5312 22.7532 43.7568C22.7532 43.7568 25.974 76.7472 25.974 76.7472L25.206 76.7472C25.206 76.7472 21.9996 43.8912 21.9996 43.8912C21.7308 41.16 19.9596 39.0912 17.8716 39.0912C17.8716 39.0912 11.5452 39.0912 11.5452 39.0912C9.46201 39.0912 7.70521 41.1456 7.42201 43.8912C7.42201 43.8912 4.21562 76.7472 4.21562 76.7472L3.44282 76.7472C3.44282 76.7472 6.66362 43.7568 6.66362 43.7568C6.97561 40.5312 9.06362 38.0976 11.5452 38.0976C11.5452 38.0976 0.481216 38.0976 0.481216 38.0976C0.250532 38.0982 0.0520605 37.9345 0.00862793 37.708C-0.0348047 37.4814 0.0890625 37.256 0.303604 37.1712Z" fill="#407BFF" fill-rule="evenodd" transform="translate(0 28.413)" />
      <path d="M0.303604 37.1712C1.93811 36.3133 3.73989 35.8219 5.5836 35.7312C5.5836 35.7312 17.4252 35.2512 17.4252 35.2512C17.4252 35.2512 20.5308 17.0112 20.5308 17.0112C22.1292 7.6176 30.2604 0 38.6988 0C38.6988 0 43.5708 0 43.5708 0C52.0044 0 57.5436 7.6176 55.9452 17.0112C55.9452 17.0112 53.8044 29.6112 53.8044 29.6112C53.0124 34.272 48.9756 38.0496 44.7948 38.0496C44.7948 38.0496 41.79 38.0496 41.79 38.0496C44.262 38.0496 46.3596 40.4832 46.6764 43.7088C46.6764 43.7088 49.8972 76.6992 49.8972 76.6992L49.1052 76.6992C49.1052 76.6992 45.918 43.8912 45.918 43.8912C45.6492 41.16 43.878 39.0912 41.79 39.0912C41.79 39.0912 35.4684 39.0912 35.4684 39.0912C33.3804 39.0912 31.6284 41.1456 31.3404 43.8912C31.3404 43.8912 28.134 76.7472 28.134 76.7472L27.3612 76.7472C27.3612 76.7472 30.5868 43.7568 30.5868 43.7568C30.8988 40.5312 32.9868 38.0976 35.4684 38.0976C35.4684 38.0976 17.8716 38.0976 17.8716 38.0976C20.3388 38.0976 22.4412 40.5312 22.7532 43.7568C22.7532 43.7568 25.974 76.7472 25.974 76.7472L25.206 76.7472C25.206 76.7472 21.9996 43.8912 21.9996 43.8912C21.7308 41.16 19.9596 39.0912 17.8716 39.0912C17.8716 39.0912 11.5452 39.0912 11.5452 39.0912C9.46201 39.0912 7.70521 41.1456 7.42201 43.8912C7.42201 43.8912 4.21562 76.7472 4.21562 76.7472L3.44282 76.7472C3.44282 76.7472 6.66362 43.7568 6.66362 43.7568C6.97561 40.5312 9.06362 38.0976 11.5452 38.0976C11.5452 38.0976 0.481216 38.0976 0.481216 38.0976C0.250532 38.0982 0.0520605 37.9345 0.00862793 37.708C-0.0348047 37.4814 0.0890625 37.256 0.303604 37.1712Z" fill="#FFFFFF" fill-rule="evenodd" fill-opacity="0.7" transform="translate(0 28.413)" />
      <path d="M7.9477 2.08001C4.2421 1.79681 0.776499 7.64321 2.05811 11.9488C3.33971 16.2544 -1.22509 18.8176 0.325312 23.1328C3.52692 32.0752 15.5701 33.5344 21.4453 25.4848C27.3205 17.4352 18.2005 12.7168 19.5589 9.48641C21.5749 4.66241 14.5909 -3.98238 7.9477 2.08001Z" fill="#E0E0E0" fill-rule="evenodd" transform="translate(21.554 0)" />
      <path d="M2.36111 0.0531082C2.80293 -0.0703125 3.27713 0.0241699 3.63791 0.307507C3.63791 0.307507 5.31791 1.6467 5.31791 1.6467C5.98712 2.18049 6.35722 3.0047 6.31151 3.8595C6.31151 3.8595 6.28271 4.3923 6.28271 4.3923C4.36271 5.0835 1.80432 4.4211 1.80432 4.4211C1.80432 4.4211 1.05072 4.3155 1.05072 4.3155C0.736626 4.28069 0.44959 4.12143 0.253843 3.87335C0.0580812 3.62527 -0.0300732 3.30908 0.0091114 2.9955C0.0091114 2.9955 0.201108 1.49791 0.201108 1.49791C0.283813 0.965933 0.67084 0.531942 1.18991 0.389107C1.18991 0.389107 2.36111 0.0531082 2.36111 0.0531082Z" fill="#CF6859" fill-rule="evenodd" transform="translate(2.378 20.781)" />
      <path d="M4.85098 0C4.85098 0 8.28297 8.112 3.56937 8.7504C3.56937 8.7504 4.10697 13.7664 4.10697 13.7664C4.11993 14.2801 4.43962 14.736 4.91817 14.9232C4.91817 14.9232 5.92137 15.168 5.92137 15.168L1.85577 15.4992C1.85577 15.4992 2.81577 15.096 2.81577 15.096C3.25947 14.833 3.50319 14.3304 3.43496 13.8192C3.43496 13.8192 3.13737 8.7744 3.13737 8.7744C-1.62423 8.9232 0.44937 0.36 0.44937 0.36C0.44937 0.36 4.85098 0 4.85098 0Z" fill="#407BFF" fill-rule="evenodd" fill-opacity="0.2" transform="translate(0.488 11.69)" />
      <path d="M0.878394 3.40263C1.42195 3.92152 2.16117 4.18367 2.91021 4.12315C3.65922 4.06265 4.34678 3.68524 4.8 3.08582C5.28 2.29863 5.328 1.16582 5.1936 0.0474243C3.2064 -0.221375 1.50721 0.753025 0 0.465021C0.048003 1.59783 0.278394 2.70663 0.878394 3.40263Z" fill="#407BFF" fill-rule="evenodd" transform="translate(0.899 15.943)" />
      <path d="M1.50721 2.2747C1.57441 2.7835 1.02721 3.0907 0.48 3.2347C0.368862 3.27169 0.246709 3.25306 0.151655 3.18461C0.056587 3.11617 0.000175714 3.00624 0 2.8891C0 2.8891 0 0.354704 0 0.354704C0.00319338 0.239275 0.0608497 0.132166 0.155464 0.0659409C0.250063 -0.000286102 0.370444 -0.0177975 0.48 0.018713C0.902417 0.191505 1.27201 0.417099 1.31521 0.781904C1.31521 0.781904 1.50721 2.2747 1.50721 2.2747Z" fill="#CF6859" fill-rule="evenodd" transform="translate(3.193 21.453)" />
      <path d="M22.9081 1.39157C21.9083 0.332066 20.2393 0.282663 19.1785 1.28117C19.1785 1.28117 19.0825 1.37237 19.0825 1.37237L18.6025 1.82357C18.6025 1.82357 18.0793 2.30357 18.0793 2.30357C17.7289 2.62517 17.3641 2.93717 16.9945 3.23477C16.2601 3.84437 15.5017 4.41557 14.7385 4.94357C13.4619 5.85551 12.0448 6.55271 10.5433 7.00757C10.0256 6.766 9.52806 6.48351 9.05533 6.16277C8.25967 5.62329 7.49225 5.04332 6.75609 4.42515C5.9929 3.79635 5.23449 3.12915 4.48569 2.44755C3.73689 1.76595 2.97848 1.05555 2.24408 0.37875C2.24408 0.37875 2.21528 0.349951 2.21528 0.349951C1.73632 -0.0920506 1.00648 -0.11833 0.496978 0.288076C-0.0125389 0.694483 -0.149165 1.41191 0.175283 1.97714C0.732085 2.93714 1.31769 3.81554 1.95129 4.69874C2.58489 5.58194 3.25209 6.42675 3.97208 7.25714C4.71523 8.11203 5.51717 8.91396 6.37206 9.6571C7.33458 10.5403 8.44622 11.2456 9.65526 11.7403C9.93173 11.8468 10.2291 11.8879 10.5241 11.8603C10.5241 11.8603 10.7065 11.8603 10.7065 11.8603C11.9748 11.7349 13.2191 11.4311 14.4025 10.9579C15.5102 10.5241 16.5755 9.98908 17.5849 9.35952C18.5643 8.75903 19.5024 8.09355 20.3928 7.36753C20.8296 7.00753 21.2568 6.63793 21.6792 6.25392C21.8904 6.06193 22.0968 5.87472 22.3032 5.66832C22.5096 5.46193 22.692 5.27952 22.9416 5.01552C23.8899 3.9885 23.8752 2.40089 22.9081 1.39157Z" fill="#CF6859" fill-rule="evenodd" transform="translate(5.778 22.433)" />
      <path d="M1.40846 13.68C7.97007 7.17601 22.9845 1.4688 22.9845 1.4688C22.9845 1.4688 32.0757 0 32.0757 0C32.0757 0 36.3957 5.76 34.8837 12.48C33.8229 17.256 19.7973 18.8496 10.0389 18.72C15.5829 26.88 19.7685 46.1424 19.7685 46.1424C18.8085 47.2512 18.0021 48.2208 17.1813 48.2448C13.5381 41.5248 3.74125 30.3408 0.194063 18.4272C-0.300147 16.7418 0.16563 14.921 1.40848 13.68C1.40848 13.68 1.40846 13.68 1.40846 13.68Z" fill="#CF6859" fill-rule="evenodd" transform="translate(5.538 44.795)" />
      <path d="M4.2912 0.480003C4.23841 0.316803 4.1808 0.158394 4.128 0C4.128 0 0 8.16 0 8.16C1.2432 9.9792 2.42399 11.6832 3.4512 13.2384C3.8736 10.2096 4.44961 4.272 4.2912 0.480003Z" fill="#000000" fill-rule="evenodd" fill-opacity="0.2" transform="translate(17.132 76.297)" />
      <path d="M2.69763 0.146278C2.69763 0.146278 3.94563 -0.631317 5.21282 1.39907C6.48001 3.42946 9.34562 9.55907 9.34562 9.55907C9.34562 9.55907 8.80321 10.0151 8.80321 10.0151C8.80321 10.0151 5.44321 4.57188 4.71362 3.77508C5.99522 6.73188 7.88641 10.7783 3.50881 14.4455C2.54881 15.2375 2.40001 9.20868 1.38721 6.31429C0.374399 3.41988 0 2.41188 0 2.41188C0 2.41188 2.69763 0.146278 2.69763 0.146278Z" fill="#263238" fill-rule="evenodd" transform="translate(22.408 89.347)" />
      <path d="M1.25054 0.0201416C1.25054 0.0201416 3.17054 0.394539 3.17054 0.394539C4.55294 3.41374 5.33534 7.80093 4.61054 10.1529C4.41373 10.7817 3.61214 10.9017 3.45374 10.3305C2.55897 7.29948 1.43575 4.34059 0.0937347 1.47932C-0.0685978 1.12201 -0.0173721 0.703903 0.226435 0.396355C0.470243 0.088829 0.865635 -0.056427 1.25055 0.0201263C1.25055 0.0201263 1.25054 0.0201416 1.25054 0.0201416Z" fill="#CF6859" fill-rule="evenodd" transform="translate(21.647 89.353)" />
      <path d="M0.0531006 9.38498C0.252466 11.6026 0.600454 13.8044 1.09472 15.9754C1.73792 19.1626 2.47232 22.2874 3.78751 27.4714C3.78751 27.4714 19.9347 24.8554 19.9347 24.8554C18.8739 20.3578 18.5667 15.0874 19.8051 4.37859C19.9663 3.2407 19.6094 2.09044 18.8323 1.24368C18.0553 0.396929 16.9398 -0.0572758 15.7923 0.00579262C15.1395 0.0441952 14.4531 0.101791 13.7523 0.183392C11.2826 0.40456 8.83165 0.800756 6.41799 1.36898C5.63559 1.57058 4.82439 1.80579 4.0516 2.04098C1.2675 2.92418 -0.316509 6.52418 0.0531006 9.38498Z" fill="#263238" fill-rule="evenodd" transform="translate(23.314 19.94)" />
      <path d="M6.41218 0C6.15778 2.4624 6.07138 6.912 7.85218 8.2368C7.85218 8.2368 4.49218 10.1808 1.29057 15.2112C-0.999023 11.1984 0.455376 9.552 0.455376 9.552C3.02817 8.4864 2.85538 6.3984 2.23617 4.61761C2.23617 4.61761 6.41218 0 6.41218 0Z" fill="#CF6859" fill-rule="evenodd" transform="translate(28.802 11.949)" />
      <path d="M0.240044 0.481407C0.176865 0.480001 0.116661 0.454197 0.0720558 0.40941C0.024683 0.364594 -0.0014801 0.301802 5.91278e-05 0.236609C-0.000732422 0.172962 0.0254154 0.111944 0.0720406 0.0686054C0.165367 -0.0228672 0.314722 -0.0228672 0.408047 0.0686054C0.454674 0.111944 0.48082 0.172962 0.480043 0.236609C0.481567 0.301802 0.455406 0.364594 0.408031 0.40941C0.363441 0.454197 0.303238 0.479994 0.240044 0.481407Z" fill="#FFFFFF" fill-rule="evenodd" transform="translate(29.276 21.562)" />
      <path d="M1.22538 2.20355C1.16217 2.20748 1.10006 2.18575 1.05308 2.14329C1.00612 2.10083 0.978243 2.04122 0.97578 1.97795C0.97578 1.97795 0.97578 1.97795 0.97578 1.97795C0.970465 1.91442 0.991705 1.85152 1.03445 1.80423C1.07721 1.75693 1.13765 1.72945 1.20138 1.72835C1.20138 1.72835 1.20138 1.72835 1.20138 1.72835C1.26506 1.72575 1.32714 1.74857 1.37395 1.79179C1.42077 1.83501 1.44849 1.89507 1.45098 1.95874C1.45098 1.95874 1.45098 1.95874 1.45098 1.95874C1.4549 2.02242 1.43332 2.08504 1.39099 2.13278C1.34866 2.18052 1.28907 2.20943 1.22538 2.21314C1.22538 2.21314 1.22538 2.21314 1.22538 2.21314C1.11018 2.21315 1.22538 2.20835 1.22538 2.20355ZM0.150175 2.07396C0.0287552 2.02303 -0.0306301 1.88519 0.0157623 1.76196C0.0157623 1.76196 0.0157623 1.76196 0.0157623 1.76196C0.0383358 1.70186 0.0840378 1.65331 0.142675 1.62715C0.2013 1.60099 0.267963 1.59941 0.327759 1.62277C0.327759 1.62277 0.327759 1.62277 0.327759 1.62277C0.449165 1.6737 0.508551 1.81154 0.462158 1.93476C0.462158 1.93476 0.462158 1.93476 0.462158 1.93476C0.425142 2.02702 0.335991 2.08772 0.236572 2.08837C0.236572 2.08837 0.236572 2.08837 0.236572 2.08837C0.207188 2.08823 0.178022 2.08337 0.150175 2.07396C0.150175 2.07396 0.150175 2.07396 0.150175 2.07396ZM1.95504 1.87719C1.94074 1.81479 1.95196 1.74926 1.98621 1.69517C2.02047 1.64109 2.07491 1.60293 2.13744 1.58918C2.13744 1.58918 2.13744 1.58918 2.13744 1.58918C2.26695 1.56217 2.39451 1.64294 2.42543 1.77159C2.42543 1.77159 2.42543 1.77159 2.42543 1.77159C2.43973 1.83399 2.4285 1.89951 2.39426 1.9536C2.36 2.00768 2.30556 2.04584 2.24303 2.05959C2.24303 2.05959 2.19024 2.05959 2.19024 2.05959C2.07904 2.06061 1.98171 1.98512 1.95504 1.87719C1.95504 1.87719 1.95504 1.87719 1.95504 1.87719ZM2.91499 1.62763C2.8936 1.56718 2.89729 1.50068 2.92525 1.44297C2.9532 1.38526 3.0031 1.34113 3.06379 1.32044C3.06379 1.32044 3.06379 1.32044 3.06379 1.32044C3.18831 1.27901 3.32302 1.3453 3.36619 1.46924C3.36619 1.46924 3.36619 1.46924 3.36619 1.46924C3.4112 1.59382 3.34675 1.73132 3.22219 1.77644C3.22219 1.77644 3.22219 1.77644 3.22219 1.77644L3.14059 1.77644C3.14059 1.77644 3.14059 1.77644 3.14059 1.77644C3.03982 1.78139 2.94711 1.72152 2.91018 1.62764C2.91018 1.62764 2.91499 1.62763 2.91499 1.62763ZM3.8366 1.27725C3.78254 1.15662 3.83619 1.01498 3.9566 0.960449C3.9566 0.960449 3.9566 0.960449 3.9566 0.960449C4.01376 0.932823 4.07965 0.929482 4.13931 0.951178C4.19897 0.972872 4.24733 1.01776 4.2734 1.07565C4.2734 1.07565 4.2734 1.07565 4.2734 1.07565C4.30101 1.13281 4.30437 1.19871 4.28268 1.25837C4.26098 1.31803 4.21608 1.36639 4.15821 1.39245C4.15821 1.39245 4.15821 1.39245 4.15821 1.39245C4.12497 1.39931 4.09066 1.39931 4.05743 1.39245C4.05743 1.39245 4.05743 1.39245 4.05743 1.39245C3.96687 1.3979 3.88049 1.3538 3.8318 1.27724C3.8318 1.27724 3.8366 1.27725 3.8366 1.27725ZM4.72942 0.849991C4.69699 0.794889 4.68837 0.728966 4.70559 0.667391C4.7228 0.605816 4.76433 0.553902 4.82062 0.523594C4.82062 0.523594 4.82062 0.523594 4.82062 0.523594C4.87571 0.491161 4.94163 0.482563 5.00321 0.499767C5.06478 0.516973 5.11671 0.5585 5.14702 0.614796C5.14702 0.614796 5.14702 0.614796 5.14702 0.614796C5.17945 0.669895 5.18806 0.735821 5.17085 0.797396C5.15364 0.858971 5.11211 0.910883 5.05582 0.941191C5.05582 0.941191 5.05582 0.941191 5.05582 0.941191C5.0205 0.961084 4.98109 0.972584 4.94062 0.974794C4.94062 0.974794 4.94062 0.974794 4.94062 0.974794C4.85123 0.975754 4.76843 0.927912 4.72461 0.849991C4.72461 0.849991 4.72942 0.849991 4.72942 0.849991ZM5.58373 0.369968C5.51236 0.258596 5.54456 0.110456 5.65574 0.0387669C5.65574 0.0387669 5.65574 0.0387669 5.65574 0.0387669C5.71021 0.00336838 5.77668 -0.00843811 5.84 0.00603485C5.90332 0.0205078 5.95807 0.06003 5.99175 0.115568C5.99175 0.115568 5.99175 0.115568 5.99175 0.115568C6.02559 0.169643 6.0365 0.234968 6.0221 0.297113C6.00769 0.359261 5.96912 0.413109 5.91493 0.44677C5.91493 0.44677 5.91493 0.44677 5.91493 0.44677C5.87727 0.473745 5.83163 0.487272 5.78534 0.485163C5.78534 0.485163 5.78534 0.485163 5.78534 0.485163C5.6984 0.481722 5.61981 0.432384 5.57894 0.355568C5.57894 0.355568 5.58373 0.369968 5.58373 0.369968Z" fill="#FFFFFF" transform="translate(29.755 20.713)" />
      <path d="M0.214966 0.48665C0.184746 0.491257 0.153984 0.491257 0.123764 0.48665C0.0649643 0.453413 0.0217972 0.398151 0.00376511 0.333046C-0.00125885 0.301237 -0.00125885 0.26885 0.00376511 0.237041C-0.000850677 0.206814 -0.000850677 0.176067 0.00376511 0.14584C0.0185738 0.118425 0.0362701 0.09268 0.0565567 0.0690384C0.151493 -0.0230122 0.302402 -0.0230122 0.397339 0.0690384C0.4408 0.114126 0.464912 0.174419 0.464546 0.237041C0.46957 0.26885 0.46957 0.301237 0.464546 0.333038C0.451466 0.361464 0.433609 0.387444 0.411755 0.409842C0.388096 0.430128 0.362343 0.447832 0.334938 0.462641C0.296955 0.478607 0.256157 0.486774 0.214966 0.48665Z" fill="#FFFFFF" fill-rule="evenodd" transform="translate(36.141 20.131)" />
      <path d="M2.4624 0C2.4624 0 0 2.736 0 2.736C0.148888 3.15103 0.261314 3.57825 0.336006 4.0128C1.32961 3.7056 2.61601 2.3664 2.63041 1.2816C2.65317 0.847727 2.59622 0.413357 2.46242 0C2.46242 0 2.4624 0 2.4624 0Z" fill="#000000" fill-rule="evenodd" fill-opacity="0.2" transform="translate(31.052 13.83)" />
      <path d="M11.6257 6.22909C10.7953 10.0691 10.5265 11.7059 8.2657 13.4963C4.8769 16.1939 0.369698 14.6003 0.038496 10.6595C-0.259102 7.10749 1.14249 1.42429 5.15049 0.257893C6.88846 -0.320999 8.80373 0.0906227 10.1504 1.33246C11.497 2.5743 12.0622 4.45001 11.6257 6.22909Z" fill="#CF6859" fill-rule="evenodd" transform="translate(26.559 2.057)" />
      <path d="M0 1.14089C1.5024 3.92008 5.5824 2.86408 5.96161 4.76008C6.34081 6.65608 7.54081 9.85288 8.77921 6.98728C10.0176 4.12168 7.71841 0.723281 5.8992 0.267283C4.08 -0.188716 1.2624 -0.15991 0 1.14089Z" fill="#E0E0E0" fill-rule="evenodd" transform="translate(29.723 1.702)" />
      <path d="M0 0.0152931C0 0.0152931 2.4 -0.119106 3.6144 0.408896C2.40012 0.38844 1.19026 0.256684 2.86102e-05 0.0152855C2.86102e-05 0.0152855 0 0.0152931 0 0.0152931Z" fill="#000000" fill-rule="evenodd" fill-opacity="0.2" transform="translate(29.094 5.007)" />
      <path d="M0 0.132283C0.502323 -0.0580006 1.05943 -0.0424805 1.55039 0.175481C1.03566 0.261307 0.509167 0.246636 0 0.132283Z" fill="#000000" fill-rule="evenodd" fill-opacity="0.2" transform="translate(33.03 8.577)" />
      <path d="M0 0.0194311C0.487164 -0.0555105 0.982574 0.0885496 1.3536 0.413034C0.879654 0.379028 0.418301 0.24487 0 0.0194311Z" fill="#000000" fill-rule="evenodd" fill-opacity="0.2" transform="translate(33.044 9.059)" />
      <path d="M0.770802 0.625568C0.713203 0.951965 0.502003 1.19677 0.290802 1.17757C0.0795994 1.15836 -0.0403996 0.875163 0.0124073 0.553564C0.0652142 0.231965 0.286011 -0.0224342 0.492409 0.00156784C0.698807 0.025569 0.823597 0.303969 0.770802 0.625568Z" fill="#263238" fill-rule="evenodd" transform="translate(31.611 8.285)" />
      <path d="M0.772442 0.625041C0.719648 0.951438 0.503643 1.20104 0.292442 1.17704C0.0812397 1.15304 -0.0435638 0.874636 0.0140476 0.553037C0.071661 0.231438 0.282846 -0.0181642 0.494047 0.00103998C0.70525 0.0202441 0.83004 0.303435 0.772442 0.625041Z" fill="#263238" fill-rule="evenodd" transform="translate(27.558 7.753)" />
      <path d="M0 0C0 0 0.292809 0.648003 0.729595 0.302402C0.729595 0.302402 0 0 0 0Z" fill="#263238" fill-rule="evenodd" transform="translate(27.414 7.48)" />
      <path d="M1.49279 0C1.08258 0.716455 0.580751 1.37641 0 1.96319C0.298168 2.23628 0.704737 2.35825 1.10399 2.29439C1.10399 2.29439 1.49279 0 1.49279 0Z" fill="#FF5652" fill-rule="evenodd" transform="translate(27.956 9.218)" />
      <path d="M0.613197 0.914824C0.433212 0.918098 0.253286 0.905252 0.0755997 0.876423C0.0504055 0.873244 0.0278912 0.85916 0.0140324 0.837898C0.000160217 0.816636 -0.00364685 0.790349 0.00358963 0.766026C0.0154839 0.713387 0.0651703 0.678201 0.118784 0.684434C0.939243 0.823367 1.77834 0.581352 2.39878 0.0268364C2.43459 -0.00895023 2.49261 -0.0089426 2.52839 0.0268431C2.56418 0.0626297 2.56418 0.120652 2.52839 0.156438C2.00533 0.636702 1.32327 0.90679 0.613197 0.914831C0.613197 0.914831 0.613197 0.914824 0.613197 0.914824Z" fill="#263238" fill-rule="evenodd" transform="translate(29.383 11.538)" />
      <path d="M3.1778 2.4413C2.68096 3.11115 1.93866 3.55652 1.11381 3.6797C0.0530128 3.8141 -0.258984 2.7437 0.216209 1.7597C0.648209 0.871699 1.71381 -0.265899 2.68821 0.0557003C3.66261 0.3773 3.8162 1.5917 3.1778 2.4413Z" fill="#CF6859" fill-rule="evenodd" transform="translate(35.795 9.152)" />
      <path d="M1.39783 1.21449C1.34868 1.20383 1.30663 1.17229 1.28263 1.1281C1.06302 0.707417 0.646084 0.425845 0.173834 0.379299C0.124043 0.378244 0.076992 0.356338 0.044136 0.318918C0.0112801 0.281499 -0.00435066 0.232002 0.00103951 0.182498C0.0134335 0.0761061 0.105175 -0.00311279 0.212242 9.53674e-05C0.810909 0.0488453 1.34316 0.400064 1.62344 0.931296C1.64703 0.976487 1.65168 1.0292 1.63638 1.07782C1.62107 1.12644 1.58706 1.16698 1.54184 1.1905C1.49793 1.21459 1.44715 1.22306 1.39783 1.21449Z" fill="#E0E0E0" fill-rule="evenodd" transform="translate(31.738 6.462)" />
      <path d="M0.187441 1.0992C0.139893 1.10785 0.0909233 1.09561 0.0530415 1.0656C-0.0176811 0.989956 -0.0176811 0.872446 0.0530415 0.796802C0.433243 0.29488 1.02658 -7.15256e-06 1.65624 0C1.70499 0.0033617 1.75002 0.0272093 1.78021 0.0656252C1.81039 0.104041 1.82291 0.153442 1.81465 0.201592C1.80016 0.306863 1.70972 0.384983 1.60345 0.383994C1.10524 0.38926 0.638159 0.627231 0.341045 1.02719C0.303354 1.07317 0.246885 1.09964 0.187441 1.0992Z" fill="#E0E0E0" fill-rule="evenodd" transform="translate(26.886 5.968)" />
      <path d="M0 0C0 0 0.288004 0.648003 0.729595 0.297598C0.729595 0.297598 0 0 0 0Z" fill="#263238" fill-rule="evenodd" transform="translate(31.465 8.013)" />
      <path d="M2.18717 9.89279C8.32638 5.064 22.1984 1.4688 22.1984 1.4688C22.1984 1.4688 31.2896 0 31.2896 0C31.2896 0 35.6096 5.76 34.0976 12.48C33.0416 17.256 19.664 18.6864 9.90078 18.552C12.5408 32.1552 4.89438 50.736 4.89438 50.736C3.49758 51.1728 2.31198 50.9232 1.70717 50.3616C3.84797 42.9744 1.62557 27.8016 0.0415726 15.1008C-0.198721 13.1096 0.614033 11.1369 2.18716 9.89279C2.18716 9.89279 2.18717 9.89279 2.18717 9.89279Z" fill="#CF6859" fill-rule="evenodd" transform="translate(11.96 44.795)" />
      <path d="M8.8031 0C8.8031 0 10.2431 0.201607 9.92629 2.57279C9.60949 4.94398 7.8623 11.4768 7.8623 11.4768C7.8623 11.4768 7.1567 11.4768 7.1567 11.4768C7.1567 11.4768 8.0591 5.13119 8.02069 4.06558C7.10389 7.15678 5.9567 11.4768 0.244687 11.4768C-0.984112 11.4768 2.75988 6.74878 3.83988 3.8784C4.91988 1.008 5.27988 0 5.27988 0C5.27988 0 8.8031 0 8.8031 0Z" fill="#263238" fill-rule="evenodd" transform="translate(9.102 93.664)" />
      <path d="M5.13873 0.42794C5.13873 0.42794 6.22832 1.77674 6.22832 1.77674C5.34513 4.97834 3.13232 8.84234 1.05393 10.1719C0.497124 10.5271 -0.194077 10.1047 0.0507278 9.56233C1.28788 6.73895 2.31155 3.82676 3.11316 0.850266C3.23105 0.431648 3.57205 0.113365 3.99782 0.0245972C4.42358 -0.0641785 4.86337 0.091301 5.13873 0.427956C5.13873 0.427956 5.13873 0.42794 5.13873 0.42794Z" fill="#CF6859" fill-rule="evenodd" transform="translate(11.269 91.887)" />
      <path d="M32.4336 0.314869C33.7056 2.30207 37.5072 7.99487 35.5728 14.7581C33.72 21.2573 12.5328 19.9037 12.5328 19.9037C14.6688 16.3757 8.63519 11.4701 0 11.9981C3.99839 8.19647 16.248 2.91647 16.248 2.91647C16.248 2.91647 28.0752 -1.13953 32.4336 0.314869Z" fill="#263238" fill-rule="evenodd" transform="translate(10.595 43.468)" />
      <path d="M1.60465 0.258808C1.9801 -0.00297546 2.45763 -0.070694 2.89104 0.0764046C2.89104 0.0764046 4.91665 0.786812 4.91665 0.786812C5.72824 1.06518 6.35218 1.72318 6.58705 2.54842C6.58705 2.54842 6.73585 3.05722 6.73585 3.05722C5.16145 4.33883 2.51665 4.56443 2.51665 4.56443C2.51665 4.56443 1.77265 4.71322 1.77265 4.71322C1.46162 4.79047 1.13257 4.73796 0.861021 4.56779C0.589468 4.39762 0.39876 4.12439 0.332651 3.81082C0.332651 3.81082 0.0206547 2.33722 0.0206547 2.33722C-0.0729485 1.80406 0.156635 1.26585 0.606255 0.964409C0.606255 0.964409 1.60465 0.258808 1.60465 0.258808Z" fill="#CF6859" fill-rule="evenodd" transform="translate(23.405 35.114)" />
      <path d="M17.8496 10.7724C17.7008 9.28916 17.4896 7.82995 17.2401 6.38036C16.9905 4.93077 16.7169 3.50036 16.3617 2.06036C16.0431 0.646143 14.6437 -0.24662 13.227 0.0604477C11.8102 0.367521 10.9061 1.75954 11.2016 3.17875C11.2016 3.17875 11.2016 3.21716 11.2016 3.21716C11.4656 4.53716 11.7536 5.93396 11.9889 7.29716C12.2241 8.66037 12.4689 10.038 12.6465 11.3964C12.824 12.7548 12.9825 14.1084 13.0545 15.4092C13.0833 16.0572 13.0833 16.6908 13.0545 17.2668C13.0545 17.4684 13.0305 17.67 13.0065 17.8524C12.5941 17.9046 12.1773 17.9127 11.7633 17.8764C10.6733 17.7788 9.59398 17.5861 8.53765 17.3003C7.42405 17.0171 6.29604 16.6667 5.17765 16.2876C4.05926 15.9084 2.91205 15.4907 1.81765 15.078C1.81765 15.078 1.77926 15.078 1.77926 15.078C1.16023 14.8446 0.464224 15.1074 0.153852 15.6916C-0.156519 16.2758 0.0153656 16.9996 0.555264 17.382C1.60217 18.1082 2.68513 18.7811 3.80002 19.3979C4.9263 20.022 6.08648 20.5829 7.27519 21.0779C8.53027 21.608 9.83627 22.0085 11.1728 22.2731C11.94 22.417 12.7208 22.4749 13.5008 22.4459C14.5212 22.4151 15.5152 22.1136 16.3808 21.5723C16.73 21.3487 17.0068 21.0286 17.1776 20.6507C17.1776 20.6507 17.2064 20.5883 17.2064 20.5883C17.6008 19.6887 17.8534 18.7333 17.9552 17.7563C18.05 16.9502 18.0965 16.1392 18.0944 15.3275C18.0968 13.8048 18.015 12.2841 17.8495 10.7714C17.8495 10.7714 17.8496 10.7724 17.8496 10.7724Z" fill="#CF6859" fill-rule="evenodd" transform="translate(26.864 21.034)" />
    </g>
    <g transform="translate(77.05 103.155)">
      <path d="M2.4576 18.336C4.1616 17.376 2.4576 14.7216 3.7776 11.04C5.0976 7.35839 4.5456 0 4.5456 0C4.5456 0 9.2112 0 9.2112 0C9.2112 0 8.6352 7.3632 9.97919 11.04C11.3232 14.7168 9.5952 17.3616 11.2992 18.336C13.0032 19.3104 13.7568 22.0896 13.7568 22.0896C13.7568 22.0896 0 22.0896 0 22.0896C0 22.0896 0.7584 19.3104 2.4576 18.336Z" fill="#407BFF" fill-rule="evenodd" transform="translate(36.072 75.477)" />
      <path d="M81.6 1.52588e-05C81.6 1.52588e-05 81.6 38.0544 81.6 38.0544C81.6 42.8208 78.7488 46.3248 75.7872 45.2064C72.4272 43.944 67.9776 43.1712 63.2592 44.9472C53.5488 48.6096 53.2368 49.7808 41.3088 45.2112C29.3808 40.6416 22.2912 51 15.4176 47.2848C12.5376 45.7296 9.3888 45.8016 6.6816 46.4112C3.1632 47.1984 0 42.9984 0 37.44C0 37.44 0 0 0 0L81.6 1.52588e-05Z" fill="#407BFF" fill-rule="evenodd" transform="translate(2.15 32.637)" />
      <path d="M81.6 1.52588e-05C81.6 1.52588e-05 81.6 38.0544 81.6 38.0544C81.6 42.8208 78.7488 46.3248 75.7872 45.2064C72.4272 43.944 67.9776 43.1712 63.2592 44.9472C53.5488 48.6096 53.2368 49.7808 41.3088 45.2112C29.3808 40.6416 22.2912 51 15.4176 47.2848C12.5376 45.7296 9.3888 45.8016 6.6816 46.4112C3.1632 47.1984 0 42.9984 0 37.44C0 37.44 0 0 0 0L81.6 1.52588e-05Z" fill="#FFFFFF" fill-rule="evenodd" fill-opacity="0.5" transform="translate(2.15 32.637)" />
      <path d="M0 0C0 0 0 5.24161 0 5.24161C0 7.5792 3 9.29281 6.1152 8.7456C10.4721 7.94608 14.9343 7.90386 19.3056 8.6208C29.5296 10.4112 29.8656 10.9872 42.4176 8.7456C54.9696 6.50401 62.4384 11.5872 69.672 9.7632C72.6912 9.00481 76.0176 9.03839 78.8736 9.33599C82.5744 9.72479 85.9008 7.6608 85.9008 4.93919C85.9008 4.93919 85.9008 0 85.9008 0L0 0Z" fill="#407BFF" fill-rule="evenodd" transform="translate(0 31.437)" />
      <path d="M0 0C0 0 0 5.24161 0 5.24161C0 7.5792 3 9.29281 6.1152 8.7456C10.4721 7.94608 14.9343 7.90386 19.3056 8.6208C29.5296 10.4112 29.8656 10.9872 42.4176 8.7456C54.9696 6.50401 62.4384 11.5872 69.672 9.7632C72.6912 9.00481 76.0176 9.03839 78.8736 9.33599C82.5744 9.72479 85.9008 7.6608 85.9008 4.93919C85.9008 4.93919 85.9008 0 85.9008 0L0 0Z" fill="#FFFFFF" fill-rule="evenodd" fill-opacity="0.7" transform="translate(0 31.437)" />
      <path d="M0 2.6976C0 4.1856 19.2288 5.39039 42.9504 5.39039C66.672 5.39039 85.9008 4.18559 85.9008 2.6976C85.9008 1.20961 66.672 0 42.9504 0C19.2288 0 0 1.20481 0 2.6976Z" fill="#407BFF" fill-rule="evenodd" transform="translate(0 28.739)" />
      <path d="M0 2.6976C0 4.1856 19.2288 5.39039 42.9504 5.39039C66.672 5.39039 85.9008 4.18559 85.9008 2.6976C85.9008 1.20961 66.672 0 42.9504 0C19.2288 0 0 1.20481 0 2.6976Z" fill="#FFFFFF" fill-rule="evenodd" fill-opacity="0.8" transform="translate(0 28.739)" />
      <path d="M0.00697327 1.3504C-0.00821686 1.31969 0.00212479 1.28247 0.0309753 1.26401C1.17817 0.563203 3.07417 -0.0943946 3.64537 0.011206C4.21658 0.116807 3.41018 1.77281 2.64698 2.18561C1.88378 2.59841 0.482174 2.1472 0.00697327 1.3504Z" fill="#407BFF" fill-rule="evenodd" transform="translate(44.508 1.503)" />
      <path d="M0.127171 1.97917C0.62746 1.71612 1.14552 1.48837 1.67758 1.29757C1.69574 1.2904 1.70989 1.27569 1.71635 1.25725C1.7228 1.23883 1.72092 1.2185 1.71118 1.20157C1.44203 0.743877 1.08472 0.344158 0.659977 0.0255615C0.213581 -0.195242 -0.103222 1.06236 0.0311775 1.94556C0.0383492 1.96373 0.0530548 1.97788 0.0714836 1.98433C0.08992 1.99078 0.110245 1.98889 0.127171 1.97917Z" fill="#407BFF" fill-rule="evenodd" transform="translate(44.321 0.432)" />
      <path d="M0.328651 0.260347C0.432102 0.297239 0.540527 0.318274 0.650261 0.322749C0.679047 0.325312 0.705837 0.307756 0.714977 0.280327C0.724117 0.252891 0.713219 0.222773 0.688641 0.207546C0.598713 0.145305 0.500042 0.0967749 0.395847 0.0635376C0.291653 0.0294141 0.18362 0.00844485 0.0742226 0.00113523C0.044342 -0.00462157 0.014679 0.0120117 0.00398254 0.0405029C-0.00669479 0.0689942 0.00473022 0.10103 0.0310249 0.116338C0.122185 0.179465 0.222584 0.228047 0.328651 0.260347Z" fill="#407BFF" fill-rule="evenodd" transform="translate(46.27 0.653)" />
      <path d="M0.497623 0.187353C0.369915 0.147415 0.248657 0.089209 0.137623 0.0145459C0.12101 0.000651836 0.0983772 -0.00364745 0.0778427 0.00320798C0.0572891 0.0100561 0.0417633 0.027063 0.0368271 0.0481494C0.0368271 0.10095 0.0128326 0.15375 0.00322342 0.196948C-0.00106812 0.212659 -0.00106812 0.229241 0.00322342 0.244951C0.0944252 0.364951 0.185623 0.494553 0.281616 0.628953C0.296017 0.654111 0.32584 0.666035 0.353615 0.657752C0.523212 0.596953 0.683216 0.544153 0.833614 0.499351C0.849506 0.492268 0.862881 0.480557 0.872005 0.465747C0.872005 0.432144 0.905609 0.39375 0.92001 0.350544C0.931301 0.331494 0.93066 0.307654 0.918385 0.289233C0.906094 0.270806 0.884338 0.261057 0.862411 0.264148C0.738045 0.25415 0.615452 0.228347 0.497623 0.187361C0.497623 0.187361 0.497623 0.187353 0.497623 0.187353Z" fill="#407BFF" fill-rule="evenodd" fill-opacity="0.5" transform="translate(46.038 0.918)" />
      <path d="M0.478142 0.846606C0.490692 0.864697 0.511311 0.875486 0.533337 0.875486C0.555351 0.875486 0.575977 0.864697 0.588531 0.846606C0.608994 0.766999 0.641369 0.690945 0.684536 0.621006C0.761337 0.429009 1.11174 0.448206 1.40934 0.549009C1.70694 0.649812 1.99975 0.841809 1.94694 1.02901C1.93897 1.101 1.92286 1.17185 1.89895 1.24021C1.89174 1.26281 1.89699 1.28755 1.91275 1.30528C1.92851 1.32301 1.95246 1.33112 1.97575 1.32661C2.16908 1.27764 2.36692 1.2487 2.56616 1.24021C2.58554 1.24073 2.60407 1.23223 2.61629 1.21718C2.62852 1.20213 2.63305 1.18226 2.62856 1.16341C2.61366 1.09984 2.58408 1.04066 2.54216 0.990601C2.54216 0.990601 1.99976 0.347402 1.99976 0.347402C1.7669 0.0664526 1.39488 -0.0581689 1.03976 0.0257959C1.03976 0.0257959 0.223763 0.217793 0.223763 0.217793C0.137306 0.233525 0.0619774 0.286091 0.0173645 0.361794C-0.00579453 0.385935 -0.00579453 0.42405 0.0173645 0.448191C0.188694 0.55897 0.343777 0.693062 0.478134 0.846606C0.478134 0.846606 0.478142 0.846606 0.478142 0.846606Z" fill="#407BFF" fill-rule="evenodd" fill-opacity="0.5" transform="translate(45.319 0)" />
      <path d="M0.408077 21.7213C0.345379 21.7215 0.293095 21.6734 0.288074 21.6109C-0.537525 13.5757 0.566475 3.78368 1.64648 0.0876782C1.65418 0.0563598 1.67467 0.0296998 1.70295 0.0141943C1.73123 -0.00131845 1.76472 -0.00425529 1.79528 0.00608635C1.8572 0.0267115 1.89277 0.0915747 1.87687 0.154885C0.80167 3.83648 -0.297523 13.5949 0.528076 21.5869C0.533695 21.6542 0.484776 21.7137 0.417679 21.7213C0.417679 21.7213 0.408077 21.7213 0.408077 21.7213Z" fill="#407BFF" fill-rule="evenodd" transform="translate(44.088 3.159)" />
      <path d="M2.14112 17.8968C1.8886 17.8308 1.71778 17.5957 1.73312 17.3352C0.773121 16.6392 -0.666878 14.8824 0.345924 10.812C1.40673 6.60239 1.06592 4.45679 0.230721 2.52239C0.00678253 2.00782 0.0428925 1.41713 0.327839 0.933669C0.612789 0.450212 1.11208 0.13251 1.67072 0.0791893C2.68559 -0.0263968 3.70866 -0.0263968 4.72352 0.0791893C5.28217 0.13251 5.78146 0.450212 6.0664 0.933669C6.35134 1.41713 6.38745 2.00782 6.16352 2.52239C6.16352 2.52239 6.16352 2.52239 6.16352 2.52239C5.32833 4.44239 4.98751 6.60239 6.04832 10.812C7.07553 14.8824 5.64513 16.6392 4.65633 17.3352C4.65633 17.6376 4.47393 17.8728 4.26273 17.8968C4.26273 17.8968 2.14112 17.8968 2.14112 17.8968ZM3.17799 0.237549C2.67608 0.237644 2.17454 0.264883 1.67557 0.319148C1.19621 0.369451 0.769814 0.645984 0.528378 1.06315C0.283504 1.47829 0.254883 1.98632 0.451576 2.42635C1.30597 4.40395 1.65637 6.59755 0.581177 10.8695C-0.426826 14.8727 0.989182 16.5383 1.92037 17.1719C1.92037 17.1719 1.97318 17.2103 1.97318 17.2103C1.97318 17.2103 1.97318 17.2872 1.97318 17.2872C1.97318 17.5032 2.06917 17.6616 2.15557 17.6712C2.15557 17.6712 4.20998 17.6712 4.20998 17.6712C4.28678 17.6712 4.38277 17.5031 4.38277 17.2919C4.38277 17.2919 4.38277 17.2295 4.38277 17.2295C4.38277 17.2295 4.43558 17.1863 4.43558 17.1863C5.36678 16.5527 6.78278 14.8871 5.77478 10.8839C4.69958 6.61195 5.04998 4.41834 5.90438 2.44075C5.90438 2.44075 5.90438 2.44075 5.90438 2.44075C6.10106 2.00072 6.07244 1.49269 5.82758 1.07755C5.58517 0.659101 5.1567 0.382378 4.67558 0.333554C4.1785 0.274323 3.67855 0.242273 3.17797 0.237556C3.17797 0.237556 3.17799 0.237549 3.17799 0.237549Z" fill="#407BFF" transform="translate(41.088 12.038)" />
      <path d="M0.115196 2.29178C0.676289 0.619599 2.43485 -0.334087 4.1424 0.107783C3.9888 3.41018 0 3.54938 0 3.54938C0.0527916 2.99738 0.115196 2.29178 0.115196 2.29178Z" fill="#407BFF" fill-rule="evenodd" transform="translate(44.726 6.259)" />
      <path d="M4.75699 0.48C4.75699 0.2149 4.54209 0 4.27699 0C4.27699 0 2.78419 0 2.78419 0C2.5285 0.0128028 2.32787 0.224004 2.32819 0.48C2.32819 0.48 2.32819 3.84 2.32819 3.84C2.32624 4.8895 1.90644 5.89476 1.16161 6.63378C1.16161 6.63378 1.16161 6.63378 1.16161 6.63378C0.419188 7.37601 0.00144958 8.38238 0 9.43218C0 9.43218 0 25.0802 0 25.0802C0 25.6104 0.429808 26.0402 0.960001 26.0402C0.960001 26.0402 6.1104 26.0402 6.1104 26.0402C6.64059 26.0402 7.0704 25.6104 7.0704 25.0802C7.0704 25.0802 7.0704 9.43217 7.0704 9.43217C7.07092 8.38138 6.65271 7.37429 5.90841 6.63337C5.90841 6.63337 5.90841 6.63337 5.90841 6.63337C5.16872 5.89219 4.75444 4.88711 4.75699 3.84C4.75699 3.84 4.75699 0.48 4.75699 0.48Z" fill="#263238" fill-rule="evenodd" transform="translate(30.475 3.933)" />
      <path d="M2.2656 0.614399C2.2656 0.614399 0.307201 0.614399 0.307201 0.614399C0.137535 0.614399 0 0.476865 0 0.307199C0 0.307199 0 0.307199 0 0.307199C0 0.137542 0.137535 0 0.307201 0C0.307201 0 2.2656 0 2.2656 0C2.43338 0.00261474 2.56803 0.139387 2.568 0.307192C2.568 0.307192 2.568 0.307192 2.568 0.307192C2.568 0.475041 2.43335 0.611806 2.26556 0.614399C2.26556 0.614399 2.2656 0.614399 2.2656 0.614399Z" fill="#263238" fill-rule="evenodd" transform="translate(32.741 3.621)" />
      <rect width="4.598" height="7.478" fill="#FFFFFF" fill-rule="evenodd" transform="translate(32.51 17.618)" />
      <rect width="4.598" height="1.013" fill="#407BFF" fill-rule="evenodd" transform="translate(32.51 16.605)" />
      <path d="M2.45763 1.2288C2.45763 1.72581 2.15825 2.17387 1.69908 2.36407C1.2399 2.55426 0.71138 2.44913 0.35994 2.09768C0.00851059 1.74625 -0.0966225 1.21772 0.0935745 0.758554C0.283768 0.299385 0.731834 0 1.22884 0C1.90748 0 2.45763 0.550152 2.45763 1.2288Z" fill="#407BFF" fill-rule="evenodd" transform="translate(33.581 20.128)" />
    </g>
    <g transform="translate(85.515 29.92)">
      <path d="M0.480003 3.6432C0.480003 3.6432 0 3.5856 0 3.5856C0.137596 2.40944 0.150467 1.22205 0.0383759 0.0431976C0.0383759 0.0431976 0.518379 0 0.518379 0C0.637711 1.21221 0.624832 2.43379 0.480003 3.64321C0.480003 3.64321 0.480003 3.6432 0.480003 3.6432Z" fill="#407BFF" fill-rule="evenodd" transform="translate(68.268 23.345)" />
      <path d="M7.83839 11.9136C6.71519 7.776 3.99839 3.7824 0 0.364801C0 0.364801 0.307205 0 0.307205 0C4.392 3.48 7.17599 7.536 8.29919 11.7888C8.29919 11.7888 7.83839 11.9136 7.83839 11.9136Z" fill="#407BFF" fill-rule="evenodd" transform="translate(59.949 8.624)" />
      <path d="M36.1056 0.352582C17.6688 -1.83142 1.54563 6.35738 0.10563 18.6406C-0.964768 27.6742 6.19203 36.4006 17.3856 41.2582C15.5616 46.2454 10.6656 49.4614 8.59203 50.1622C15.792 50.311 20.592 46.0966 22.992 43.2694C25.5588 44.0016 28.1799 44.528 30.8304 44.8438C33.9602 45.218 37.1188 45.2903 40.2624 45.0598C42.1441 48.8998 45.8256 53.9782 52.6848 56.0998C50.7648 54.6598 46.9248 49.8598 46.4065 44.1958C57.5857 41.7958 65.8225 35.1814 66.84 26.5702C68.2992 14.2726 54.5376 2.54138 36.1056 0.352582Z" fill="#FFFFFF" fill-rule="evenodd" transform="translate(0.237 0.236)" />
      <path d="M54.1654 56.9597C54.1654 56.9597 52.8503 56.5565 52.8503 56.5565C46.0054 54.4541 42.2903 49.4429 40.3703 45.5549C34.6292 45.9426 28.8641 45.3435 23.3254 43.7837C21.007 46.4669 16.1254 50.7917 8.82462 50.6429C8.82462 50.6429 7.44702 50.6141 7.44702 50.6141C7.44702 50.6141 8.75262 50.1773 8.75262 50.1773C10.6726 49.5293 15.4342 46.4957 17.3158 41.6285C5.79582 36.5597 -0.924177 27.6413 0.103022 18.8525C0.818225 12.8285 4.99902 7.5869 11.8726 4.09731C18.7462 0.607707 27.4246 -0.702695 36.3814 0.358105C45.3382 1.4189 53.4982 4.7453 59.3398 9.72771C65.1814 14.7101 68.047 20.8013 67.3318 26.8253C66.3334 35.2349 58.519 42.0365 46.9174 44.6141C47.5222 50.2253 51.3862 54.8669 53.0806 56.1341C53.0806 56.1341 54.1654 56.9597 54.1654 56.9597ZM40.6438 45.0508C40.6438 45.0508 40.7158 45.1948 40.7158 45.1948C42.4774 48.8044 45.8182 53.4604 51.8758 55.7164C49.8982 53.7436 46.8694 49.4524 46.4038 44.446C46.4038 44.446 46.4038 44.2348 46.4038 44.2348C46.4038 44.2348 46.615 44.1868 46.615 44.1868C58.135 41.6956 65.8822 35.0188 66.8614 26.7676C67.5526 20.9068 64.7734 14.9836 59.0326 10.0924C53.2918 5.20124 45.199 1.88444 36.3334 0.83324C27.4678 -0.217961 18.8566 1.09244 12.0982 4.52444C5.33982 7.95644 1.27903 13.0492 0.578223 18.9244C-0.44418 27.5644 6.28542 36.3292 17.7142 41.2924C17.7142 41.2924 17.9254 41.3836 17.9254 41.3836C17.9254 41.3836 17.8486 41.5948 17.8486 41.5948C16.2502 45.9628 12.3766 48.9436 10.0102 50.1628C16.5718 49.8508 20.9638 45.8428 23.0614 43.3708C23.0614 43.3708 23.1574 43.2509 23.1574 43.2509C23.1574 43.2509 23.3062 43.294 23.3062 43.294C25.8603 44.0229 28.4686 44.5462 31.1062 44.8588C34.2218 45.23 37.3657 45.3024 40.495 45.0748C40.495 45.0748 40.6438 45.0508 40.6438 45.0508Z" fill="#407BFF" />
      <path d="M19.5845 3.62175C16.9829 -1.81665 9.8597 -0.895049 9.0245 4.81215C4.6325 1.06815 -1.3435 5.05696 0.269297 10.865C1.8821 16.673 13.8821 17.7818 13.8821 17.7818C13.8821 17.7818 22.1861 9.06495 19.5845 3.62175Z" fill="#407BFF" fill-rule="evenodd" transform="translate(12.218 10.618)" />
      <path d="M19.5845 3.62175C16.9829 -1.81665 9.8597 -0.895049 9.0245 4.81215C4.6325 1.06815 -1.3435 5.05696 0.269297 10.865C1.8821 16.673 13.8821 17.7818 13.8821 17.7818C13.8821 17.7818 22.1861 9.06495 19.5845 3.62175Z" fill="#FFFFFF" fill-rule="evenodd" fill-opacity="0.7" transform="translate(12.218 10.618)" />
      <path d="M24.0116 12.1717C25.5956 5.13493 18.2132 0.718927 13.1876 5.45173C11.8292 -1.32587 3.26123 -2.00267 0.472427 4.65493C-2.31638 11.3125 8.15243 21.2485 8.15243 21.2485C8.15243 21.2485 22.4324 19.2133 24.0116 12.1717Z" fill="#407BFF" fill-rule="evenodd" transform="translate(28.983 13.29)" />
    </g>
  </g>
</svg>