<?xml version="1.0" encoding="utf-8"?>
<svg width="240" height="240" viewBox="0 0 240 240" fill="none" xmlns="http://www.w3.org/2000/svg">
  <g transform="translate(-0 0)">
    <g transform="translate(5.33 38.297)">
      <path d="M120.91 181.346C160.121 169.63 186.795 133.922 209.173 105.559C231.55 77.1961 230.48 42.5305 207.55 21.2521C184.621 -0.0263306 161.619 17.4889 124.385 9.53527C87.1518 1.58167 78.4302 -6.18954 42.8478 7.44727C7.26537 21.0841 -9.83703 69.6025 5.83017 112.423C21.4974 155.244 49.4382 171.833 49.4382 171.833C49.4382 171.833 81.699 193.063 120.91 181.346Z" fill="#92E3A9" fill-rule="evenodd" />
      <path d="M120.91 181.346C160.121 169.63 186.795 133.922 209.173 105.559C231.55 77.1961 230.48 42.5305 207.55 21.2521C184.621 -0.0263306 161.619 17.4889 124.385 9.53527C87.1518 1.58167 78.4302 -6.18954 42.8478 7.44727C7.26537 21.0841 -9.83703 69.6025 5.83017 112.423C21.4974 155.244 49.4382 171.833 49.4382 171.833C49.4382 171.833 81.699 193.063 120.91 181.346Z" fill="#FFFFFF" fill-rule="evenodd" fill-opacity="0.7" />
    </g>
    <g transform="translate(25.234 17.76)">
      <path d="M50.2416 13.5355C47.9904 12.3067 46.9632 13.3339 46.1424 12.3067C45.3216 11.2795 48.3984 8.61552 42.2496 5.95152C42.2496 5.95152 41.8368 0.191523 33.432 0.00432312C25.0272 -0.182877 27.2832 5.76432 25.0272 7.20432C22.7712 8.64432 22.1472 6.38352 19.9008 7.81872C17.6544 9.25392 18.672 12.1387 16.824 12.5371C14.976 12.9355 12.504 10.6891 10.2672 12.1243C8.0304 13.5595 8.0112 14.7931 6.984 14.7931C5.9568 14.7931 3.912 13.9723 2.664 14.7931C1.416 15.6139 0 16.6363 0 16.6363C0 16.6363 51.8832 16.6363 51.8832 16.6363C51.8832 16.6363 52.4976 14.7691 50.2416 13.5355Z" fill="#92E3A9" fill-rule="evenodd" transform="translate(23.261 0)" />
      <g transform="translate(23.261 0)">
        <path d="M50.2416 13.5355C47.9904 12.3067 46.9632 13.3339 46.1424 12.3067C45.3216 11.2795 48.3984 8.61552 42.2496 5.95152C42.2496 5.95152 41.8368 0.191523 33.432 0.00432312C25.0272 -0.182877 27.2832 5.76432 25.0272 7.20432C22.7712 8.64432 22.1472 6.38352 19.9008 7.81872C17.6544 9.25392 18.672 12.1387 16.824 12.5371C14.976 12.9355 12.504 10.6891 10.2672 12.1243C8.0304 13.5595 8.0112 14.7931 6.984 14.7931C5.9568 14.7931 3.912 13.9723 2.664 14.7931C1.416 15.6139 0 16.6363 0 16.6363C0 16.6363 51.8832 16.6363 51.8832 16.6363C51.8832 16.6363 52.4976 14.7691 50.2416 13.5355Z" fill="#FFFFFF" fill-rule="evenodd" />
      </g>
      <path d="M30.7344 8.28314C29.352 7.52954 28.728 8.15834 28.224 7.52954C27.72 6.90074 29.6064 5.26874 25.824 3.64154C25.824 3.64154 25.5696 0.127936 20.4288 0.00313473C15.288 -0.121666 16.6656 3.51674 15.2832 4.39033C13.9008 5.26393 13.5312 3.91033 12.1488 4.76954C10.7664 5.62874 11.4144 7.40474 10.2864 7.65434C9.1584 7.90394 7.6512 6.52634 6.2736 7.40474C4.896 8.28314 4.8912 9.03194 4.2672 9.03194C3.6432 9.03194 2.3808 8.55194 1.632 9.03194C0.883202 9.51194 0 10.1647 0 10.1647C0 10.1647 31.7376 10.1647 31.7376 10.1647C31.7376 10.1647 32.112 9.03194 30.7344 8.28314Z" fill="#92E3A9" fill-rule="evenodd" transform="translate(0 1.945)" />
      <g transform="translate(0 1.945)">
        <path d="M30.7344 8.28314C29.352 7.52954 28.728 8.15834 28.224 7.52954C27.72 6.90074 29.6064 5.26874 25.824 3.64154C25.824 3.64154 25.5696 0.127936 20.4288 0.00313477C15.288 -0.121666 16.6656 3.51673 15.2832 4.39033C13.9008 5.26393 13.5312 3.91033 12.1488 4.76954C10.7664 5.62874 11.4144 7.40474 10.2864 7.65434C9.1584 7.90394 7.6512 6.52634 6.2736 7.40474C4.896 8.28314 4.8912 9.03194 4.2672 9.03194C3.6432 9.03194 2.3808 8.55194 1.632 9.03194C0.883202 9.51194 0 10.1647 0 10.1647C0 10.1647 31.7376 10.1647 31.7376 10.1647C31.7376 10.1647 32.112 9.03194 30.7344 8.28314Z" fill="#FFFFFF" fill-rule="evenodd" />
      </g>
      <path d="M30.7536 8.28314C29.3712 7.52954 28.7472 8.15835 28.2432 7.52954C27.7392 6.90073 29.6256 5.27354 25.8432 3.64154C25.8432 3.64154 25.5888 0.127934 20.448 0.00313568C15.3072 -0.121662 16.6848 3.51674 15.3024 4.39513C13.92 5.27353 13.5504 3.89113 12.168 4.76953C10.7856 5.64793 11.4144 7.40474 10.2864 7.64953C9.15839 7.89433 7.65118 6.52153 6.27359 7.39993C4.896 8.27833 4.89119 9.03193 4.2672 9.03193C3.6432 9.03193 2.3808 8.55193 1.632 9.03193C0.883194 9.51193 0 10.1599 0 10.1599C0 10.1599 31.7376 10.1599 31.7376 10.1599C31.7376 10.1599 32.1312 9.03674 30.7536 8.28314Z" fill="#92E3A9" fill-rule="evenodd" transform="translate(171.859 45.15)" />
      <g transform="translate(171.859 45.15)">
        <path d="M30.7536 8.28314C29.3712 7.52954 28.7472 8.15835 28.2432 7.52954C27.7392 6.90073 29.6256 5.27354 25.8432 3.64154C25.8432 3.64154 25.5888 0.127932 20.448 0.00313477C15.3072 -0.121663 16.6848 3.51674 15.3024 4.39513C13.92 5.27353 13.5504 3.89113 12.168 4.76953C10.7856 5.64793 11.4144 7.40474 10.2864 7.64953C9.15838 7.89433 7.65119 6.52153 6.27359 7.39993C4.89599 8.27833 4.89119 9.03193 4.26719 9.03193C3.6432 9.03193 2.3808 8.55193 1.632 9.03193C0.883199 9.51193 0 10.1599 0 10.1599C0 10.1599 31.7376 10.1599 31.7376 10.1599C31.7376 10.1599 32.1312 9.03674 30.7536 8.28314Z" fill="#FFFFFF" fill-rule="evenodd" />
      </g>
    </g>
    <g transform="translate(18.937 24.006)">
      <path d="M8.44087 61.2994C8.44087 61.2994 27.7897 63.2194 37.5961 75.2194C37.5961 75.2194 47.9545 61.3234 66.5641 61.6066C79.2107 46.3479 77.8458 23.8935 63.4441 10.2789C49.0424 -3.33576 26.5469 -3.43793 12.0221 10.0453C-2.50259 23.5286 -4.07139 45.9696 8.43608 61.3426C8.43608 61.3426 8.44087 61.2994 8.44087 61.2994Z" fill="#92E3A9" fill-rule="evenodd" transform="translate(92.905 0)" />
      <path d="M8.44087 61.2994C8.44087 61.2994 27.7897 63.2194 37.5961 75.2194C37.5961 75.2194 47.9545 61.3234 66.5641 61.6066C79.2107 46.3479 77.8458 23.8935 63.4441 10.2789C49.0424 -3.33576 26.5469 -3.43793 12.0221 10.0453C-2.50259 23.5286 -4.07139 45.9696 8.43608 61.3426C8.43608 61.3426 8.44087 61.2994 8.44087 61.2994Z" fill="#92E3A9" fill-rule="evenodd" fill-opacity="0.5" transform="translate(92.905 0)" />
      <path d="M0.652786 0L0 196.296L3.2688 196.296L0.652786 0L0.652786 0Z" fill="#828282" fill-rule="evenodd" transform="translate(129.205 2.643)" />
      <path d="M0.326401 15.36C0.326401 15.36 6.8544 3.6048 18.6144 0C18.6144 0 6.20158 2.9424 0 13.0656C0 13.0656 0.326401 15.36 0.326401 15.36Z" fill="#828282" fill-rule="evenodd" transform="translate(130.497 56.192)" />
      <path d="M0 15.6672C0 15.6672 7.24319 3.5904 19.0032 0C19.0032 0 6.20641 3.6816 0 13.8048C0 13.8048 0 15.6672 0 15.6672Z" fill="#828282" fill-rule="evenodd" transform="translate(130.127 22.895)" />
      <path d="M0.167999 16.1856C0.167999 16.1856 7.1568 3.5904 18.9168 0C18.9168 0 6.20639 3.5232 0 13.6464C0 13.6464 0.167999 16.1856 0.167999 16.1856Z" fill="#828282" fill-rule="evenodd" transform="translate(130.213 39.551)" />
      <path d="M17.6496 15.36C17.6496 15.36 11.3472 3.6048 0 0C0 0 11.976 2.9376 17.9616 13.0608C17.9616 13.0608 17.6496 15.36 17.6496 15.36Z" fill="#828282" fill-rule="evenodd" transform="translate(112.213 31.371)" />
      <path d="M17.6496 15.36C17.6496 15.36 11.3472 3.6048 0 0C0 0 11.976 2.9376 17.9616 13.0608C17.9616 13.0608 17.6496 15.36 17.6496 15.36Z" fill="#828282" fill-rule="evenodd" transform="translate(112.213 47.701)" />
      <path d="M5.57652 40.6789C5.57652 40.6789 18.4309 41.9509 24.9445 49.9189C24.9445 49.9189 31.8277 40.6885 44.1877 40.8757C52.57 30.7492 51.6614 15.857 42.1101 6.82476C32.5588 -2.2075 17.6391 -2.28353 7.99628 6.65091C-1.64655 15.5854 -2.70693 30.4675 5.57173 40.6789C5.57173 40.6789 5.57652 40.6789 5.57652 40.6789Z" fill="#92E3A9" fill-rule="evenodd" transform="translate(0 66.835)" />
      <path d="M5.57652 40.6789C5.57652 40.6789 18.4309 41.9509 24.9445 49.9189C24.9445 49.9189 31.8277 40.6885 44.1877 40.8757C52.57 30.7492 51.6614 15.857 42.1101 6.82476C32.5588 -2.2075 17.6391 -2.28353 7.99628 6.65091C-1.64655 15.5854 -2.70693 30.4675 5.57173 40.6789C5.57173 40.6789 5.57652 40.6789 5.57652 40.6789Z" fill="#92E3A9" fill-rule="evenodd" transform="translate(0 66.835)" />
      <path d="M5.57652 40.6789C5.57652 40.6789 18.4309 41.9509 24.9445 49.9189C24.9445 49.9189 31.8277 40.6885 44.1877 40.8757C52.57 30.7492 51.6614 15.857 42.1101 6.82476C32.5588 -2.2075 17.6391 -2.28353 7.99628 6.65091C-1.64655 15.5854 -2.70693 30.4675 5.57173 40.6789C5.57173 40.6789 5.57652 40.6789 5.57652 40.6789Z" fill="#FFFFFF" fill-rule="evenodd" fill-opacity="0.5" transform="translate(0 66.835)" />
      <path d="M0.432001 0L0 130.402L2.1696 130.402L0.432001 0L0.432001 0Z" fill="#828282" fill-rule="evenodd" transform="translate(24.085 68.538)" />
      <path d="M0.216002 10.1952C0.216002 10.1952 4.536 2.3856 12.3648 0C12.3648 0 4.1184 1.95361 0 8.67839C0 8.67839 0.216002 10.1952 0.216002 10.1952Z" fill="#828282" fill-rule="evenodd" transform="translate(24.954 104.12)" />
      <path d="M3.8147e-06 10.4064C3.8147e-06 10.4064 4.8 2.3856 12.624 0C12.624 0 4.1232 2.4432 0 9.16801C0 9.16801 3.8147e-06 10.4064 3.8147e-06 10.4064Z" fill="#828282" fill-rule="evenodd" transform="translate(24.695 81.992)" />
      <path d="M0.086401 10.752C0.086401 10.752 4.7328 2.3856 12.5664 0C12.5664 0 4.1232 2.3376 0 9.06721C0 9.06721 0.086401 10.752 0.086401 10.752Z" fill="#828282" fill-rule="evenodd" transform="translate(24.776 93.056)" />
      <path d="M11.7264 10.1952C11.7264 10.1952 7.536 2.3856 0 0C0 0 7.9584 1.95361 11.9328 8.67841C11.9328 8.67841 11.7264 10.1952 11.7264 10.1952Z" fill="#828282" fill-rule="evenodd" transform="translate(12.801 87.632)" />
      <path d="M11.7264 10.1952C11.7264 10.1952 7.536 2.3856 0 0C0 0 7.9584 1.94881 11.9328 8.67841C11.9328 8.67841 11.7264 10.1952 11.7264 10.1952Z" fill="#828282" fill-rule="evenodd" transform="translate(12.801 98.48)" />
      <path d="M5.60538 40.7289C5.60538 40.7289 18.4598 42.0008 24.9734 49.9688C24.9734 49.9688 31.8566 40.7384 44.2214 40.9256C52.6222 30.7883 51.7144 15.8713 42.1464 6.82738C32.5784 -2.21655 17.634 -2.28342 7.98541 6.67452C-1.66316 15.6325 -2.70435 30.5407 5.60538 40.7529C5.60538 40.7529 5.60538 40.7289 5.60538 40.7289Z" fill="#92E3A9" fill-rule="evenodd" transform="translate(162.456 66.785)" />
      <path d="M5.60538 40.7289C5.60538 40.7289 18.4598 42.0008 24.9734 49.9688C24.9734 49.9688 31.8566 40.7384 44.2214 40.9256C52.6222 30.7883 51.7144 15.8713 42.1464 6.82738C32.5784 -2.21655 17.634 -2.28342 7.98541 6.67452C-1.66316 15.6325 -2.70435 30.5407 5.60538 40.7529C5.60538 40.7529 5.60538 40.7289 5.60538 40.7289Z" fill="#FFFFFF" fill-rule="evenodd" fill-opacity="0.3" transform="translate(162.456 66.785)" />
      <path d="M0.436783 0L0 130.402L2.1696 130.402L0.436783 0L0.436783 0Z" fill="#828282" fill-rule="evenodd" transform="translate(186.57 68.538)" />
      <path d="M0.216003 10.1952C0.216003 10.1952 4.53601 2.3856 12.3648 0C12.3648 0 4.1232 1.95361 0 8.67839C0 8.67839 0.216003 10.1952 0.216003 10.1952Z" fill="#828282" fill-rule="evenodd" transform="translate(187.439 104.12)" />
      <path d="M0 10.4064C0 10.4064 4.8 2.3856 12.6192 0C12.6192 0 4.1232 2.4432 0 9.16801C0 9.16801 0 10.4064 0 10.4064Z" fill="#828282" fill-rule="evenodd" transform="translate(187.185 81.992)" />
      <path d="M0.110413 10.752C0.110413 10.752 4.75201 2.3856 12.5616 0C12.5616 0 4.11841 2.3376 0 9.06721C0 9.06721 0.110413 10.752 0.110413 10.752Z" fill="#828282" fill-rule="evenodd" transform="translate(187.242 93.056)" />
      <path d="M11.7216 10.1952C11.7216 10.1952 7.536 2.3856 0 0C0 0 7.9536 1.95361 11.9328 8.67841C11.9328 8.67841 11.7216 10.1952 11.7216 10.1952Z" fill="#828282" fill-rule="evenodd" transform="translate(175.29 87.632)" />
      <path d="M11.7216 10.1952C11.7216 10.1952 7.536 2.3856 0 0C0 0 7.9536 1.94881 11.9328 8.67841C11.9328 8.67841 11.7216 10.1952 11.7216 10.1952Z" fill="#828282" fill-rule="evenodd" transform="translate(175.29 98.48)" />
    </g>
    <g transform="translate(67.21 149.534)">
      <path d="M6.86377 24.1104C9.92171 31.6546 9.80053 40.1145 6.52778 47.568C6.52778 47.568 3.09097 55.3488 3.09097 55.3488C3.02245 55.5027 2.97094 55.6637 2.93737 55.8288C2.93737 55.8288 6.13417 55.8288 6.13417 55.8288C6.13417 55.8288 8.93257 49.488 8.93257 49.488C12.7306 40.8491 12.8726 31.0412 9.32617 22.296C9.32617 22.296 3.05257 6.93599 3.05257 6.93599C2.63321 5.90909 2.75331 4.7407 3.37282 3.82059C3.99234 2.90048 5.02974 2.3497 6.13897 2.352C6.13897 2.352 20.4286 2.352 20.4286 2.352C21.7486 2.352 22.8286 3.72 22.8286 2.4C22.8286 1.07452 21.7541 0 20.4286 0C20.4286 0 8.10217 0 8.10217 0C5.40435 -0.000366211 2.88398 1.34443 1.38217 3.58559C-0.129829 5.82719 -0.417832 6.22559 0.599766 8.72638C0.599766 8.72638 6.86377 24.1104 6.86377 24.1104Z" fill="#A3A3A3" fill-rule="evenodd" transform="translate(0 17.573)" />
      <rect width="1.896" height="68.501" fill="#A3A3A3" fill-rule="evenodd" transform="translate(18.537 4.738)" />
      <rect width="1.896" height="68.501" fill="#A3A3A3" fill-rule="evenodd" transform="translate(155.054 4.738)" />
      <rect width="138.302" height="9.946" fill="#BDBDBD" fill-rule="evenodd" transform="translate(17.587 0)" />
      <rect width="138.302" height="9.946" fill="#BDBDBD" fill-rule="evenodd" transform="translate(17.587 11.842)" />
      <rect width="148.541" height="3.317" fill="#BDBDBD" fill-rule="evenodd" transform="translate(7.349 35.05)" />
      <rect width="23.626" height="3.317" fill="#878787" fill-rule="evenodd" transform="translate(132.264 35.05)" />
      <path d="M3.05495 6.92159C2.63333 5.89551 2.75179 4.72668 3.37068 3.80605C3.98959 2.88542 5.02722 2.33451 6.13655 2.3376C6.13655 2.3376 23.4597 2.3376 23.4597 2.3376L23.4597 0C23.4597 0 8.09975 0 8.09975 0C5.40195 -0.000366211 2.88156 1.34443 1.37975 3.58558C-0.127457 5.82719 -0.420242 6.22559 0.602158 8.72638C0.602158 8.72638 6.87096 24.0864 6.87096 24.0864C9.93163 31.6301 9.81042 40.0911 6.53494 47.544C6.53494 47.544 3.09814 55.3248 3.09814 55.3248C3.02962 55.4787 2.9781 55.6396 2.94453 55.8048C2.94453 55.8048 6.14134 55.8048 6.14134 55.8048C6.14134 55.8048 8.94453 49.464 8.94453 49.464C12.7383 40.8238 12.8785 31.0171 9.33334 22.272C9.33334 22.272 3.05495 6.92159 3.05495 6.92159Z" fill="#A3A3A3" fill-rule="evenodd" transform="translate(132.425 17.578)" />
    </g>
    <g transform="translate(82.587 56.572)">
      <path d="M3.93013 0.484409C5.02453 0.753208 8.07734 1.70361 8.73013 4.01721C9.51254 6.85401 6.09013 9.19641 5.70133 9.68601C5.31253 10.1756 0.603737 2.55321 0.11414 2.25561C-0.375454 1.95801 0.699741 -1.06599 3.53653 0.398009C3.53653 0.398009 3.93013 0.484409 3.93013 0.484409Z" fill="#C7C7C7" fill-rule="evenodd" stroke-width="1" stroke="#8A8A8A" stroke-linecap="round" stroke-linejoin="round" transform="translate(50.475 1.355)" />
      <path d="M0.579391 2.9568C0.579391 2.9568 1.53939 5.43842 1.53939 5.43842C1.53939 5.43842 -0.462215 6.24002 0.0993881 6.72002C0.559132 7.09291 1.03991 7.43907 1.53936 7.75681C1.53936 7.75681 2.25936 13.3584 2.25936 13.68C2.2775 14.1161 2.48203 14.5234 2.82097 14.7984C3.13777 14.9568 6.97777 14.64 9.21936 13.9968C11.461 13.3536 19.381 9.84001 20.4994 9.03841C21.6178 8.23682 24.3394 5.83681 24.421 5.11681C24.5026 4.3968 24.661 3.6768 23.941 3.60001C23.221 3.52319 17.2978 4.56 14.8978 4.56C13.3402 4.59012 11.7917 4.31789 10.3378 3.75839C10.0978 3.60001 9.61777 1.3584 9.13777 1.2C8.65777 1.04161 7.29938 1.44 7.29938 1.44C7.29938 1.44 6.90099 0 6.90099 0L0.0177841 1.83839L0.579391 2.9568Z" fill="#FFFFFF" fill-rule="evenodd" stroke-width="1" stroke="#1F42A5" stroke-linecap="round" stroke-linejoin="round" transform="translate(57.143 151.671)" />
      <path d="M7.53939 3.71402C7.05939 4.43402 3.85778 5.23563 3.061 4.75563C2.6014 4.47203 2.07853 4.3071 1.53939 4.27563C1.53939 4.27563 -0.462215 5.07724 0.0993881 5.55724C0.559132 5.93013 1.03991 6.27628 1.53936 6.59402C1.53936 6.59402 2.25936 12.1956 2.25936 12.5172C2.2775 12.9533 2.48203 13.3606 2.82097 13.6356C3.13777 13.794 6.97777 13.4772 9.21936 12.834C11.461 12.1908 19.381 8.67722 20.4994 7.87563C21.6178 7.07404 24.3394 4.67403 24.421 3.95403C24.5026 3.23402 24.661 2.51402 23.941 2.43723C23.221 2.36041 17.2978 3.39722 14.8978 3.39722C13.3402 3.42734 11.7917 3.15511 10.3378 2.59561C10.0978 2.43723 9.61777 0.195618 9.13777 0.0372162C8.65777 -0.12117 7.29938 0.277222 7.29938 0.277222C6.9778 0.57962 8.01939 2.97961 7.53939 3.71402Z" fill="#FFFFFF" fill-rule="evenodd" stroke-width="1" stroke="#1F42A5" stroke-linecap="round" stroke-linejoin="round" transform="translate(57.143 152.834)" />
      <path d="M17.1504 4.08002C14.832 5.67841 11.712 6.48001 7.0704 7.51682C3.4944 8.31842 0.9744 8.83682 0 9.02881C0.0672073 9.59521 0.110405 9.98882 0.110405 10.08C0.12854 10.5161 0.333076 10.9234 0.672012 11.1984C0.988815 11.3568 4.82881 11.04 7.0704 10.3968C9.312 9.75359 17.232 6.24001 18.3504 5.43842C19.4688 4.63681 22.1904 2.2368 22.272 1.5168C22.3536 0.796799 22.512 0.0767975 21.792 0C20.4466 1.57376 18.8837 2.94759 17.1504 4.08005C17.1504 4.08005 17.1504 4.08002 17.1504 4.08002Z" fill="#FFFFFF" fill-rule="evenodd" stroke-width="1" stroke="#1F42A5" stroke-linecap="round" stroke-linejoin="round" transform="translate(59.292 155.257)" />
      <path d="M0.158409 2.39999C0.158409 2.39999 0.158409 4.56 1.35841 4.79999C2.55841 5.03999 7.20001 3.75839 8.07841 2.96161C8.95679 2.16481 7.5168 0 7.5168 0C7.5168 0 0 1.83839 0 1.83839C0 1.83839 0.158409 2.39999 0.158409 2.39999Z" fill="#1F42A5" fill-rule="evenodd" stroke-width="1" stroke="#1F42A5" stroke-linecap="round" stroke-linejoin="round" transform="translate(56.364 150.135)" />
      <path d="M7.11455 0C7.11455 0 5.42975 2.2896 5.42975 2.2896C5.42975 2.2896 5.42975 1.32959 4.70975 1.68478C3.98975 2.03999 3.50495 2.64479 2.96255 3.85439C2.42015 5.06398 -0.224648 8.54399 0.0153516 9.44638C0.255352 10.3488 5.66975 13.1184 7.17695 14.6832C8.68415 16.248 10.6042 17.5104 12.2889 17.6304C13.9737 17.7504 19.8681 17.808 20.6506 17.448C21.433 17.088 21.2553 16.0656 20.8906 15.2832C20.5258 14.5008 16.6809 12.816 16.2586 12.456C15.8362 12.096 13.2538 7.65598 13.129 7.04158C13.0041 6.42719 14.089 4.39198 13.4937 3.85437C13.222 3.53261 12.7467 3.47792 12.409 3.72957C12.409 3.72957 13.369 2.10716 13.369 2.10716L7.11455 0Z" fill="#FFFFFF" fill-rule="evenodd" stroke-width="1" stroke="#1F42A5" stroke-linecap="round" stroke-linejoin="round" transform="translate(0.011 146.948)" />
      <path d="M4.70975 0.0792236C3.98495 0.444031 3.50495 1.03922 2.96255 2.24881C2.42015 3.4584 -0.224648 6.9384 0.0153516 7.84081C0.255352 8.74321 5.66975 11.5128 7.17695 13.0776C8.68415 14.6424 10.6042 15.9048 12.2889 16.0248C13.9737 16.1448 19.8681 16.2024 20.6506 15.8424C21.433 15.4824 21.2553 14.46 20.8906 13.6776C20.5258 12.8952 16.6809 11.2104 16.2586 10.8504C15.8362 10.4904 13.2538 6.0504 13.129 5.436C13.0041 4.82161 14.089 2.78641 13.4937 2.24879C13.222 1.92703 12.7467 1.87234 12.409 2.12399C12.409 2.12399 12.409 3.44879 11.929 3.5112C11.449 3.57361 9.39935 4.0536 7.77696 3.5688C6.15456 3.084 5.42976 0.688797 5.42976 0.688797C5.42976 0.688797 5.39616 0.4104 5.39616 0.4104C5.33375 0.156021 5.16575 -0.146378 4.70975 0.0792236Z" fill="#FFFFFF" fill-rule="evenodd" stroke-width="1" stroke="#1F42A5" stroke-linecap="round" stroke-linejoin="round" transform="translate(0.011 148.573)" />
      <path d="M12.9619 8.96159C10.9747 8.3616 7.30754 5.35201 5.86274 3.60959C4.41795 1.86719 1.23075 0 1.23075 0C1.23075 0 0.97155 0 0.97155 0C0.381152 0.993607 -0.0796509 1.92 0.0115503 2.29921C0.25155 3.20161 5.66595 5.97121 7.17315 7.53601C8.68035 9.10081 10.6004 10.3632 12.2851 10.4832C13.9699 10.6032 19.8643 10.6608 20.6467 10.3008C21.0882 10.0671 21.3093 9.55916 21.1795 9.07681C21.1795 9.07681 21.0692 9.10081 21.0692 9.10081C20.0611 9.26399 14.9443 9.56641 12.9619 8.96159Z" fill="#FFFFFF" fill-rule="evenodd" stroke-width="1" stroke="#1F42A5" stroke-linecap="round" stroke-linejoin="round" transform="translate(0 154.129)" />
      <path d="M1.50631 0C1.50631 0 0.133506 2.496 0.133506 2.496C-0.1526 3.01707 0.0361962 3.67142 0.555908 3.95999C0.555908 3.95999 5.14951 6.48959 5.14951 6.48959C5.40957 6.63213 5.71681 6.66144 5.99914 6.57066C6.28147 6.47987 6.51404 6.27698 6.64231 6.0096C6.64231 6.0096 7.90951 3.36 7.90951 3.36L1.50631 0Z" fill="#1F42A5" fill-rule="evenodd" stroke-width="1" stroke="#1F42A5" stroke-linecap="round" stroke-linejoin="round" transform="translate(6.694 143.737)" />
      <path d="M12.6609 0C12.6609 0 10.1025 8.96161 10.7409 13.1184C11.3793 17.2752 12.0225 21.12 12.0225 22.7184C12.0225 24.3168 9.78086 40.9584 8.34086 43.8384C6.90086 46.7184 -0.457544 58.2384 0.0224562 60C0.502456 61.7616 8.01926 64.32 9.45926 64.6416C10.8993 64.9632 12.6609 63.84 13.9425 62.2416C15.2241 60.6432 22.7409 47.6784 25.2993 42.5616C27.8577 37.4448 29.3025 34.08 29.7825 32.9616C30.1545 32.0197 30.4749 31.0583 30.7424 30.0817C30.7424 30.0817 38.5808 41.2801 40.3424 46.7185C42.104 52.1569 45.3008 63.2017 45.6224 65.2801C45.944 67.3585 47.2208 68.6401 49.6208 68.6401C52.0208 68.6401 57.6224 67.6801 57.9392 65.6017C58.256 63.5233 56.0192 44.6401 55.7024 40.3201C55.3856 36.0001 52.6592 27.8401 50.2592 21.6001C47.8592 15.3601 45.3008 9.92166 45.3008 9.92166C45.3008 9.92166 44.6624 2.88006 44.6624 2.88006L15.2192 6.10352e-05C15.2192 6.10352e-05 12.6609 0 12.6609 0Z" fill="#92E3A9" fill-rule="evenodd" stroke-width="1" stroke="#1F42A5" stroke-linecap="round" stroke-linejoin="round" transform="translate(6.901 83.895)" />
      <path d="M0 14.2416L1.92 6.08159L8.95681 0" fill="none" stroke-width="1" stroke="#1F42A5" stroke-linecap="round" stroke-linejoin="round" transform="translate(37.644 99.735)" />
      <path d="M0 0.518387C0.364803 0.30719 0.657597 0.129593 0.849594 0" fill="none" stroke-width="1" stroke="#1F42A5" stroke-linecap="round" stroke-linejoin="round" transform="translate(48.631 101.655)" />
      <path d="M0 3.19199C0 3.19199 3.408 1.40639 5.9664 0" fill="none" stroke-width="1" stroke="#1F42A5" stroke-linecap="round" stroke-linejoin="round" transform="translate(41.004 103.105)" />
      <path d="M2.5584 0C2.5584 0 3.84 5.28001 0 8.48161" fill="none" stroke-width="1" stroke="#1F42A5" stroke-linecap="round" stroke-linejoin="round" transform="translate(24.203 87.735)" />
      <path d="M0.180593 4.4544C0.823792 5.256 12.9774 7.8144 21.1374 7.6512C29.2974 7.488 32.019 7.1712 32.3406 6.53281C32.6622 5.89441 32.8206 2.69281 32.8206 2.69281C32.8206 2.69281 26.739 4.1328 17.9406 3.01441C9.14219 1.89602 3.85739 0.61441 3.85739 0.61441C3.85739 0.61441 1.14059 -0.345604 0.818995 0.134399C0.818995 0.134399 -0.462605 3.65279 0.180593 4.4544Z" fill="#1F42A5" fill-rule="evenodd" stroke-width="1" stroke="#1F42A5" stroke-linecap="round" stroke-linejoin="round" transform="translate(19.223 80.242)" />
      <path d="M7.584 1.39198C7.584 1.39198 0 13.1568 0 15.168C0 17.1792 7.584 24.456 8.0496 24.9216C8.51521 25.3872 10.992 17.8032 10.992 11.7648C10.9079 7.76525 10.2301 3.80037 8.9808 0C8.9808 0 7.584 1.39198 7.584 1.39198Z" fill="#92E3A9" fill-rule="evenodd" stroke-width="1" stroke="#1F42A5" stroke-linecap="round" stroke-linejoin="round" transform="translate(16.48 48.154)" />
      <path d="M4.32 11.602C4.08 14.242 4.32 25.5219 4.2 28.882C4.08 32.242 0 43.282 0 44.962C0 46.642 8.88 49.1619 19.56 49.4019C30.24 49.642 34.2 47.8419 35.04 46.282C35.88 44.722 34.92 38.1219 34.8 34.7619C34.68 31.4019 35.04 23.4819 35.16 20.122C35.28 16.7619 33.84 11.722 31.8 8.84195C30.3838 6.72468 29.178 4.47395 28.2 2.12192C24.2777 1.23809 20.3124 0.557175 16.32 0.0819206C10.68 -0.503651 8.88 2.24195 8.88 2.24195C8.88 2.24195 4.56 8.96195 4.32 11.602Z" fill="#92E3A9" fill-rule="evenodd" stroke-width="1" stroke="#1F42A5" stroke-linecap="round" stroke-linejoin="round" transform="translate(19.082 36.092)" />
      <path d="M7.2288 4.57764e-05C6.28518 1.94039 5.14994 3.78154 3.84 5.49602C2.76757 6.77846 1.46529 7.84958 0 8.6544C0 8.6544 1.4016 9.7056 1.4016 9.7056C1.4016 9.7056 5.6112 7.1328 8.88481 0C8.88481 0 7.2288 4.57764e-05 7.2288 4.57764e-05Z" fill="#1F42A5" fill-rule="evenodd" stroke-width="1" stroke="#1F42A5" stroke-linecap="round" stroke-linejoin="round" transform="translate(37.413 72.644)" />
      <path d="M22.224 5.98047C22.7136 8.03487 22.1232 10.1805 22.416 11.0637C22.7088 11.9469 24.7632 13.8957 24.4704 14.8749C24.1776 15.8541 22.9056 16.4397 22.9056 16.4397C22.9056 16.4397 22.8096 21.8157 22.0272 23.4765C21.2448 25.1373 18.8976 25.8237 17.7072 25.8237C16.5168 25.8237 15.264 25.7277 15.264 25.7277C15.264 25.7277 13.7952 28.4637 13.0128 30.4173C12.2304 32.3709 13.3056 35.5053 13.5984 36.2829C13.8912 37.0605 14.4816 37.7517 13.7952 37.9485C13.1088 38.1453 12.0336 36.9885 8.9952 35.1117C5.95681 33.2349 0 29.2461 0 29.2461C0 29.2461 2.544 26.2173 2.8368 23.5773C3.1296 20.9373 2.2512 15.7533 4.4976 9.49887C6.744 3.24447 11.8608 0.407666 13.7328 0.114866C15.6048 -0.177935 18.5328 0.114866 18.8976 0.700466C18.8976 0.700466 21.7344 3.92607 22.224 5.98047Z" fill="#FFFFFF" fill-rule="evenodd" stroke-width="1" stroke="#1F42A5" stroke-linecap="round" stroke-linejoin="round" transform="translate(34.72 3.793)" />
      <path d="M5.08799 1.5648C5.08799 1.5648 1.95839 0 1.95839 0C1.95839 0 0.100796 4.4976 0 5.1792" fill="none" stroke-width="1" stroke="#1F42A5" stroke-linecap="round" stroke-linejoin="round" transform="translate(44.916 27.956)" />
      <path d="M0 1.9536L1.27201 0" fill="none" stroke-width="1" stroke="#1F42A5" stroke-linecap="round" stroke-linejoin="round" transform="translate(41.008 30.106)" />
      <path d="M2.64 0C2.64 0 2.0544 1.368 0 1.8576" fill="none" stroke-width="1" stroke="#1F42A5" stroke-linecap="round" stroke-linejoin="round" transform="translate(53.325 17.007)" />
      <path d="M0 0.994805C0 0.994805 1.17601 -0.670796 2.64 0.308409" fill="none" stroke-width="1" stroke="#1F42A5" stroke-linecap="round" stroke-linejoin="round" transform="translate(53.128 11.222)" />
      <path d="M4.79041 1.8576C3.9653 1.89913 3.13914 1.80012 2.34721 1.56481C1.45654 1.2274 0.654007 0.692381 0 0C0 0 0.48 2.9328 1.44 3.2256C2.4 3.5184 4.79041 1.8576 4.79041 1.8576Z" fill="#1F42A5" fill-rule="evenodd" stroke-width="1" stroke="#1F42A5" stroke-linecap="round" stroke-linejoin="round" transform="translate(52.25 21.505)" />
      <path d="M1.85761 0C1.09547 0.371498 0.452126 0.948339 0 1.6656" fill="none" stroke-width="1" stroke="#1F42A5" stroke-linecap="round" stroke-linejoin="round" transform="translate(51.079 20.914)" />
      <path d="M0.959999 1.0272C0.959999 1.5936 0.743992 2.0544 0.48 2.0544C0.216007 2.0544 0 1.5744 0 1.0272C0 0.48 0.216007 0 0.48 0C0.743992 0 0.959999 0.460796 0.959999 1.0272Z" fill="#1F42A5" fill-rule="evenodd" transform="translate(54.612 13.973)" />
      <path d="M24.1263 10.2583C22.6575 12.4087 19.6287 14.1703 18.8463 19.1575C18.371 22.7204 18.2104 26.3183 18.3663 29.9095C18.3663 29.9095 15.8271 30.6919 10.2543 29.6167C4.6815 28.5415 0.870293 27.5623 0.174294 24.3367C-0.521704 21.1111 0.956697 16.7143 3.0111 12.9991C5.06549 9.28387 5.55029 4.39266 8.48309 1.85346C11.4159 -0.685737 20.4111 -0.00413818 22.8543 0.384664C25.2975 0.773467 27.3519 1.56066 27.4527 2.63587C27.5535 3.71107 25.8879 4.58948 25.8879 4.58948C25.8879 4.58948 25.5951 8.10788 24.1263 10.2583Z" fill="#C7C7C7" fill-rule="evenodd" stroke-width="1" stroke="#8A8A8A" stroke-linecap="round" stroke-linejoin="round" transform="translate(27.365 0)" />
      <path d="M0 0C0.105602 0.844797 0.211205 1.3776 0.211205 1.3776" fill="none" stroke-width="1" stroke="#8A8A8A" stroke-linecap="round" stroke-linejoin="round" transform="translate(39.52 27.509)" />
      <path d="M9.1536 0C9.1536 0 7.3248 2.352 7.58401 4.9632C7.84321 7.5744 5.62561 11.8944 3.53281 14.112C1.44 16.3296 0 19.9968 0 22.3488C0 22.5264 0 22.6992 0 22.872" fill="none" stroke-width="1" stroke="#8A8A8A" stroke-linecap="round" stroke-linejoin="round" transform="translate(39.333 2.228)" />
      <path d="M0 1.176C0.109863 0.735271 0.331379 0.330267 0.6432 0" fill="none" stroke-width="1" stroke="#8A8A8A" stroke-linecap="round" stroke-linejoin="round" transform="translate(42.616 2.098)" />
      <path d="M1.24244 22.632C1.24244 22.632 -1.63756 19.8864 1.37205 15.312C4.38165 10.7376 7.25205 9.03841 8.29845 5.23201C8.70733 3.51757 8.92149 1.76246 8.93684 0" fill="none" stroke-width="1" stroke="#8A8A8A" stroke-linecap="round" stroke-linejoin="round" transform="translate(33.391 5.473)" />
      <path d="M7.50014 0C7.00778 0.709438 6.71592 1.53857 6.65534 2.4C6.65534 4.8864 4.69215 9.4608 3.90974 10.3728C3.12734 11.2848 -1.05826 15.4704 0.252144 19.656" fill="none" stroke-width="1" stroke="#8A8A8A" stroke-linecap="round" stroke-linejoin="round" transform="translate(28.502 5.972)" />
      <path d="M1.25762 0C0.817589 0.387737 0.397823 0.797886 0 1.22881" fill="none" stroke-width="1" stroke="#8A8A8A" stroke-linecap="round" stroke-linejoin="round" transform="translate(37.557 2.751)" />
      <path d="M22.4006 12.2064C22.4006 12.2064 19.2758 10.3488 15.5606 6.14399C11.8454 1.93919 6.94457 0 5.38457 0C3.82457 0 3.22937 0.3888 2.45177 2.1504C1.67417 3.912 -0.0922337 7.0368 0.00376511 8.3088C0.0997639 9.5808 1.27576 9.9696 2.45177 9.7776C3.62777 9.58559 5.28377 8.8176 8.61017 9.0912C11.9366 9.36481 17.2118 11.928 18.8726 12.5136C20.5334 13.0992 22.199 13.7856 22.7846 12.5136C22.7846 12.5136 22.4006 12.2064 22.4006 12.2064Z" fill="#1F42A5" fill-rule="evenodd" stroke-width="1" stroke="#1F42A5" stroke-linecap="round" stroke-linejoin="round" transform="translate(26.533 29.828)" />
      <path d="M2.0208 2.2992C2.2896 1.0368 3.8112 0.0431976 4.488 0C5.0215 0.0295296 5.53862 0.194752 5.9904 0.48C6.7905 0.112133 7.73828 0.335728 8.2896 1.0224C9.3792 2.208 8.5296 3.16321 8.5296 3.16321C8.5296 3.16321 9.936 3.98881 8.40961 6.91201C6.88321 9.83521 1.728 10.8192 1.15681 10.752C0.585632 10.6848 0 6.4992 0 6.4992C0 6.4992 1.752 3.5616 2.0208 2.2992Z" fill="#FFFFFF" fill-rule="evenodd" stroke-width="1" stroke="#1F42A5" stroke-linecap="round" stroke-linejoin="round" transform="translate(67.596 49.412)" />
      <path d="M0 1.65356C0 1.65356 4.0176 0.0455627 4.0176 0.0455627C4.1788 -0.0199509 4.36014 -0.0146179 4.51721 0.0602646C4.67429 0.135155 4.7926 0.272675 4.8432 0.439167C4.8432 0.439167 6.32159 5.37356 6.32159 5.37356C6.41158 5.68117 6.25389 6.00692 5.95679 6.12717C5.95679 6.12717 2.49599 7.50957 2.49599 7.50957L0 1.65356Z" fill="#1F42A5" fill-rule="evenodd" stroke-width="1" stroke="#1F42A5" stroke-linecap="round" stroke-linejoin="round" transform="translate(63.424 54.618)" />
      <path d="M1.23403 1.99199C1.23403 1.99199 -0.397968 6.96479 0.0916252 9.54239C0.581221 12.12 5.34283 31.3344 6.57642 33.0624C7.81002 34.7904 9.23562 33.9264 10.8292 34.0608C12.4228 34.1952 31.8772 27.72 34.3876 26.0976C36.898 24.4752 38.4916 24.6096 38.3572 22.3536C38.2228 20.0976 37.7476 15.816 34.8532 14.7408C31.9588 13.6656 28.4452 15.7008 25.5508 16.5312C22.6564 17.3616 17.962 18.576 17.962 18.576C17.962 18.576 17.4052 7.16159 16.4596 4.61279C15.7164 2.49726 14.0857 0.812199 11.9956 0C11.9956 0 1.23403 1.99199 1.23403 1.99199Z" fill="#92E3A9" fill-rule="evenodd" stroke-width="1" stroke="#1F42A5" stroke-linecap="round" stroke-linejoin="round" transform="translate(28.571 41.521)" />
      <path d="M0 4.32C0.638393 2.88 1.6176 1.0944 2.9184 0" fill="none" stroke-width="1" stroke="#1F42A5" stroke-linecap="round" stroke-linejoin="round" transform="translate(41.877 61.321)" />
      <path d="M0 1.34399C0 1.34399 0.153606 0.796783 0.480003 0" fill="none" stroke-width="1" stroke="#1F42A5" stroke-linecap="round" stroke-linejoin="round" transform="translate(40.994 66.673)" />
      <path d="M0 3.4032C0 3.4032 2.0736 0.105602 3.8784 0" fill="none" stroke-width="1" stroke="#1F42A5" stroke-linecap="round" stroke-linejoin="round" transform="translate(41.733 59.924)" />
    </g>
    <g transform="translate(44.388 47.789)">
      <path d="M0 7.9104C0 7.9104 2.0688 2.4 2.0688 2.4C2.0688 2.4 7.2336 0 7.74719 0C8.26079 0 10.5024 7.4016 10.1472 7.92C9.792 8.4384 6.52799 10.5024 5.3232 11.1888C4.3502 11.6571 3.30206 11.9496 2.2272 12.0528C2.2272 12.0528 0 7.9104 0 7.9104Z" fill="#FFFFFF" fill-rule="evenodd" stroke-width="1" stroke="#1F42A5" stroke-linecap="round" stroke-linejoin="round" transform="translate(76.212 43.353)" />
      <path d="M3.03973 7.89809C3.54372 7.89809 6.14053 6.86129 6.14053 6.1749C6.14053 5.4885 4.76292 1.52369 4.41733 0.491695C4.07172 -0.540298 1.66213 0.318897 0.802925 0.664497C-0.056282 1.0101 -0.392288 2.0421 0.639725 4.10609C0.639725 4.10609 2.53574 7.89809 3.03973 7.89809Z" fill="#FFFFFF" fill-rule="evenodd" stroke-width="1" stroke="#1F42A5" stroke-linecap="round" stroke-linejoin="round" transform="translate(81.083 43.711)" />
      <path d="M0 7.92C0 7.92 0.6912 2.7552 1.37759 2.5824C2.064 2.4096 4.3056 0 4.824 0C5.34238 0 7.40639 1.032 7.40639 1.032C7.40639 1.032 9.12479 4.992 8.43839 5.5104C7.752 6.0288 6.3696 3.4416 6.3696 3.4416C6.3696 3.4416 5.3376 6.024 4.13279 6.7152C4.13279 6.7152 2.92799 7.4016 2.92799 7.4016C2.92799 7.4016 0 7.92 0 7.92Z" fill="#FFFFFF" fill-rule="evenodd" stroke-width="1" stroke="#1F42A5" stroke-linecap="round" stroke-linejoin="round" transform="translate(76.212 43.344)" />
      <path d="M0 1.7524C0 1.7524 2.76 0.192398 2.76 0.192398C3.08131 0.0040741 3.46437 -0.0486259 3.8246 0.0459366C4.18483 0.140491 4.49262 0.374538 4.68 0.6964C4.68 0.6964 6.6 3.9364 6.6 3.9364C6.96918 4.55342 6.81158 5.34974 6.23519 5.7796C6.23519 5.7796 2.42399 8.6596 2.42399 8.6596L0 1.7524Z" fill="#FFFFFF" fill-rule="evenodd" stroke-width="1" stroke="#1F42A5" stroke-linecap="round" stroke-linejoin="round" transform="translate(72.425 50.543)" />
      <path d="M3.49216 0.148857C5.55343 2.25592 7.39936 4.56335 9.00256 7.03688C11.2394 10.6513 17.0954 18.7441 17.0954 18.7441C17.0954 18.7441 26.2154 13.2337 27.9434 12.2017C29.6714 11.1697 30.1802 10.9969 31.385 12.2017C32.5898 13.4065 35.3642 18.2257 34.6922 19.9441C34.0202 21.6625 25.3946 28.7281 21.9482 30.9841C18.5018 33.2401 16.097 35.3041 12.4826 32.5345C8.86816 29.7649 1.44255 6.70566 0.256954 4.46886C-0.928646 2.23206 2.30656 -0.695942 3.49216 0.148857Z" fill="#1F42A5" fill-rule="evenodd" stroke-width="1" stroke="#1F42A5" stroke-linecap="round" stroke-linejoin="round" transform="translate(41.88 40.267)" />
      <path d="M0.868988 1.59842C0.868988 1.59842 1.82899 5.11682 1.82899 5.11682C1.82899 5.11682 -0.412609 6.39842 0.0673904 7.51682C0.54739 8.63521 2.15059 8.79842 2.15059 8.79842C2.15059 8.79842 3.74899 18.5568 5.03059 19.0368C6.31219 19.5168 15.9074 18.0768 17.9906 17.1168C20.0738 16.1568 25.0274 14.2368 25.349 11.52C25.6706 8.80321 24.5474 8.95682 23.5874 9.12001C22.6274 9.2832 18.629 9.60001 16.709 9.60001C14.789 9.60001 12.7106 8.31841 12.7106 8.31841C12.7106 8.31841 12.5474 4.32001 11.7506 3.6768C10.9538 3.03358 8.54899 3.84 8.54899 3.84C8.54899 3.84 7.74739 0 7.74739 0L0.868988 1.59842Z" fill="#FFFFFF" fill-rule="evenodd" stroke-width="1" stroke="#1F42A5" stroke-linecap="round" stroke-linejoin="round" transform="translate(51.703 155.606)" />
      <path d="M4.97787 1.82335C4.32507 1.72734 2.38587 1.87614 1.77627 1.72255C1.44507 1.91936 -0.369331 3.07135 0.0674706 4.08896C0.54747 5.21214 2.15067 5.37056 2.15067 5.37056C2.15067 5.37056 3.74907 15.129 5.03067 15.6089C6.31227 16.089 15.9075 14.649 17.9907 13.6889C20.0739 12.729 25.0275 10.809 25.3491 8.09215C25.6707 5.37535 24.5475 5.52895 23.5875 5.69215C22.6275 5.85535 18.6291 6.17215 16.7091 6.17215C14.7891 6.17215 12.7107 4.89055 12.7107 4.89055C12.7107 4.89055 12.5475 0.892151 11.7507 0.248932C10.9539 -0.394272 8.54907 0.41214 8.54907 0.41214C8.54907 0.41214 9.18747 2.16893 9.18747 2.16893C9.18747 2.16893 6.10107 1.97696 4.97787 1.82335Z" fill="#1F42A5" fill-rule="evenodd" stroke-width="1" stroke="#1F42A5" stroke-linecap="round" stroke-linejoin="round" transform="translate(51.703 159.034)" />
      <path d="M21.312 0C20.7744 0.868805 19.3248 2.28481 16.512 3.84C13.3152 5.60161 8.19362 5.28 4.67522 6.0816C3.13154 6.42976 1.5711 6.69891 0 6.88802C0.422401 8.40482 0.888004 9.60001 1.3152 9.76801C2.592 10.248 12.192 8.80801 14.2752 7.84801C16.3584 6.88802 21.312 4.96802 21.6336 2.25122C21.7968 0.945602 21.648 0.307205 21.312 0Z" fill="#FFFFFF" fill-rule="evenodd" stroke-width="1" stroke="#1F42A5" stroke-linecap="round" stroke-linejoin="round" transform="translate(55.404 164.904)" />
      <path d="M10.5337 0C10.5337 0 9.25688 3.84 9.25688 3.84C9.25688 3.84 5.57528 2.39999 5.41688 4.16161C5.41688 4.16161 5.25368 5.91841 5.25368 5.91841C5.25368 5.91841 0.77528 11.3616 0.29528 12.48C-0.184721 13.5984 -0.184721 14.7216 1.09688 15.84C2.37848 16.9584 4.61528 17.76 6.21368 19.3584C7.81208 20.9568 10.5337 23.04 12.4537 23.8416C14.3737 24.6432 20.1337 24.3216 21.0937 23.6784C22.0537 23.0352 21.5737 21.6 20.9353 21.2784C20.2969 20.9568 16.4569 17.9184 15.9769 16.4784C15.4969 15.0384 15.0169 10.7184 15.0169 10.7184C15.0169 10.7184 17.2537 8.7984 17.2537 8.00159C17.2537 7.20479 15.8137 6.71999 15.8137 6.71999C15.8137 6.71999 17.5321 3.35999 17.5321 3.35999L10.5337 0Z" fill="#FFFFFF" fill-rule="evenodd" stroke-width="1" stroke="#1F42A5" stroke-linecap="round" stroke-linejoin="round" transform="translate(5.237 150.965)" />
      <path d="M5.25368 2.6328C5.25368 2.6328 0.77528 8.07599 0.29528 9.1944C-0.184721 10.3128 -0.184721 11.436 1.09688 12.5544C2.37848 13.6728 4.61528 14.4744 6.21368 16.0728C7.81208 17.6712 10.5337 19.7544 12.4537 20.556C14.3737 21.3576 20.1337 21.036 21.0937 20.3928C22.0537 19.7496 21.5737 18.3144 20.9353 17.9928C20.2969 17.6712 16.4569 14.6328 15.9769 13.1928C15.4969 11.7528 15.0169 7.4328 15.0169 7.4328C15.0169 7.4328 17.2537 5.5128 17.2537 4.71599C17.2537 3.91919 15.8137 3.43439 15.8137 3.43439C15.4249 3.51599 12.4537 5.53679 10.4521 4.04398C9.29974 3.29315 8.80684 1.85402 9.25688 0.554382C9.25688 0.554382 5.57528 -0.885605 5.41688 0.875992C5.41688 0.875992 5.25368 2.6328 5.25368 2.6328Z" fill="#1F42A5" fill-rule="evenodd" stroke-width="1" stroke="#1F42A5" stroke-linecap="round" stroke-linejoin="round" transform="translate(5.237 154.25)" />
      <path d="M21.3289 11.2848C19.8361 11.976 15.8617 12.3216 13.7881 11.8608C11.7145 11.4 6.24728 6.9072 4.86489 3.45601C3.90489 1.0224 2.15769 0.249603 1.20728 0C0.865551 0.444916 0.560544 0.91687 0.29528 1.41119C-0.184721 2.52959 -0.184721 3.6528 1.09688 4.77119C2.37848 5.88959 4.61528 6.69119 6.21368 8.28958C7.81207 9.88799 10.5337 11.9712 12.4537 12.7728C14.3737 13.5744 20.1337 13.2528 21.0937 12.6096C21.5561 12.2875 21.7562 11.7027 21.5881 11.1648C21.5881 11.1648 21.3289 11.2848 21.3289 11.2848Z" fill="#FFFFFF" fill-rule="evenodd" stroke-width="1" stroke="#1F42A5" stroke-linecap="round" stroke-linejoin="round" transform="translate(5.237 162.034)" />
      <path d="M12.3216 0C12.3216 0 13.2816 11.3616 13.2816 11.3616C13.2816 11.3616 7.68 18.0816 6.0816 21.9216C4.4832 25.7616 0.638401 40.4784 0 41.4384C0 41.4384 4.1616 45.2784 6.0816 45.9216C8.0016 46.5648 13.2816 47.52 13.2816 47.52C13.2816 47.52 16.1616 39.0384 18.5616 33.9216C20.9616 28.8048 25.2816 22.08 26.88 17.76C28.4784 13.44 28.8 9.75839 29.1216 8.64C29.4432 7.52161 30.24 3.51839 30.24 3.51839C30.24 3.51839 12.3216 0 12.3216 0Z" fill="#92E3A9" fill-rule="evenodd" stroke-width="1" stroke="#1F42A5" stroke-linecap="round" stroke-linejoin="round" transform="translate(13.692 108.245)" />
      <path d="M2.2809 16.1616C3.2409 20.16 7.7241 28.0032 11.0841 32.0016C14.4441 36 22.6041 43.8432 22.6041 43.8432C24.7799 46.7591 26.2072 50.1642 26.7609 53.76C27.5625 59.52 29.8041 76.4832 30.4425 77.9232C31.0809 79.3632 34.2825 79.68 37.4841 79.0416C40.6857 78.4032 45.0009 78.4032 45.3225 76.6416C45.6441 74.88 41.1609 51.5232 40.8441 46.7232C40.5273 41.9232 37.1625 34.56 36.3609 32.3232C35.5593 30.0864 33.0009 24.96 33.0009 24.96C33.0009 24.96 34.9209 14.5632 36.0441 12.3216C37.1673 10.08 38.2809 4.96321 38.2809 2.88C38.2809 0.796783 29.9625 3.68161 19.5609 1.92C9.1593 0.158394 1.9641 0 0.8409 0C-0.282297 0 0.0440989 3.5232 0.0440989 3.5232C0.0440989 3.5232 1.3209 12.1632 2.2809 16.1616Z" fill="#92E3A9" fill-rule="evenodd" stroke-width="1" stroke="#1F42A5" stroke-linecap="round" stroke-linejoin="round" transform="translate(15.89 80.083)" />
      <path d="M0 0C0 0 8.8032 0.158394 11.04 3.51839" fill="none" stroke-width="1" stroke="#1F42A5" stroke-linecap="round" stroke-linejoin="round" transform="translate(30.171 93.206)" />
      <path d="M0 0C0 0 3.6816 1.28161 4.4784 3.20161" fill="none" stroke-width="1" stroke="#1F42A5" stroke-linecap="round" stroke-linejoin="round" transform="translate(37.692 92.405)" />
      <path d="M5.28 6.8784L0 0" fill="none" stroke-width="1" stroke="#1F42A5" stroke-linecap="round" stroke-linejoin="round" transform="translate(43.611 98.165)" />
      <path d="M29.7551 73.4141C29.4015 73.4195 29.0964 73.1672 29.0351 72.8189C28.9919 72.5645 24.7871 47.1581 24.1535 42.5789C23.6735 38.9501 22.2671 35.2109 19.9247 31.1645C18.3263 28.4045 7.06553 14.3021 5.45273 12.2909C4.59634 12.2292 3.75205 12.0533 2.94232 11.7677C2.67384 11.6386 2.48054 11.3921 2.41912 11.1005C2.28473 10.4669 2.75993 9.8525 3.33112 9.1469C2.54065 9.1984 1.74699 9.12551 0.979124 8.93089C0.506222 8.84154 0.130131 8.48238 0.019125 8.01408C-0.13448 7.20768 0.662323 6.57408 1.50713 5.89728C1.79282 5.68211 2.06235 5.44627 2.31353 5.19166C2.35193 4.68767 1.62233 2.79166 0.719929 1.05406C0.535709 0.70153 0.672108 0.266403 1.02462 0.0821075C1.37712 -0.102165 1.81227 0.0341644 1.99661 0.386635C3.50381 3.26664 4.03181 5.13384 3.57581 5.89223C3.25094 6.33084 2.85509 6.71208 2.4046 7.02024C2.1982 7.18824 1.9246 7.42344 1.6894 7.62024C2.28273 7.7159 2.88505 7.74327 3.48462 7.70186C4.28621 7.70186 4.86702 7.66347 5.17901 8.14826C5.34783 8.42138 5.35699 8.76411 5.20301 9.04585C5.0094 9.3771 4.78436 9.68893 4.53102 9.97706C4.39662 10.1451 4.18542 10.3995 4.05102 10.6107C4.66531 10.7417 5.28738 10.8331 5.91341 10.8843C6.11178 10.8988 6.29481 10.9964 6.41741 11.1531C6.94541 11.8107 19.4302 27.3867 21.1966 30.4395C23.6398 34.6587 25.0798 38.5611 25.6078 42.3819C26.2366 46.9611 30.4414 72.3483 30.4846 72.6219C30.5166 72.8103 30.4723 73.0037 30.3616 73.1594C30.2508 73.3152 30.0827 73.4206 29.8942 73.4523C29.8942 73.4523 29.7551 73.4141 29.7551 73.4141Z" fill="#1F42A5" fill-rule="evenodd" transform="translate(23.537 85.792)" />
      <path d="M4.42687 11.3258C2.50687 15.6458 2.98687 32.2874 1.86847 35.1674C0.75007 38.0474 -1.01153 54.8474 0.740471 56.9306C2.49247 59.0138 10.0189 62.2106 23.3005 61.7306C36.5821 61.2506 41.2189 59.3306 42.5005 57.2522C43.7821 55.1738 45.5485 44.9258 43.3069 38.369C41.0653 31.8122 38.5069 25.409 38.1853 23.6474C37.8637 21.8858 35.6269 16.4474 34.3453 12.929C33.0637 9.41059 30.8269 7.32738 30.3469 6.36739C29.8669 5.40738 21.8653 -1.47102 17.7085 0.285776C17.7085 0.285776 6.34687 7.00578 4.42687 11.3258Z" fill="#1F42A5" fill-rule="evenodd" stroke-width="1" stroke="#1F42A5" stroke-linecap="round" stroke-linejoin="round" transform="translate(13.105 29.397)" />
      <path d="M0 0C0.0603409 0.622543 0.0603409 1.24946 0 1.87199" fill="none" stroke-width="1" stroke="#FFFFFF" stroke-linecap="round" stroke-linejoin="round" transform="translate(57.483 71.045)" />
      <path d="M0 0C0 0 2.6928 4.32 2.88 5.5632C3.0672 6.8064 3.41759 8.616 3.41759 8.616C4.72985 11.366 5.72969 14.2544 6.39839 17.2272" fill="none" stroke-width="1" stroke="#FFFFFF" stroke-linecap="round" stroke-linejoin="round" transform="translate(50.83 51.921)" />
      <path d="M14.1024 16.5326C16.8048 19.595 18.0624 21.0398 19.1424 17.6174C19.7424 15.7214 19.8432 12.6686 19.8144 10.3166C18.7872 8.81418 17.832 7.78218 17.5248 7.16778C16.9824 6.08778 7.9776 -1.65942 3.2928 0.322983C3.2928 0.322983 1.9152 1.13418 0 2.39659C3.3792 5.69898 11.9472 14.0942 14.1024 16.5326Z" fill="#FFFFFF" fill-rule="evenodd" stroke-width="1" stroke="#1F42A5" stroke-linecap="round" stroke-linejoin="round" transform="translate(26.657 29.979)" />
      <path d="M24.6104 8.35825C24.5288 9.30865 23.3432 10.0238 23.3432 10.5807C23.3432 11.1375 25.4072 13.355 25.484 14.4638C25.5988 15.3216 25.1046 16.1445 24.2936 16.4463C23.8868 16.5939 23.4589 16.6749 23.0264 16.6863C23.0264 16.6863 23.2616 20.4926 23.1848 21.8415C23.108 23.1903 22.868 24.0591 21.7448 24.6159C21.125 24.9388 20.4545 25.1531 19.7624 25.2495C19.7624 25.2495 19.2824 29.0559 18.7304 30.6399C18.1784 32.2239 18.0968 33.3375 16.6664 34.5279C15.236 35.7183 14.8424 35.4879 11.516 32.5455C8.18958 29.6031 5.01198 25.0095 4.13838 24.1407C4.13838 24.1407 2.87597 22.8686 2.87597 22.8686C2.87597 22.8686 1.84397 22.8686 1.43596 20.7278C1.19829 19.4563 1.48385 18.1427 2.22796 17.0846C2.22796 17.0846 0.16396 13.9886 0.00555992 11.4542C-0.152842 8.91985 3.10156 4.31665 6.19276 2.09425C9.28396 -0.128152 13.4888 -0.204953 16.8968 0.174247C18.803 0.362567 20.6624 0.878968 22.3928 1.70065C22.3928 1.70065 24.692 7.40785 24.6104 8.35825Z" fill="#FFFFFF" fill-rule="evenodd" stroke-width="1" stroke="#1F42A5" stroke-linecap="round" stroke-linejoin="round" transform="translate(27.136 8.302)" />
      <path d="M1.77718 0.612787C0.188377 1.48639 -0.522018 3.70399 0.428379 4.02079C1.37878 4.33759 6.37558 3.06079 7.56598 3.38719C8.75637 3.71358 7.95477 0.92959 6.45718 0.0559864C6.45718 0.0559864 3.36597 -0.260815 1.77718 0.612787Z" fill="#C7C7C7" fill-rule="evenodd" stroke-width="1" stroke="#8A8A8A" stroke-linecap="round" stroke-linejoin="round" transform="translate(43.715 24.933)" />
      <path d="M3.74995 0.881962C3.74995 0.881962 2.78995 -0.466839 1.34995 0.171562C-0.0900497 0.809963 0.00114822 1.61156 0.00114822 1.61156" fill="none" stroke-width="2" stroke="#1F42A5" stroke-linecap="round" stroke-linejoin="round" transform="translate(45.145 15.304)" />
      <path d="M0.662621 4.0519C1.53143 4.3687 4.46902 4.4455 5.34262 3.8935C6.21623 3.34149 6.21623 0.480696 5.74102 0.163895C5.26582 -0.152908 0.662621 0.0870914 0.662621 0.0870914C0.662621 0.0870914 0.0290184 -0.152908 0.0290184 0.480696C0.0290184 0.480696 -0.206184 3.7351 0.662621 4.0519Z" fill="none" stroke-width="1" stroke="#1F42A5" stroke-linecap="round" stroke-linejoin="round" transform="translate(43.471 17.529)" />
      <path d="M7.7712 0L0 1.584" fill="none" stroke-width="1" stroke="#1F42A5" stroke-linecap="round" stroke-linejoin="round" transform="translate(35.652 19.041)" />
      <path d="M0 0.48L0.959999 0.48" fill="none" stroke-width="1" stroke="#1F42A5" stroke-linecap="round" stroke-linejoin="round" transform="translate(49.764 18.245)" />
      <path d="M0 0C0 0 2.376 0 2.376 0C2.51862 0.351101 2.57301 0.731808 2.53439 1.1088C2.53439 1.9824 2.77439 3.2496 2.37599 3.5088C1.97759 3.768 0.393589 3.6672 0.393589 3.6672" fill="none" stroke-width="1" stroke="#1F42A5" stroke-linecap="round" stroke-linejoin="round" transform="translate(51.67 17.534)" />
      <path d="M1.44001 0C0.950916 0.00989532 0.465858 0.0907402 0 0.240002" fill="none" stroke-width="1" stroke="#1F42A5" stroke-linecap="round" stroke-linejoin="round" transform="translate(46.332 19.2)" />
      <path d="M1.824 0C1.2523 0.322237 0.638359 0.562969 0 0.715202" fill="none" stroke-width="1" stroke="#1F42A5" stroke-linecap="round" stroke-linejoin="round" transform="translate(46.039 19.675)" />
      <path d="M27.996 4.84786C28.0735 4.04476 27.719 3.26083 27.0648 2.78866C27.0648 2.78866 27.0648 2.74546 27.0648 2.74546C27.07 1.88652 26.5292 1.11906 25.7185 0.835097C24.9078 0.55114 24.0063 0.813373 23.4744 1.48785C23.2324 0.676304 22.5231 0.0920545 21.6803 0.00987305C20.8374 -0.0723047 20.0286 0.363944 19.6344 1.11345C19.0415 0.646447 18.2484 0.521162 17.5404 0.782637C16.8324 1.04411 16.3111 1.65475 16.164 2.39505C15.6234 1.51461 14.5681 1.09465 13.5703 1.36293C12.5726 1.63121 11.8702 2.52381 11.844 3.55664C11.2795 2.84384 10.3654 2.50432 9.47245 2.67584C8.57954 2.84736 7.85622 3.50143 7.59601 4.37264C7.37566 4.321 7.15033 4.29364 6.92402 4.29104C5.30162 4.29104 3.98642 5.60625 3.98642 7.22864C3.98164 7.31497 3.98164 7.4015 3.98642 7.48784C2.99387 7.56087 2.1244 8.1801 1.7309 9.09424C1.3374 10.0084 1.48524 11.0655 2.11442 11.8366C0.864918 12.3354 0.0333767 13.5314 0.000982285 14.8763C-0.031414 16.2213 0.741585 17.4559 1.96562 18.0142C1.67005 18.7303 1.68456 19.5369 2.00567 20.2419C2.32679 20.9469 2.92578 21.4872 3.66002 21.7342C3.1117 22.7685 3.27412 24.0359 4.06551 24.8985C4.8569 25.761 6.10572 26.0317 7.18322 25.5742C7.64667 26.0812 8.34906 26.2962 9.01686 26.1355C9.68468 25.9748 10.2124 25.4637 10.3944 24.8014C10.7604 24.5487 11.0162 24.1659 11.1096 23.731C11.268 22.9342 11.268 21.331 12.0696 21.0334C12.8712 20.7358 14.3064 21.355 14.3064 21.355C14.3064 21.355 17.6664 20.0446 17.4936 18.9166C17.3917 18.2696 17.2011 17.6397 16.9272 17.0446C16.9272 17.0446 19.3656 16.0846 19.74 14.6062C20.1144 13.1278 18.6168 10.8574 18.6168 10.8574C18.6168 10.8574 21.804 9.54704 23.4888 9.54704C25.1736 9.54704 27.0504 9.54704 27.612 9.73424C28.1736 9.92144 29.1144 10.1086 29.676 8.41904C30.2376 6.72945 27.996 4.84786 27.996 4.84786Z" fill="#C7C7C7" fill-rule="evenodd" stroke-width="1" stroke="#8A8A8A" stroke-linecap="round" stroke-linejoin="round" transform="translate(21.034 0)" />
      <path d="M6.30832 3.4992C6.30832 3.4992 4.24912 -0.820803 1.98832 0.139196C-0.272484 1.0992 -0.450081 3.4992 0.677923 6.1392C1.80593 8.7792 5.93392 7.4544 5.93392 7.4544C5.93392 7.4544 6.30832 3.4992 6.30832 3.4992Z" fill="#FFFFFF" fill-rule="evenodd" stroke-width="1" stroke="#1F42A5" stroke-linecap="round" stroke-linejoin="round" transform="translate(30.352 19.157)" />
      <path d="M8.29216 0.370163C9.63616 -0.397835 11.753 0.178169 12.329 0.754158C12.7275 1.25564 12.9918 1.85032 13.097 2.48218C14.0607 2.91145 14.6131 3.93729 14.441 4.97818C14.249 6.89819 12.713 6.89819 12.713 6.89819C12.713 6.89819 13.097 8.81818 9.25697 9.77818C5.41697 10.7382 0.415363 6.89819 0.0313606 6.32218C-0.352638 5.74617 2.91616 1.90617 2.91616 1.90617C2.91616 1.90617 6.94816 1.13817 8.29216 0.370163Z" fill="#FFFFFF" fill-rule="evenodd" stroke-width="1" stroke="#1F42A5" stroke-linecap="round" stroke-linejoin="round" transform="translate(39.84 78.983)" />
      <path d="M23.7338 0C23.7338 0 17.9738 2.496 16.0538 4.9968C14.1338 7.4976 0.693757 27.0768 0.108157 29.5872C-0.477444 32.0976 1.45216 32.6592 2.60416 34.2C3.75615 35.7408 25.0826 48.0336 28.5242 48.9936C31.9658 49.9536 33.1322 51.4896 35.057 49.5696C36.9818 47.6496 40.433 43.8096 39.089 40.344C37.7449 36.8784 33.1321 35.352 30.0602 33.432C26.9882 31.512 22.1833 28.2432 22.1833 28.2432C22.1833 28.2432 31.9802 18.6432 33.5162 15.7632C34.825 13.4115 35.0355 10.6038 34.0922 8.08321C34.0922 8.08321 23.7338 0 23.7338 0Z" fill="#1F42A5" fill-rule="evenodd" stroke-width="1" stroke="#1F42A5" stroke-linecap="round" stroke-linejoin="round" transform="translate(0 37.085)" />
      <path d="M10.9104 0C10.6842 0.65797 10.383 1.28772 10.0128 1.87681C8.856 3.6096 0 13.4112 0 13.4112C0 13.4112 16.368 23.04 16.56 23.8128C16.6864 24.445 16.7507 25.0881 16.752 25.7328" fill="none" stroke-width="1" stroke="#FFFFFF" stroke-linecap="round" stroke-linejoin="round" transform="translate(23.1 51.6)" />
      <path d="M0.264 0C0.264 0 0.177605 0.48 0 1.2096" fill="none" stroke-width="1" stroke="#FFFFFF" stroke-linecap="round" stroke-linejoin="round" transform="translate(34.582 48.47)" />
      <path d="M0 0.817017C1.7712 0.269814 4.0032 -0.200584 5.904 0.0874176" fill="none" stroke-width="1" stroke="#FFFFFF" stroke-linecap="round" stroke-linejoin="round" transform="translate(13.793 64.674)" />
      <path d="M0 0.480003C0 0.480003 0.407999 0.283203 1.0752 0" fill="none" stroke-width="1" stroke="#FFFFFF" stroke-linecap="round" stroke-linejoin="round" transform="translate(10.668 66.192)" />
      <path d="M0 0.193798C0 0.193798 4.61279 -0.579002 6.1488 0.961807" fill="none" stroke-width="1" stroke="#FFFFFF" stroke-linecap="round" stroke-linejoin="round" transform="translate(15.473 63.406)" />
      <path d="M3.2592 0C3.2592 0 7.9104 2.328 7.9104 2.328C8.09749 2.42104 8.23684 2.58847 8.29436 2.78934C8.35189 2.99023 8.32228 3.20603 8.2128 3.38401C8.2128 3.38401 4.9632 8.66402 4.9632 8.66402C4.76093 8.98822 4.34597 9.10648 4.0032 8.93762C4.0032 8.93762 0 6.93601 0 6.93601L3.2592 0Z" fill="#FFFFFF" fill-rule="evenodd" stroke-width="1" stroke="#1F42A5" stroke-linecap="round" stroke-linejoin="round" transform="translate(35.844 77.429)" />
    </g>
    <g transform="translate(10.708 187.037)">
      <path d="M3.13057 3.29033C4.14337 3.14153 6.05377 1.89834 6.05377 1.89353C6.05377 1.88873 4.84897 0.885528 4.76737 0.82793C3.80737 0.203936 1.53217 -0.434473 0.528971 0.395933C0.198907 0.682515 0.0065799 1.09614 0.00016571 1.53321C-0.00624847 1.97029 0.17386 2.38938 0.495371 2.68553C1.14817 3.29033 2.27617 3.38634 3.13057 3.29033Z" fill="#1F42A5" fill-rule="evenodd" transform="translate(0 15.113)" />
      <path d="M4.63247 2.70961C4.15247 1.64881 2.63087 -0.127192 1.33488 0.00720692C0.902151 0.0655665 0.514507 0.30479 0.268305 0.665405C0.0221004 1.02601 -0.0595398 1.47415 0.0436764 1.89841C0.230875 2.79601 1.12848 3.48721 1.91088 3.8568C2.82767 4.2936 5.11247 4.308 5.11247 4.308C5.11247 4.308 4.66607 2.8008 4.63247 2.70961Z" fill="#1F42A5" fill-rule="evenodd" transform="translate(16.676 4.572)" />
      <path d="M21.4497 34.3001C21.8961 34.8521 22.2993 35.3753 22.6641 35.8505C22.6641 35.8505 23.5809 35.8505 23.5809 35.8505C23.1009 35.2601 22.5825 34.5929 21.9729 33.8681C21.6225 33.4457 21.2385 33.0041 20.8353 32.5529C21.2018 32.1078 21.5416 31.6414 21.8529 31.1561C22.7409 31.342 23.6502 31.405 24.5553 31.3433C24.6177 31.8809 24.6753 32.4041 24.7185 32.9033C24.8241 34.0217 24.8913 35.0153 24.9297 35.8505C24.9297 35.8505 25.6737 35.8505 25.6737 35.8505C25.6161 34.9961 25.5249 33.9785 25.3953 32.8313C25.3329 32.2841 25.2561 31.7033 25.1697 31.1033C25.3809 31.0409 27.0897 30.5081 27.7233 29.9465C28.3569 29.3849 28.8849 28.6409 28.8225 27.8345C28.8051 27.4512 28.6258 27.0933 28.3292 26.8498C28.0326 26.6063 27.6467 26.5001 27.2673 26.5577C26.1393 26.7593 25.2849 28.6361 25.1505 29.6489C25.1505 29.7065 25.1505 30.3641 25.1217 30.7769C25.0881 30.5369 25.0545 30.2969 25.0161 30.0473C24.9393 29.5673 24.8481 29.0585 24.7569 28.5257C24.6993 28.2713 24.6465 28.0121 24.5889 27.7529C24.5313 27.4937 24.4545 27.2297 24.3873 26.9609C24.2193 26.3465 24.0177 25.7369 23.8017 25.1225C24.2337 25.0553 25.7745 24.7961 26.4177 24.3785C27.0609 23.9609 27.7617 23.2601 27.8193 22.4585C27.8616 22.0762 27.7392 21.6939 27.4827 21.4072C27.2263 21.1205 26.86 20.9565 26.4753 20.9561C25.3329 20.9849 24.2049 22.7129 23.9169 23.6921C23.9169 23.7497 23.7729 24.4793 23.7105 24.8777C23.5761 24.5081 23.4465 24.1433 23.2977 23.7737C22.8753 22.7129 22.4145 21.6521 21.9585 20.5913C21.8193 20.2697 21.6849 19.9433 21.5505 19.6313C21.7041 19.6313 23.5425 19.3385 24.2625 18.8729C24.9009 18.4601 25.6017 17.7545 25.6641 16.9529C25.7048 16.5709 25.5819 16.1895 25.3258 15.9032C25.0696 15.6169 24.7043 15.4524 24.3201 15.4505C23.1777 15.4841 22.0449 17.2073 21.7617 18.1865C21.7377 18.2585 21.5553 19.3049 21.5217 19.5737C21.2241 18.8585 20.9313 18.1337 20.6721 17.4233C20.3141 16.455 20.0206 15.464 19.7937 14.4569C19.8657 14.4569 21.7857 14.1737 22.5201 13.6985C23.1633 13.2857 23.8641 12.5801 23.9265 11.7785C23.9672 11.3965 23.8443 11.0151 23.5882 10.7288C23.332 10.4425 22.9666 10.278 22.5825 10.2761C21.4401 10.3049 20.3073 12.0329 20.0193 13.0121C20.0193 13.0745 19.8609 13.8713 19.8033 14.2505C19.8033 14.2505 19.7409 14.2505 19.7409 14.2505C19.5393 13.2336 19.4285 12.2007 19.4097 11.1641C19.4097 10.5929 19.4097 10.0457 19.4097 9.51293C19.7745 9.51293 21.4305 9.41693 22.1409 9.06173C22.8513 8.70653 23.5809 8.10173 23.7441 7.30493C23.8283 6.93015 23.7494 6.53723 23.5269 6.22409C23.3044 5.91095 22.9593 5.70711 22.5777 5.66332C21.4353 5.56732 20.1249 7.16092 19.7313 8.10172C19.7313 8.14972 19.5489 8.69691 19.4385 9.09532C19.4385 8.85532 19.4673 8.61532 19.4865 8.38012C19.5585 7.51613 19.6785 6.73373 19.7889 6.03772C19.8561 5.64412 19.9233 5.28892 19.9905 4.95772C20.3361 4.75611 21.7329 3.93532 22.1937 3.30652C22.6545 2.67772 23.0385 1.77532 22.8081 1.00731C22.7097 0.635464 22.4577 0.323057 22.1152 0.14811C21.7726 -0.0268359 21.3718 -0.0477832 21.0129 0.0905127C19.9569 0.532119 19.5249 2.54811 19.6113 3.56571C19.6113 3.6521 19.8897 5.00571 19.9089 5.00571C19.9089 5.00571 19.9089 5.00571 19.9089 5.00571C19.8417 5.32251 19.7697 5.66331 19.6977 6.03771C19.5681 6.73371 19.4337 7.5161 19.3425 8.38011C19.2315 9.30875 19.177 10.2433 19.1793 11.1785C19.1774 12.2256 19.2657 13.271 19.4433 14.3031C19.4454 14.3158 19.4454 14.3288 19.4433 14.3415C19.2897 14.0439 18.8241 13.2327 18.7809 13.1751C18.1761 12.3495 16.5297 11.1111 15.4449 11.4711C15.0829 11.601 14.7936 11.8792 14.6497 12.2359C14.5057 12.5925 14.5209 12.9936 14.6913 13.3383C15.0177 14.0727 15.9201 14.4999 16.6593 14.6679C17.4993 14.8647 19.3281 14.4903 19.4721 14.4615C19.6837 15.5057 19.9627 16.535 20.3073 17.5431C20.5089 18.1335 20.7249 18.7191 20.9553 19.3047C20.8113 19.0551 20.6817 18.8247 20.6577 18.8007C20.0577 17.9751 18.4065 16.7367 17.3217 17.0967C16.9607 17.2279 16.6724 17.5062 16.5287 17.8624C16.3849 18.2185 16.3992 18.619 16.5681 18.9639C16.8993 19.7031 17.7969 20.1255 18.5408 20.2983C19.2848 20.4711 20.8592 20.1831 21.2721 20.1063C21.3584 20.3271 21.4449 20.5527 21.5361 20.7736C21.9681 21.8487 22.4049 22.9143 22.8033 23.9752C22.9425 24.3496 23.0625 24.7192 23.1921 25.0936C23.0625 24.868 22.952 24.6808 22.9328 24.6567C22.3328 23.8312 20.6816 22.5928 19.5728 22.9528C19.2119 23.0839 18.9236 23.3622 18.7799 23.7184C18.6361 24.0745 18.6504 24.475 18.8193 24.82C19.1505 25.5592 20.0481 25.9816 20.7921 26.1544C21.5361 26.3272 22.9569 26.068 23.4465 25.972C23.5617 26.3608 23.6817 26.7448 23.7777 27.124C23.8353 27.3832 23.9121 27.6328 23.9553 27.8968C23.9985 28.1607 24.0561 28.4151 24.1089 28.6695C24.1857 29.1495 24.2673 29.6775 24.3297 30.1671C24.3777 30.5031 24.4113 30.8247 24.4545 31.1271C24.3201 30.7527 24.0369 30.0279 24.0081 29.9703C23.5664 29.1829 22.9301 28.5218 22.1601 28.0503C22.1129 27.9621 22.06 27.8772 22.0017 27.796C21.7756 27.4844 21.4275 27.2838 21.0446 27.2444C20.6616 27.205 20.28 27.3305 19.9953 27.5896C19.1697 28.3768 19.5153 30.4168 19.9377 31.3336C19.9377 31.3863 20.312 31.9431 20.5377 32.2936C20.5377 32.2936 20.0577 31.7416 20.0577 31.7416C19.7169 31.3672 19.3713 31.0072 19.0017 30.6136C18.8145 30.436 18.6273 30.2487 18.4353 30.0616C18.2433 29.8744 18.0321 29.7016 17.8305 29.5143C17.3505 29.0968 16.8417 28.6983 16.3233 28.3048C16.6497 28.0072 17.7921 26.9416 18.0993 26.2408C18.4065 25.54 18.5793 24.5656 18.2049 23.8648C18.03 23.5298 17.7227 23.2836 17.3577 23.186C16.9928 23.0883 16.6036 23.1483 16.2848 23.3512C15.3249 24.0087 15.3536 26.068 15.656 27.0472C15.656 27.1048 15.9681 27.7816 16.1361 28.1512C15.824 27.916 15.5121 27.6712 15.1761 27.4551C14.216 26.8071 13.2561 26.1735 12.2961 25.5351C11.9985 25.3431 11.7104 25.1463 11.4128 24.9495C11.5328 24.8439 12.9152 23.6055 13.2608 22.8231C13.568 22.1224 13.7408 21.148 13.3664 20.4231C13.1897 20.0901 12.882 19.8459 12.5176 19.7493C12.1531 19.6528 11.7649 19.7126 11.4464 19.9143C10.4864 20.5719 10.5152 22.6311 10.8176 23.6104C10.8176 23.6824 11.264 24.652 11.384 24.8968C10.7408 24.4648 10.1024 24.028 9.46405 23.5719C8.6535 22.9725 7.88233 22.3216 7.15531 21.6233C7.20811 21.5753 8.65771 20.2889 9.01291 19.4825C9.32011 18.7865 9.49291 17.8121 9.11851 17.1065C8.94446 16.7642 8.63229 16.5127 8.26079 16.4154C7.88929 16.3182 7.49394 16.3845 7.17451 16.5977C6.21451 17.2505 6.24331 19.3145 6.54571 20.2889C6.54571 20.3561 6.88651 21.0953 7.02571 21.4457C7.02571 21.4457 6.97291 21.4793 6.97291 21.4793C6.24295 20.739 5.57959 19.9359 4.9905 19.0793C4.6641 18.5993 4.3761 18.1481 4.1025 17.6921C4.4001 17.4809 5.7345 16.4969 6.1329 15.8057C6.5313 15.1145 6.8145 14.1977 6.4977 13.4537C6.35997 13.0961 6.07715 12.8136 5.71938 12.6764C5.36162 12.5391 4.96245 12.56 4.6209 12.7337C3.6177 13.2857 3.3969 15.3353 3.5889 16.3385C3.5889 16.3913 3.7665 16.9337 3.8961 17.3273C3.7761 17.1161 3.6513 16.9049 3.5409 16.7033C3.1233 15.9449 2.7921 15.2249 2.4993 14.5865C2.3409 14.2169 2.2017 13.8857 2.0721 13.5737C2.2545 13.2137 2.9649 11.7593 2.9985 10.9769C3.0321 10.1945 2.8641 9.23448 2.2401 8.72087C1.95378 8.46573 1.57238 8.34453 1.19129 8.38758C0.810207 8.43063 0.465466 8.63388 0.243296 8.94649C-0.395104 9.90649 0.353696 11.8265 0.987296 12.6185C1.0401 12.6905 2.0193 13.6745 2.0337 13.6553C2.0337 13.6553 2.0337 13.6553 2.0337 13.6553C2.1489 13.9625 2.27849 14.2841 2.4225 14.6153C2.7009 15.2633 3.0177 15.9929 3.4209 16.7609C3.84144 17.5959 4.31106 18.4053 4.82729 19.1849C5.40155 20.0626 6.05379 20.8867 6.77608 21.6473C6.77608 21.6473 6.80008 21.6713 6.80008 21.6713C6.50728 21.5129 5.67208 21.0905 5.60488 21.0617C4.64488 20.7065 2.58568 20.5817 1.88008 21.4841C1.6516 21.7928 1.56503 22.1841 1.64194 22.5603C1.71884 22.9366 1.95199 23.2625 2.28328 23.4569C2.96488 23.8889 3.94888 23.7497 4.68328 23.4809C5.48968 23.1785 6.80968 21.8633 6.91528 21.7577C7.66712 22.5131 8.46893 23.2171 9.31528 23.8649C9.79528 24.2488 10.3089 24.6185 10.8225 24.9785C10.8225 24.9785 10.2993 24.7193 10.2993 24.7193C9.33927 24.3641 7.28487 24.2393 6.57447 25.1417C6.346 25.4504 6.25943 25.8416 6.33633 26.2179C6.41324 26.5942 6.64638 26.9201 6.97767 27.1145C7.65927 27.5464 8.64327 27.4072 9.37767 27.1384C10.1121 26.8696 11.2497 25.7657 11.5521 25.4728C11.5521 25.4728 12.1425 25.8856 12.1425 25.8856C13.1025 26.5384 14.0625 27.1864 14.9649 27.8536C15.2865 28.0888 15.5937 28.3336 15.9249 28.5736C15.9249 28.5736 15.4449 28.348 15.4449 28.348C14.4849 27.9928 12.4305 27.868 11.7249 28.7704C11.496 29.0786 11.4087 29.4693 11.4846 29.8456C11.5606 30.2218 11.7928 30.5481 12.1233 30.7432C12.8049 31.1752 13.7889 31.036 14.5233 30.7672C15.2577 30.4984 16.2801 29.5 16.6401 29.1544C16.9521 29.4088 17.2593 29.668 17.5521 29.932C17.7441 30.1144 17.9409 30.2776 18.1233 30.4744C18.1233 30.4744 18.6753 31.0409 18.6753 31.0409C19.0113 31.4153 19.3617 31.7945 19.6833 32.1689C19.9089 32.4233 20.1153 32.6729 20.3313 32.9225C20.0097 32.6825 19.3713 32.2313 19.3185 32.2025C18.4305 31.7225 16.4385 31.2713 15.5793 32.0537C15.3048 32.323 15.1583 32.6967 15.1766 33.0808C15.195 33.4649 15.3764 33.8229 15.6753 34.0649C16.2849 34.5929 17.2785 34.6025 18.0225 34.4489C18.8433 34.2761 20.2929 33.2249 20.4753 33.0905C20.8065 33.5033 21.1425 33.9113 21.4497 34.3001Z" fill="#1F42A5" fill-rule="evenodd" transform="translate(2.777 0.044)" />
      <path d="M2.9232 3.29033C1.91519 3.14634 0 1.89833 0 1.89833C0 1.89833 1.2048 0.885542 1.28639 0.82793C2.2464 0.203936 4.52159 -0.434473 5.5296 0.395933C5.85904 0.683203 6.05048 1.09723 6.05597 1.53429C6.06148 1.97136 5.88049 2.39007 5.5584 2.68553C4.9104 3.33353 3.7776 3.41514 2.9232 3.29033Z" fill="#1F42A5" fill-rule="evenodd" transform="translate(202.705 15.727)" />
      <path d="M0.000900269 4.308C-0.0231018 4.308 0.447296 2.8008 0.480896 2.70961C0.960892 1.64881 2.4825 -0.127192 3.77849 0.00720692C4.21121 0.0655665 4.59886 0.30479 4.84508 0.665405C5.09126 1.02601 5.1729 1.47415 5.06969 1.89841C4.8777 2.80081 3.98489 3.48721 3.19769 3.86161C2.28569 4.2936 0.00567627 4.308 0.000900269 4.308Z" fill="#1F42A5" fill-rule="evenodd" transform="translate(187.416 5.21)" />
      <path d="M7.34909 34.3102C6.90749 34.8622 6.50429 35.3806 6.1395 35.8606C6.1395 35.8606 5.24669 35.8606 5.24669 35.8606C5.72668 35.2702 6.24509 34.603 6.84988 33.8782C7.20508 33.4558 7.58908 33.0142 7.99228 32.5582C7.62575 32.1131 7.28595 31.6467 6.97467 31.1614C6.08522 31.3484 5.17439 31.413 4.26747 31.3534C4.20506 31.891 4.15227 32.4142 4.10426 32.9086C4.00348 34.0318 3.93626 35.0254 3.89787 35.8606C3.89787 35.8606 3.15388 35.8606 3.15388 35.8606C3.21147 35.0062 3.29788 33.9886 3.43228 32.8414C3.49467 32.2942 3.57147 31.7086 3.65308 31.1134C3.44667 31.051 1.73308 30.5134 1.09947 29.9566C0.465866 29.3998 -0.0573273 28.651 0.00506592 27.8446C0.0210114 27.4607 0.19989 27.1018 0.496841 26.858C0.793793 26.6142 1.18063 26.5086 1.56026 26.5678C2.68826 26.7694 3.54266 28.6462 3.67706 29.6542C3.67706 29.7166 3.70107 30.3742 3.70107 30.7869C3.73946 30.5421 3.77306 30.3069 3.81146 30.0574C3.88826 29.5774 3.97466 29.0637 4.07066 28.5357C4.12827 28.2813 4.18108 28.0221 4.23868 27.763C4.29626 27.5038 4.37306 27.235 4.44028 26.971C4.60828 26.3566 4.80988 25.7422 5.02588 25.1326C4.59387 25.0654 3.05309 24.8014 2.40987 24.3886C1.76666 23.9758 1.06587 23.2702 1.00827 22.4686C0.965973 22.0875 1.08783 21.7065 1.34341 21.4207C1.59897 21.1349 1.96408 20.9714 2.34747 20.971C3.49467 20.9998 4.62267 22.723 4.91066 23.7022C4.91066 23.7646 5.05466 24.4894 5.11707 24.8926C5.25146 24.523 5.38106 24.1582 5.52986 23.7886C5.95226 22.7278 6.41306 21.667 6.86906 20.6062C7.00827 20.2798 7.14267 19.9582 7.27707 19.6462C7.12346 19.6222 5.28506 19.3534 4.56506 18.8878C3.92667 18.475 3.22107 17.7694 3.16347 16.9678C3.12106 16.5859 3.24356 16.2041 3.50018 15.9181C3.75682 15.6322 4.12323 15.4692 4.50746 15.4702C5.64986 15.499 6.77786 17.227 7.06584 18.2062C7.08984 18.2782 7.27225 19.3246 7.30104 19.5934C7.60344 18.8734 7.89624 18.1534 8.15544 17.443C8.51283 16.4745 8.80627 15.4835 9.03384 14.4766C8.96185 14.4766 7.04185 14.1934 6.30264 13.7182C5.66426 13.3054 4.96344 12.5998 4.90105 11.7982C4.86021 11.4166 4.98325 11.0357 5.23955 10.7501C5.49585 10.4645 5.86131 10.3011 6.24504 10.3006C7.38744 10.3294 8.52023 12.0526 8.80823 13.0318C8.80823 13.099 8.96184 13.8958 9.01944 14.275C9.01944 14.275 9.08669 14.275 9.08669 14.275C9.28828 13.2564 9.39911 12.222 9.41789 11.1838C9.41789 10.6126 9.41789 10.0702 9.39389 9.53739C9.02908 9.53739 7.37309 9.4366 6.66269 9.05739C5.95229 8.67819 5.22269 8.09739 5.05469 7.30059C4.972 6.92575 5.05234 6.53345 5.2757 6.22129C5.49905 5.90914 5.84444 5.70649 6.22589 5.66377C7.36829 5.56777 8.67868 7.15657 9.07228 8.10217C9.07228 8.15017 9.25468 8.69736 9.36508 9.09577C9.36508 8.85577 9.33627 8.61577 9.31708 8.37577C9.24509 7.51657 9.12508 6.72938 9.01468 6.03817C8.94746 5.64457 8.88028 5.28938 8.81306 4.95817C8.46266 4.75657 7.07066 3.93577 6.60986 3.30217C6.14908 2.66856 5.76027 1.77577 5.99547 1.00296C6.09497 0.631992 6.34735 0.320757 6.68977 0.146807C7.0322 -0.0271582 7.43239 -0.0474609 7.79066 0.0909522C8.84666 0.532559 9.27867 2.54375 9.19228 3.56136C9.19228 3.65256 8.91388 5.00136 8.89467 5.00136C8.89467 5.00136 8.87068 5.00136 8.87068 5.00136C8.94267 5.31816 9.01468 5.65896 9.08669 6.03336C9.21149 6.72936 9.35068 7.51175 9.44188 8.37576C9.54817 9.30479 9.60266 10.239 9.60507 11.1742C9.60779 12.2216 9.51785 13.2673 9.33627 14.2989C9.33627 14.2989 9.33627 14.3229 9.33627 14.3373C9.48988 14.0397 9.95549 13.2237 9.99869 13.1661C10.5987 12.3453 12.2499 11.1069 13.3587 11.4669C13.7197 11.598 14.0079 11.8764 14.1517 12.2325C14.2954 12.5887 14.2811 12.9891 14.1123 13.3341C13.7859 14.0685 12.8835 14.4909 12.1395 14.6637C11.3043 14.8557 9.47549 14.4861 9.33148 14.4573C9.12045 15.5021 8.83983 16.5316 8.49149 17.5389C8.29469 18.1293 8.0739 18.7149 7.8483 19.3005C7.99228 19.0461 8.1219 18.8205 8.14589 18.8205C8.7459 17.9949 10.3971 16.7565 11.4819 17.1165C11.8429 17.2477 12.1311 17.526 12.2749 17.8821C12.4186 18.2383 12.4043 18.6387 12.2355 18.9837C11.9043 19.7181 11.0067 20.1453 10.2627 20.3133C9.51871 20.4813 7.94431 20.2029 7.53151 20.1213C7.44511 20.3469 7.35872 20.5725 7.26752 20.7933C6.83551 21.8637 6.39871 22.9341 6.00031 23.9949C5.8611 24.3645 5.73631 24.7389 5.61151 25.1133C5.7411 24.8877 5.8515 24.7005 5.87071 24.6765C6.4707 23.8509 8.12192 22.6125 9.20671 22.9725C9.5677 23.1037 9.85596 23.382 9.99971 23.7381C10.1434 24.0943 10.1291 24.4947 9.96031 24.8397C9.62912 25.5741 8.73152 26.0013 7.98752 26.1693C7.24353 26.3373 5.82272 26.0877 5.33313 25.9917C5.21313 26.3757 5.09793 26.7645 5.00192 27.1437C4.94434 27.4029 4.86752 27.6477 4.81952 27.9117C4.77151 28.1757 4.71873 28.4349 4.67073 28.6893C4.59392 29.1693 4.51233 29.6973 4.44994 30.1821C4.40193 30.5229 4.36353 30.8445 4.32512 31.1709C4.45952 30.7965 4.73792 30.0717 4.77151 30.0141C5.21094 29.2249 5.84772 28.5634 6.61952 28.0941C6.66312 28.0039 6.71622 27.9186 6.77794 27.8397C7.00308 27.5284 7.35031 27.3278 7.73251 27.2884C8.11472 27.249 8.49557 27.3745 8.77953 27.6333C9.60992 28.4205 9.28831 30.4605 8.84192 31.3773C8.81793 31.4301 8.46753 31.9869 8.23712 32.3373C8.23712 32.3373 8.71712 31.7901 8.71712 31.7901C9.05313 31.4157 9.40352 31.0557 9.77313 30.6621C9.77313 30.6621 10.3395 30.1101 10.3395 30.1101C10.5219 29.9229 10.7427 29.7453 10.9443 29.5629C11.4243 29.1453 11.9043 28.7421 12.4515 28.3533C12.1251 28.0557 10.9827 26.9901 10.6755 26.2893C10.3683 25.5885 10.1715 24.6141 10.5651 23.8893C10.7424 23.549 11.0554 23.2996 11.4267 23.2026C11.7979 23.1057 12.1929 23.1703 12.5139 23.3805C13.4499 24.0381 13.4451 26.0973 13.1427 27.0717C13.1427 27.1341 12.8307 27.8109 12.6627 28.1805C12.9795 27.9453 13.2915 27.7005 13.6227 27.4845C14.5827 26.8317 15.5427 26.2029 16.5027 25.5645C16.5027 25.5645 17.3811 24.9789 17.3811 24.9789C17.2659 24.8733 15.8835 23.6349 15.5379 22.8477C15.2307 22.1517 15.0339 21.1773 15.4275 20.4717C15.6037 20.1303 15.9167 19.8798 16.2885 19.7827C16.6602 19.6857 17.0557 19.7512 17.3763 19.9629C18.3363 20.6205 18.3075 22.6797 18.0051 23.6541C18.0051 23.7309 17.5587 24.7005 17.4387 24.9405C18.0819 24.5133 18.7203 24.0765 19.3587 23.6205C20.1881 23.008 20.9784 22.3443 21.7251 21.6333C21.6723 21.5853 20.2227 20.2989 19.8675 19.4925C19.5603 18.7965 19.3635 17.8221 19.7571 17.1165C19.9333 16.775 20.2463 16.5246 20.618 16.4275C20.9898 16.3304 21.3853 16.396 21.7059 16.6077C22.6419 17.2605 22.6371 19.3245 22.3347 20.2989C22.3347 20.3613 21.9891 21.1053 21.8307 21.4509C21.8307 21.4509 21.8835 21.4893 21.8835 21.4893C22.612 20.749 23.2737 19.9459 23.8611 19.0893C24.1923 18.6093 24.4803 18.1581 24.7539 17.6973C24.4563 17.4861 23.1219 16.5021 22.7235 15.8157C22.3251 15.1293 22.0419 14.2077 22.3539 13.4637C22.4915 13.1048 22.7751 12.8213 23.1341 12.6839C23.4931 12.5466 23.8935 12.5683 24.2355 12.7437C25.2387 13.2909 25.4547 15.3405 25.2627 16.3437C25.2627 16.4013 25.0851 16.9437 24.9603 17.3373C25.0803 17.1261 25.2051 16.9149 25.3155 16.7133C25.7283 15.9549 26.0643 15.2349 26.3523 14.5917C26.5155 14.2269 26.6547 13.8957 26.7843 13.5789C26.6019 13.2237 25.8915 11.7693 25.8579 10.9869C25.8243 10.2045 25.9923 9.24448 26.6115 8.73088C26.8986 8.47554 27.2808 8.35427 27.6626 8.39731C28.0444 8.44034 28.39 8.64363 28.6131 8.9565C29.2515 9.9165 28.4979 11.8365 27.8691 12.6285C27.8115 12.6957 26.8323 13.6845 26.8227 13.6653C26.8227 13.6653 26.8227 13.6413 26.8227 13.6413C26.7075 13.9437 26.5779 14.2701 26.4291 14.6013C26.1555 15.2493 25.8339 15.9789 25.4355 16.7517C25.0139 17.5862 24.5443 18.3955 24.0291 19.1757C23.4544 20.0516 22.8022 20.8741 22.0803 21.6333C22.0803 21.6333 22.0563 21.6621 22.0563 21.6621C22.3491 21.4989 23.1843 21.0765 23.2515 21.0525C24.2115 20.6973 26.2659 20.5725 26.9763 21.4749C27.2048 21.7836 27.2914 22.1749 27.2145 22.5511C27.1376 22.9274 26.9044 23.2533 26.5731 23.4477C25.8915 23.8797 24.9075 23.7357 24.1731 23.4717C23.3715 23.1693 22.0515 21.8493 21.9459 21.7437C21.1941 22.5007 20.3923 23.2062 19.5459 23.8557C19.0659 24.2397 18.5475 24.6045 18.0387 24.9693C18.0387 24.9693 18.5619 24.7101 18.5619 24.7101C19.5219 24.3549 21.5763 24.2301 22.2867 25.1325C22.5152 25.4412 22.6017 25.8325 22.5248 26.2087C22.4479 26.585 22.2148 26.9109 21.8835 27.1053C21.2019 27.5373 20.2179 27.3933 19.4835 27.1293C18.7491 26.8653 17.6115 25.7565 17.3139 25.4589C17.3139 25.4589 16.7235 25.8716 16.7235 25.8716C15.7635 26.5292 14.8035 27.1772 13.9011 27.8444C13.5795 28.0796 13.2675 28.3244 12.9411 28.5644C13.1715 28.4444 13.3635 28.3484 13.4211 28.3388C14.3811 27.9836 16.4355 27.8588 17.1411 28.7612C17.37 29.0693 17.4573 29.4602 17.3813 29.8364C17.3053 30.2126 17.0732 30.5389 16.7427 30.734C16.0611 31.166 15.0771 31.022 14.3427 30.758C13.6083 30.494 12.5811 29.4908 12.2259 29.1404C11.9139 29.3996 11.6019 29.654 11.3139 29.918C11.1219 30.1052 10.9251 30.2684 10.7379 30.4652C10.7379 30.4652 10.1859 31.0268 10.1859 31.0268C9.84988 31.4012 9.4995 31.7804 9.17789 32.15C9.17789 32.15 8.52988 32.9036 8.52988 32.9036C8.85149 32.6685 9.48988 32.2173 9.53789 32.1836C10.4307 31.7036 12.4467 31.2572 13.2819 32.0397C13.555 32.3097 13.7005 32.683 13.6821 33.0667C13.6638 33.4503 13.4834 33.808 13.1859 34.0509C12.5763 34.5789 11.5827 34.5885 10.8387 34.4348C10.0131 34.2621 8.56348 33.206 8.38588 33.0765C7.99709 33.5134 7.64668 33.9214 7.34909 34.3102Z" fill="#1F42A5" fill-rule="evenodd" transform="translate(177.966 0)" />
    </g>
    <path d="M0 0.480011L223.2 0.480011" fill="none" stroke-width="2" stroke="#1F42A5" stroke-linecap="round" stroke-linejoin="round" transform="translate(8.64 222.59)" />
  </g>
</svg>